<svg width="72" height="72" viewBox="0 0 72 72" fill="none" xmlns="http://www.w3.org/2000/svg">
<path d="M44.4 13.8386L64.503 47.3216C67.392 52.1306 65.973 58.4576 61.332 61.4516C59.7743 62.4602 57.9587 62.9977 56.103 62.9996H15.894C10.431 62.9996 6 58.4096 6 52.7426C6 50.8256 6.519 48.9506 7.494 47.3216L27.6 13.8386C30.486 9.02958 36.588 7.55657 41.229 10.5506C42.513 11.3786 43.599 12.5036 44.4 13.8386ZM36 50.9996C36.7956 50.9996 37.5587 50.6835 38.1213 50.1209C38.6839 49.5583 39 48.7952 39 47.9996C39 47.2039 38.6839 46.4409 38.1213 45.8783C37.5587 45.3156 36.7956 44.9996 36 44.9996C35.2044 44.9996 34.4413 45.3156 33.8787 45.8783C33.3161 46.4409 33 47.2039 33 47.9996C33 48.7952 33.3161 49.5583 33.8787 50.1209C34.4413 50.6835 35.2044 50.9996 36 50.9996ZM36 23.9996C35.2044 23.9996 34.4413 24.3156 33.8787 24.8783C33.3161 25.4409 33 26.2039 33 26.9996V38.9996C33 39.7952 33.3161 40.5583 33.8787 41.1209C34.4413 41.6835 35.2044 41.9996 36 41.9996C36.7956 41.9996 37.5587 41.6835 38.1213 41.1209C38.6839 40.5583 39 39.7952 39 38.9996V26.9996C39 26.2039 38.6839 25.4409 38.1213 24.8783C37.5587 24.3156 36.7956 23.9996 36 23.9996Z" fill="#F21D2F"/>
</svg>
