<svg width="100" height="100" viewBox="0 0 100 100" fill="none" xmlns="http://www.w3.org/2000/svg">
<rect x="0.5" y="0.5" width="99" height="99" stroke="black"/>
<path d="M86.4409 76.3312C87.4335 77.2835 87.9912 78.5751 87.9912 79.9219C87.9912 81.2687 87.4335 82.5603 86.4409 83.5127C85.4483 84.465 84.102 85 82.6982 85C81.2945 85 79.9482 84.465 78.9556 83.5127L51 56.6836L23.0356 83.5042C22.043 84.4565 20.6967 84.9916 19.2929 84.9916C17.8892 84.9916 16.5429 84.4565 15.5503 83.5042C14.5576 82.5519 14 81.2603 14 79.9135C14 78.5667 14.5576 77.2751 15.5503 76.3228L43.5147 49.5021L15.5591 22.673C14.5665 21.7207 14.0088 20.4291 14.0088 19.0823C14.0088 17.7355 14.5665 16.4439 15.5591 15.4916C16.5517 14.5392 17.898 14.0042 19.3017 14.0042C20.7055 14.0042 22.0518 14.5392 23.0444 15.4916L51 42.3207L78.9644 15.4873C79.957 14.535 81.3033 14 82.7071 14C84.1108 14 85.4571 14.535 86.4497 15.4873C87.4423 16.4396 88 17.7313 88 19.0781C88 20.4248 87.4423 21.7165 86.4497 22.6688L58.4853 49.5021L86.4409 76.3312Z" fill="#A93F3F" fill-opacity="0.25"/>
<path fill-rule="evenodd" clip-rule="evenodd" d="M21 24H70.0838V31.7772H66.9171V27.1109H24.1667V62.8858H58.0298V65.9966H21V24ZM68.5004 44.2206C69.7602 44.2206 70.9684 43.729 71.8592 42.8539C72.75 41.9788 73.2505 40.7919 73.2505 39.5543C73.2505 38.3167 72.75 37.1298 71.8592 36.2547C70.9684 35.3796 69.7602 34.888 68.5004 34.888C67.2407 34.888 66.0325 35.3796 65.1417 36.2547C64.2509 37.1298 63.7504 38.3167 63.7504 39.5543C63.7504 40.7919 64.2509 41.9788 65.1417 42.8539C66.0325 43.729 67.2407 44.2206 68.5004 44.2206ZM71.7162 47.347C73.773 47.347 75.4007 48.2554 76.4663 49.6584C77.4622 50.9727 77.8834 52.5981 77.9784 54.0991C78.0725 55.6389 77.8589 57.1818 77.3498 58.641C76.8748 59.9942 76.072 61.3941 74.8338 62.3538V77.6624C74.835 78.2486 74.6115 78.8137 74.2077 79.2454C73.804 79.677 73.2497 79.9436 72.655 79.992C72.0603 80.0404 71.4689 79.8672 70.9983 79.5067C70.5278 79.1462 70.2126 78.6249 70.1155 78.0466L68.0729 65.9966H67.6011L65.2926 78.0917C65.183 78.6625 64.8605 79.1726 64.3883 79.5223C63.9161 79.872 63.3281 80.036 62.7393 79.9823C62.1504 79.9286 61.6032 79.6611 61.2045 79.232C60.8059 78.803 60.5845 78.2433 60.5837 77.6624V55.471C60.2671 55.9448 59.9546 56.4213 59.6464 56.9005L59.5229 57.0918L59.4912 57.1416L59.4833 57.1556C59.2699 57.4921 58.9727 57.7698 58.6197 57.9622C58.2668 58.1546 57.8697 58.2554 57.4661 58.2552H49.5494C48.9195 58.2552 48.3154 58.0094 47.87 57.5719C47.4246 57.1343 47.1743 56.5409 47.1743 55.9221C47.1743 55.3033 47.4246 54.7099 47.87 54.2723C48.3154 53.8348 48.9195 53.589 49.5494 53.589H56.163C56.5477 53.0041 57.0544 52.2451 57.5864 51.4829C58.1406 50.6881 58.7518 49.8466 59.2964 49.1871C59.5609 48.8651 59.8569 48.5291 60.1546 48.2538C60.3003 48.1185 60.503 47.9427 60.75 47.7872C61.1851 47.5045 61.6945 47.3521 62.2161 47.3486L71.7162 47.347Z" fill="#545454"/>
</svg>
