<svg width="100" height="100" viewBox="0 0 100 100" fill="none" xmlns="http://www.w3.org/2000/svg">
<g clip-path="url(#clip0_715_92)">
<path d="M49.3333 27.5C52.0297 27.5 54.6156 28.6765 56.5223 30.7706C58.4289 32.8648 59.5 35.7051 59.5 38.6667C59.5 41.6283 58.4289 44.4685 56.5223 46.5627C54.6156 48.6568 52.0297 49.8333 49.3333 49.8333C46.637 49.8333 44.051 48.6568 42.1444 46.5627C40.2378 44.4685 39.1667 41.6283 39.1667 38.6667C39.1667 35.7051 40.2378 32.8648 42.1444 30.7706C44.051 28.6765 46.637 27.5 49.3333 27.5ZM49.3333 55.4167C60.5675 55.4167 69.6667 60.4137 69.6667 66.5833V72.1667H29V66.5833C29 60.4137 38.0992 55.4167 49.3333 55.4167Z" fill="#666666"/>
<path d="M85.2739 78.6642C86.2665 79.6165 86.8242 80.9082 86.8242 82.2549C86.8242 83.6017 86.2665 84.8934 85.2739 85.8457C84.2813 86.798 82.935 87.333 81.5313 87.333C80.1275 87.333 78.7812 86.798 77.7886 85.8457L49.833 59.0166L21.8686 85.8372C20.876 86.7896 19.5297 87.3246 18.1259 87.3246C16.7222 87.3246 15.3759 86.7896 14.3833 85.8372C13.3907 84.8849 12.833 83.5933 12.833 82.2465C12.833 80.8997 13.3907 79.6081 14.3833 78.6558L42.3477 51.8351L14.3921 25.006C13.3995 24.0537 12.8418 22.7621 12.8418 21.4153C12.8418 20.0685 13.3995 18.7769 14.3921 17.8246C15.3847 16.8722 16.731 16.3372 18.1348 16.3372C19.5385 16.3372 20.8848 16.8722 21.8774 17.8246L49.833 44.6537L77.7974 17.8203C78.79 16.868 80.1363 16.333 81.5401 16.333C82.9438 16.333 84.2901 16.868 85.2827 17.8203C86.2754 18.7727 86.833 20.0643 86.833 21.4111C86.833 22.7579 86.2754 24.0495 85.2827 25.0018L57.3184 51.8351L85.2739 78.6642Z" fill="#A93F3F" fill-opacity="0.25"/>
</g>
<rect x="0.5" y="0.5" width="99" height="99" stroke="black"/>
<defs>
<clipPath id="clip0_715_92">
<rect width="100" height="100" fill="white"/>
</clipPath>
</defs>
</svg>
