<svg width="92" height="84" viewBox="0 0 92 84" fill="none" xmlns="http://www.w3.org/2000/svg">
<path d="M75.167 50.5H91.8337V0.5H75.167M58.5003 0.5H21.0003C17.542 0.5 14.5837 2.58333 13.3337 5.58333L0.750325 34.9583C0.375325 35.9167 0.166992 36.9167 0.166992 38V46.3333C0.166992 48.5435 1.04497 50.6631 2.60777 52.2259C4.17057 53.7887 6.29019 54.6667 8.50033 54.6667H34.792L30.8337 73.7083C30.7503 74.125 30.7087 74.5417 30.7087 75C30.7087 76.75 31.417 78.2917 32.542 79.4167L36.9587 83.8333L64.3753 56.375C65.917 54.875 66.8337 52.7917 66.8337 50.5V8.83333C66.8337 6.6232 65.9557 4.50358 64.3929 2.94078C62.8301 1.37797 60.7105 0.5 58.5003 0.5Z" fill="#6D0B13" fill-opacity="0.5"/>
</svg>
