<svg width="516" height="581" viewBox="0 0 516 581" fill="none" xmlns="http://www.w3.org/2000/svg">
<path d="M258 579C291.618 579 324.908 573.161 355.967 561.816C387.026 550.471 415.248 533.843 439.019 512.881C462.791 491.918 481.648 467.032 494.513 439.643C507.378 412.255 514 382.9 514 353.254V227.74C514.003 172.282 490.857 118.764 448.976 77.3929M2.00001 277.855V353.254C1.98285 397.694 16.8405 441.15 44.7108 478.175C72.5812 515.201 112.224 544.149 158.672 561.392M386 32.2437C327.202 2.30931 257.328 -5.80277 191.748 9.69193C126.167 25.1866 70.2528 63.019 36.304 114.867C22.3253 136.156 12.4625 159.348 7.12001 183.493" stroke="#680707" stroke-opacity="0.4" stroke-width="4" stroke-linecap="round" stroke-linejoin="round"/>
<path d="M231.373 132.926C250.204 129.478 269.673 129.802 288.343 133.873C307.014 137.944 324.41 145.659 339.249 156.448C354.088 167.237 365.992 180.825 374.083 196.211C382.174 211.598 386.245 228.389 385.997 245.347V318.037M353.229 412.851C335.808 429.962 312.876 441.974 287.502 447.277C262.128 452.581 235.522 450.924 211.245 442.527C186.968 434.131 166.178 419.397 151.658 400.295C137.138 381.194 129.581 358.638 129.997 335.646V245.347C129.899 229.841 133.384 214.479 140.237 200.198M257.997 250.314V325.713" stroke="#680707" stroke-opacity="0.4" stroke-width="4" stroke-linecap="round" stroke-linejoin="round"/>
</svg>
