<svg width="100" height="100" viewBox="0 0 100 100" fill="none" xmlns="http://www.w3.org/2000/svg">
<rect x="0.5" y="0.5" width="99" height="99" stroke="black"/>
<path fill-rule="evenodd" clip-rule="evenodd" d="M70.8327 33.3333C70.8327 44.8396 61.5056 54.1667 49.9994 54.1667C38.4931 54.1667 29.166 44.8396 29.166 33.3333C29.166 21.8271 38.4931 12.5 49.9994 12.5C61.5056 12.5 70.8327 21.8271 70.8327 33.3333ZM66.666 33.3333C66.666 37.7536 64.9101 41.9928 61.7845 45.1185C58.6589 48.2441 54.4196 50 49.9994 50C45.5791 50 41.3398 48.2441 38.2142 45.1185C35.0886 41.9928 33.3327 37.7536 33.3327 33.3333C33.3327 28.9131 35.0886 24.6738 38.2142 21.5482C41.3398 18.4226 45.5791 16.6667 49.9994 16.6667C54.4196 16.6667 58.6589 18.4226 61.7845 21.5482C64.9101 24.6738 66.666 28.9131 66.666 33.3333Z" fill="#545454"/>
<path d="M63.5413 58.3335C63.3197 58.2831 63.0875 58.3097 62.883 58.4089C62.6785 58.5081 62.5139 58.674 62.4163 58.8793L54.1663 82.4418V75.0002L52.9684 66.6231C53.3508 66.5425 53.7029 66.356 53.9843 66.0849C54.2658 65.8137 54.4653 65.4689 54.5601 65.0898L55.6018 60.9231C55.6787 60.6161 55.6846 60.2956 55.6192 59.9859C55.5537 59.6763 55.4185 59.3856 55.2239 59.136C55.0293 58.8864 54.7804 58.6844 54.4961 58.5453C54.2118 58.4063 53.8995 58.3338 53.583 58.3335H46.4205C46.1041 58.3336 45.7918 58.4058 45.5074 58.5446C45.223 58.6833 44.974 58.8851 44.7792 59.1345C44.5844 59.3839 44.449 59.6744 44.3832 59.984C44.3175 60.2935 44.3231 60.614 44.3997 60.921L45.4413 65.0877C45.5358 65.4672 45.7351 65.8125 46.0166 66.084C46.2981 66.3555 46.6503 66.5424 47.033 66.6231L45.833 75.0002V80.6168L37.583 58.8793C37.4854 58.674 37.3208 58.5081 37.1163 58.4089C36.9118 58.3097 36.6796 58.2831 36.458 58.3335C35.6616 58.5258 34.8644 58.7147 34.0663 58.9002C29.3538 60.0043 23.5288 61.3668 20.433 63.4002C16.7601 65.8106 14.583 68.6523 14.583 71.8752V85.4168H85.4163V71.8752C85.4163 68.6523 83.2393 65.8127 79.5663 63.4002C76.4705 61.3668 70.6455 60.0043 65.933 58.9002C65.0934 58.7043 64.2872 58.5168 63.5413 58.3335Z" fill="#545454"/>
</svg>
