<svg width="605" height="432" viewBox="0 0 605 432" fill="none" xmlns="http://www.w3.org/2000/svg">
<path d="M169.921 334.735C169.577 334.735 169.216 334.813 168.854 334.967C166.705 335.882 165.896 337.664 165.595 338.997C165.338 340.141 165.35 341.413 165.591 342.624C166.078 342.616 166.57 342.557 167.061 342.445C169.437 341.869 171.647 340.009 172.087 338.213C172.323 336.949 172.007 335.809 171.236 335.19C170.861 334.889 170.408 334.735 169.921 334.735ZM173.414 350.045C170.823 350.045 168.409 349.019 166.57 347.121C165.754 346.2 165.136 344.977 164.762 343.652C163.395 343.533 162.082 343.063 160.923 342.26C158.903 340.862 157.539 338.573 157.183 335.983C156.781 332.772 157.888 330.797 159.622 328.148C159.783 327.904 160.11 327.836 160.354 327.996C160.598 328.156 160.666 328.483 160.506 328.728C158.857 331.244 157.866 332.934 158.231 335.844C158.546 338.136 159.747 340.161 161.524 341.392C162.434 342.021 163.451 342.415 164.515 342.561C164.292 341.282 164.296 339.962 164.565 338.766C165.074 336.509 166.414 334.858 168.439 333.995C169.666 333.472 170.959 333.612 171.898 334.367C172.977 335.233 173.434 336.754 173.12 338.435C172.578 340.647 170.081 342.8 167.303 343.474C166.821 343.582 166.338 343.649 165.859 343.672C166.192 344.717 166.697 345.673 167.344 346.404C169.07 348.183 171.398 349.095 173.862 348.979C176.462 348.846 178.876 347.6 180.487 345.56C180.667 345.332 181 345.292 181.228 345.472C181.458 345.653 181.497 345.985 181.316 346.213C179.516 348.494 176.82 349.885 173.916 350.033C173.748 350.041 173.58 350.045 173.414 350.045Z" fill="#292929"/>
<path d="M189.521 33.1131C189.502 33.149 189.483 33.1849 189.464 33.2208C188.171 35.7294 188.672 38.3277 190.872 40.5373C192.476 42.1481 193.991 42.7364 195.024 42.1544C196.106 41.545 196.581 39.7177 196.131 37.9041C195.864 36.8278 194.604 33.3433 189.521 33.1131ZM177.704 47.3648C177.414 47.3648 177.177 47.1292 177.176 46.8388C177.156 42.3318 178.897 37.8186 181.718 35.0608C183.712 33.112 186.195 32.0738 188.923 32.0463C191.061 28.6917 195.525 26.6268 199.443 27.2764C201.741 27.6577 203.753 28.9146 205.698 30.1303C209.297 32.3769 212.404 34.3193 216.401 30.1018C216.602 29.8905 216.936 29.881 217.148 30.0817C217.359 30.2824 217.369 30.6172 217.168 30.8285C212.579 35.6734 208.797 33.3117 205.139 31.0249C203.282 29.8652 201.36 28.6643 199.27 28.3178C196.005 27.7791 192.197 29.4269 190.172 32.1012C194.39 32.5195 196.544 35.1833 197.156 37.6485C197.726 39.9448 197.047 42.2262 195.544 43.0744C194.676 43.5645 192.816 43.9838 190.124 41.283C187.721 38.8706 187.082 35.9195 188.338 33.1247C186.104 33.2768 184.129 34.1799 182.456 35.816C179.832 38.3816 178.214 42.6033 178.232 46.8345C178.233 47.1261 177.998 47.3637 177.706 47.3648C177.705 47.3648 177.704 47.3648 177.704 47.3648Z" fill="#292929"/>
<path d="M83.4093 325.625C81.2968 325.625 79.3005 326.534 78.069 328.056C76.849 329.563 76.4529 331.526 76.923 333.732C77.5673 336.756 80.0388 338.711 83.2181 338.711C84.1433 338.711 85.0739 338.543 85.9843 338.212C87.5444 337.644 89.002 336.19 89.7868 334.418C90.4554 332.907 90.5462 331.399 90.0434 330.171C88.8404 327.327 86.3593 325.625 83.4093 325.625ZM83.2181 339.767C79.5192 339.767 76.642 337.485 75.89 333.953C75.2087 330.758 76.2523 328.621 77.2483 327.392C78.6784 325.624 80.9821 324.568 83.4093 324.568C86.7976 324.568 89.6421 326.511 91.0194 329.764C91.6341 331.268 91.539 333.069 90.7532 334.844C89.8554 336.872 88.1665 338.542 86.3445 339.205C85.3179 339.577 84.2669 339.767 83.2181 339.767Z" fill="black"/>
<path d="M132.596 373.285C131.67 373.285 130.904 373.602 130.381 374.204C129.704 374.986 129.446 376.232 129.656 377.718L132.719 399.356C133.037 401.6 134.196 402.94 135.819 402.94C136.717 402.94 137.712 402.533 138.695 401.761L155.902 388.287C157.287 387.202 157.959 385.952 157.79 384.767C157.622 383.582 156.63 382.567 154.996 381.909L134.726 373.746C133.967 373.44 133.251 373.285 132.596 373.285ZM135.819 403.996C133.654 403.996 132.067 402.275 131.674 399.505L128.611 377.865C128.353 376.048 128.69 374.542 129.583 373.513C130.778 372.136 132.845 371.849 135.121 372.766L155.391 380.93C157.39 381.733 158.613 383.045 158.837 384.619C159.059 386.193 158.249 387.792 156.553 389.119L139.346 402.593C138.176 403.511 136.956 403.996 135.819 403.996Z" fill="#680707"/>
<path d="M299.564 11.5445C298.764 11.5445 297.858 11.8381 296.942 12.3927L278.246 23.7112C276.741 24.6217 275.925 25.7825 275.951 26.9792C275.976 28.1759 276.839 29.3018 278.381 30.151L297.533 40.6806C299.334 41.6702 301.018 41.6523 302.017 40.632C302.718 39.9169 303.072 38.7794 303.043 37.3418L302.586 15.4948C302.536 13.0581 301.377 11.5445 299.564 11.5445ZM300.042 42.4761C299.089 42.4761 298.073 42.1836 297.023 41.6058L277.873 31.0763C275.985 30.0391 274.927 28.592 274.894 27.0014C274.861 25.4117 275.857 23.9224 277.699 22.8071L296.395 11.4885C297.491 10.8252 298.557 10.4883 299.564 10.4883C301.978 10.4883 303.579 12.4444 303.642 15.4726L304.099 37.3207C304.135 39.0476 303.676 40.4482 302.772 41.3713C302.064 42.0938 301.121 42.4761 300.042 42.4761Z" fill="black"/>
<path d="M399.996 167.55C354.173 167.55 309.95 190.596 275.472 232.445C227.891 290.193 217.905 319.134 212.54 334.682C212.261 335.488 211.995 336.263 211.735 337.004C204.939 356.425 205.263 373.162 212.701 386.749C221.529 402.878 240.365 414.456 268.688 421.164C293.762 427.103 331.588 430.375 375.199 430.376C375.203 430.376 375.212 430.376 375.217 430.376C444.03 430.376 527.702 421.874 559.532 402.879C576.742 392.608 585.689 366.515 582.881 334.782C578.334 283.379 540.784 211.163 449.925 176.802C433.691 170.662 416.892 167.55 399.996 167.55ZM375.217 431.432C375.208 431.432 375.207 431.432 375.199 431.432C331.509 431.431 293.597 428.149 268.444 422.192C239.819 415.412 220.752 403.658 211.775 387.256C204.188 373.395 203.838 356.371 210.738 336.656C210.998 335.914 211.263 335.143 211.541 334.337C216.928 318.726 226.954 289.668 274.656 231.772C309.34 189.676 353.852 166.494 399.996 166.494C417.02 166.494 433.945 169.629 450.298 175.813C491.065 191.231 525.156 216.015 548.885 247.488C568.854 273.974 581.302 304.942 583.934 334.688C586.777 366.829 577.634 393.305 560.072 403.786C528.073 422.883 444.172 431.432 375.217 431.432Z" fill="#680707"/>
<path d="M167.736 124.046C169.837 127.485 171.554 133.601 172.512 140.29C173.183 144.97 174.424 145.449 179.009 147.551C183.596 149.653 184.648 153.666 182.164 155.959C178.625 159.225 178.629 157.441 178.151 161.118C177.831 163.572 178.497 165.53 175.196 164.474C173.9 164.059 171.22 162.464 170.839 162.758C169.696 163.641 170.047 166.983 174.404 169.491C175.993 170.406 177.309 170.283 175.905 177.553C174.682 183.884 167.019 184.862 159.422 183.428C151.826 181.996 153.403 187.729 150.394 195.898C147.384 204.068 146.954 208.654 151.109 212.094C155.266 215.534 158.563 232.016 158.133 236.029C157.703 240.042 143.37 248.354 131.187 234.882C124.595 225.71 117.142 208.08 117.142 208.08C117.142 208.08 124.881 197.331 124.738 186.868C124.595 176.406 120.152 136.991 134.627 125.812C149.103 114.634 166.302 121.276 167.736 124.046Z" fill="#FEFEFE"/>
<path d="M117.742 208.145C118.71 210.396 125.575 226.169 131.616 234.575C136.967 240.488 142.471 241.737 146.14 241.737C152.514 241.737 157.39 237.998 157.607 235.973C158.022 232.096 154.694 215.749 150.771 212.502C146.225 208.738 146.956 203.699 149.897 195.716C150.699 193.543 151.168 191.55 151.584 189.792C152.556 185.664 153.261 182.681 157.343 182.681C157.991 182.681 158.704 182.756 159.52 182.91C161.519 183.288 163.424 183.479 165.182 183.479C169.306 183.479 174.425 182.433 175.386 177.454C176.586 171.239 175.791 170.823 174.588 170.193C174.443 170.116 174.293 170.038 174.139 169.949C171.533 168.449 169.895 166.372 169.761 164.396C169.701 163.506 169.976 162.759 170.516 162.34C170.974 161.986 171.771 162.332 173.46 163.14C174.157 163.474 174.878 163.818 175.356 163.972C175.912 164.15 176.359 164.239 176.683 164.239C177.308 164.239 177.424 163.982 177.515 162.403C177.538 161.981 177.566 161.526 177.627 161.052C177.945 158.605 178.071 158.34 179.304 157.53C179.825 157.189 180.612 156.673 181.804 155.571C182.695 154.749 183.084 153.66 182.9 152.503C182.622 150.756 181.085 149.084 178.789 148.032L178.521 147.909C174.157 145.911 172.687 145.239 171.989 140.365C170.997 133.44 169.282 127.593 167.284 124.321C166.614 123.031 160.981 120.08 153.021 120.08C148.411 120.08 141.534 121.148 134.949 126.231C122.705 135.688 124.268 166.261 125.018 180.954C125.14 183.338 125.245 185.398 125.266 186.862C125.399 196.63 118.923 206.44 117.742 208.145ZM146.14 242.793C142.256 242.793 136.443 241.482 130.795 235.237C124.207 226.075 116.729 208.464 116.655 208.287C116.583 208.117 116.605 207.923 116.712 207.773C116.789 207.667 124.348 197.04 124.209 186.877C124.189 185.432 124.085 183.382 123.963 181.008C123.203 166.135 121.622 135.189 134.304 125.396C141.124 120.129 148.246 119.023 153.021 119.023C160.779 119.023 167.195 121.854 168.203 123.804C170.256 127.16 172.023 133.154 173.035 140.216C173.651 144.518 174.67 144.984 178.96 146.948L179.229 147.072C181.886 148.289 183.604 150.209 183.942 152.337C184.184 153.855 183.679 155.278 182.522 156.347C181.265 157.508 180.433 158.052 179.884 158.413C178.973 159.012 178.956 159.023 178.674 161.188C178.616 161.636 178.591 162.066 178.569 162.463C178.474 164.13 178.319 166.031 175.035 164.978C174.487 164.802 173.733 164.442 173.004 164.093C172.368 163.788 171.437 163.343 171.07 163.264C170.879 163.483 170.784 163.868 170.815 164.324C170.901 165.578 171.957 167.474 174.668 169.035C174.807 169.115 174.945 169.187 175.078 169.258C176.799 170.159 177.709 170.993 176.423 177.655C175.566 182.092 171.574 184.535 165.182 184.535C163.359 184.535 161.388 184.337 159.325 183.949C158.583 183.808 157.917 183.737 157.343 183.737C154.227 183.737 153.641 185.668 152.611 190.035C152.189 191.822 151.711 193.848 150.889 196.082C147.691 204.76 147.832 208.697 151.445 211.688C155.779 215.274 159.111 231.849 158.657 236.087C158.368 238.787 152.984 242.793 146.14 242.793Z" fill="#292929"/>
<path d="M124.356 306.736C127.032 307.884 152.257 309.22 152.257 309.22C152.257 309.22 163.341 273.869 158.756 233.355C149.582 241.381 139.262 239.469 128.944 231.061C135.439 250.936 132.384 291.829 124.356 306.736Z" fill="#292929"/>
<path d="M163.167 149.893C163.726 151.681 165.005 152.874 166.023 152.557C167.042 152.238 167.415 150.53 166.858 148.741C166.3 146.954 165.02 145.761 164.004 146.081C162.984 146.399 162.608 148.105 163.167 149.893Z" fill="#292929"/>
<path d="M164.883 146.936C164.834 146.936 164.784 146.93 164.734 146.915C164.454 146.833 164.295 146.539 164.377 146.259L165.333 143.01C165.415 142.731 165.709 142.569 165.989 142.653C166.269 142.735 166.428 143.029 166.346 143.308L165.39 146.558C165.322 146.787 165.112 146.936 164.883 146.936Z" fill="#292929"/>
<path d="M139.453 254.757C136.503 232.999 126.775 218.604 118.171 205.267C116.851 203.221 115.63 203.512 115.068 203.624C110.954 204.441 106.363 206.372 107.539 208.893C107.79 209.426 108.172 209.974 108.649 210.584C106.864 210.944 104.728 211.392 102.189 211.951C92.6327 214.051 86.7199 217.832 80.7956 223.755C74.8712 229.678 44.5775 266.411 36.1699 275.774C47.254 297.179 66.2724 300.331 66.2724 300.331C66.2724 300.331 83.6526 282.848 94.5445 269.471C94.1611 272.145 92.826 296.99 89.0035 306.735C95.7538 310.652 114.518 310.465 124.953 310.018C126.666 311.59 133.339 310.175 133.339 310.175C133.339 310.175 142.51 277.307 139.453 254.757Z" fill="black"/>
<path d="M107.252 129.97C102.236 131.833 96.6465 136.419 93.6363 156.054C92.1808 165.55 88.6572 175.744 89.3205 185.428C89.9416 194.491 97.7915 196.963 105.793 198.563C112.843 199.973 140.241 206.506 141.969 194.709C143.985 180.946 122.292 174.035 125.403 161.261C126.036 158.665 128.644 155.438 131.329 154.837C134.755 154.072 135.773 157 138.438 158.796C141.684 160.985 143.628 159.706 145.577 156.421C147.42 153.317 146.73 148.343 146.438 144.857C146.056 140.29 145.513 138.64 149.476 137.333C154.833 135.567 159.42 131.937 154.264 125.813C161.143 133.982 164.582 132.693 170.172 129.11C175.761 125.526 176.048 122.23 173.898 116.068C171.747 109.904 165.156 100.445 153.547 101.878C141.938 103.311 143.084 106.464 129.181 109.331C115.278 112.198 106.392 116.354 107.252 129.97Z" fill="#292929"/>
<path d="M159.136 140.673C159.077 140.673 159.018 140.663 158.958 140.642C158.684 140.544 158.54 140.242 158.638 139.967C159.013 138.916 161.133 133.623 166.051 132.605C166.336 132.547 166.616 132.73 166.675 133.015C166.734 133.3 166.551 133.58 166.264 133.64C161.901 134.542 159.974 139.364 159.633 140.322C159.556 140.538 159.352 140.673 159.136 140.673Z" fill="#292929"/>
<path d="M124.548 309.557C124.537 309.557 124.526 309.557 124.515 309.556C124.223 309.538 124.003 309.288 124.021 308.997C124.049 308.538 124.146 307.286 124.288 305.466C125.115 294.842 127.314 266.619 126.507 260.173C125.663 253.426 127.491 251.735 130.261 249.176C130.606 248.857 130.97 248.52 131.348 248.157C129.985 247.287 126.407 245.014 123.698 243.36C120.87 241.632 120.248 239.285 118.584 233.014C118.088 231.142 117.525 229.02 116.778 226.43C114.508 218.548 111.275 214.621 109.135 212.023C108.61 211.386 108.157 210.836 107.779 210.308C107.61 210.07 107.664 209.74 107.902 209.571C108.14 209.401 108.47 209.455 108.639 209.693C108.996 210.192 109.438 210.729 109.951 211.351C112.145 214.017 115.463 218.046 117.793 226.138C118.543 228.739 119.131 230.958 119.605 232.743C121.189 238.716 121.783 240.951 124.25 242.458C127.655 244.54 132.428 247.593 132.477 247.624C132.611 247.71 132.7 247.853 132.717 248.012C132.733 248.17 132.679 248.329 132.566 248.442C132.006 249.001 131.474 249.493 130.977 249.952C128.27 252.455 126.778 253.833 127.556 260.041C128.374 266.594 126.171 294.895 125.341 305.548C125.2 307.36 125.103 308.606 125.075 309.063C125.057 309.342 124.825 309.557 124.548 309.557Z" fill="#FEFEFE"/>
<path d="M198.311 240.424L194.297 252.272C194.297 252.272 184.743 234.883 178.627 227.239C172.912 220.095 164.696 215.623 158.186 213.195C153.793 205.926 147.588 204.877 147.588 204.877C147.588 204.877 147.096 206.598 148.005 208.775C148.913 210.951 158.752 228.003 156.46 255.139C154.168 282.275 146.332 309.22 146.332 309.22H152.256C152.256 309.22 152.302 309.07 152.386 308.794C156.844 309.367 165.919 310.281 166.206 308.265C166.588 305.59 171.749 284.187 174.806 277.498C183.978 294.504 192.489 297.975 204.803 292.802C213.605 289.105 220.861 259.535 221.816 247.878C222.007 247.686 198.311 240.424 198.311 240.424Z" fill="black"/>
<path d="M152.257 309.748C152.206 309.748 152.154 309.741 152.102 309.726C151.824 309.64 151.666 309.345 151.752 309.066C151.87 308.678 163.613 270.207 165.311 262.857C167.054 255.295 166.998 254.388 165.862 252.166C164.432 249.374 163.205 246.923 163.205 246.923C163.083 246.678 163.168 246.381 163.4 246.236C164.69 245.44 167.915 242.901 167.367 240.746C166.147 235.96 161.5 220.101 158.102 214.073L157.992 213.88C157.847 213.627 157.936 213.304 158.188 213.159C158.442 213.014 158.764 213.103 158.91 213.356L159.023 213.555C162.471 219.674 167.162 235.663 168.391 240.486C169.112 243.317 165.591 246.023 164.36 246.869C164.769 247.684 165.728 249.589 166.801 251.685C168.13 254.279 168.078 255.558 166.339 263.094C164.635 270.481 152.881 308.986 152.762 309.375C152.693 309.601 152.484 309.748 152.257 309.748Z" fill="#FEFEFE"/>
<path d="M174.805 278.025C174.732 278.025 174.658 278.01 174.587 277.978C174.322 277.856 174.205 277.543 174.326 277.278C182.917 258.474 179.715 251.705 177.802 247.661C177.469 246.957 177.181 246.349 176.981 245.75C176.89 245.475 177.039 245.175 177.316 245.082C177.595 244.99 177.893 245.141 177.985 245.416C178.163 245.955 178.438 246.536 178.757 247.209C180.748 251.419 184.082 258.465 175.286 277.717C175.197 277.91 175.006 278.025 174.805 278.025Z" fill="#292929"/>
<path d="M197.406 259.966C197.208 259.966 197.019 259.856 196.928 259.666C196.907 259.622 194.798 255.205 192.904 250.66C192.792 250.391 192.919 250.082 193.188 249.969C193.457 249.862 193.767 249.983 193.879 250.254C195.762 254.775 197.861 259.166 197.882 259.21C198.008 259.473 197.896 259.788 197.633 259.914C197.559 259.95 197.482 259.966 197.406 259.966Z" fill="#292929"/>
<path d="M199.84 235.885C201.989 229.149 205.143 210.947 205.859 204.211C206.575 197.475 202.563 188.015 207.293 181.996C212.022 175.977 215.033 172.966 216.322 169.956C217.612 166.947 220.622 166.517 222.198 169.526C223.775 172.536 221.338 177.84 217.756 181.566C226.498 175.977 227.214 177.982 229.937 173.684C232.661 169.383 237.964 158.347 241.405 158.634C244.27 154.764 247.567 156.914 248.14 162.217C249.86 162.075 251.437 166.087 250.291 172.107C254.446 174.543 254.016 183.428 248.14 190.165C242.263 196.902 231.084 200.914 228.647 206.361C226.212 211.807 222.198 243.768 222.198 243.768L199.84 235.885Z" fill="#FEFEFE"/>
<path d="M200.494 235.556L221.756 243.053C222.355 238.356 225.89 211.233 228.165 206.145C229.535 203.083 233.478 200.494 237.652 197.754C241.296 195.361 245.063 192.888 247.741 189.818C251.222 185.828 253.043 180.623 252.38 176.556C252.072 174.667 251.258 173.285 250.023 172.561C249.83 172.448 249.729 172.227 249.77 172.007C250.608 167.61 249.964 164.411 248.954 163.191C248.784 162.986 248.521 162.742 248.228 162.742C247.959 162.742 247.643 162.542 247.614 162.274C247.285 159.232 246.01 157.188 244.443 157.188C243.585 157.188 242.681 157.796 241.828 158.948C241.719 159.095 241.544 159.179 241.36 159.16C241.36 159.16 241.359 159.16 241.358 159.16C238.885 159.16 235.025 165.927 232.471 170.406C231.703 171.754 230.977 173.028 230.383 173.965C228.74 176.559 227.747 176.997 225.571 177.956C223.958 178.665 221.749 179.638 218.039 182.01C217.814 182.153 217.515 182.106 217.346 181.901C217.177 181.694 217.189 181.393 217.375 181.199C220.62 177.824 223.25 172.671 221.73 169.771C221.132 168.629 220.301 168.001 219.389 168.001C218.353 168.001 217.387 168.809 216.807 170.164C215.882 172.321 214.166 174.402 211.568 177.554C210.436 178.925 209.154 180.48 207.707 182.322C204.748 186.089 205.378 191.35 205.987 196.439C206.321 199.236 206.638 201.878 206.384 204.266C205.707 210.63 202.67 228.363 200.494 235.556ZM222.198 244.296C222.138 244.296 222.079 244.286 222.021 244.267L199.664 236.383C199.395 236.288 199.249 235.996 199.336 235.724C201.502 228.938 204.644 210.632 205.334 204.154C205.575 201.884 205.266 199.301 204.939 196.564C204.304 191.262 203.647 185.779 206.877 181.669C208.331 179.818 209.618 178.258 210.752 176.882C213.294 173.8 214.972 171.765 215.836 169.749C216.588 167.992 217.917 166.944 219.389 166.944C220.693 166.944 221.888 167.796 222.665 169.281C224.076 171.972 222.638 176.045 220.176 179.478C222.432 178.184 224.004 177.492 225.147 176.988C227.237 176.067 228.019 175.723 229.491 173.4C230.072 172.483 230.791 171.22 231.554 169.883C235.174 163.534 238.399 158.262 241.144 158.104C242.423 156.48 243.636 156.132 244.443 156.132C246.525 156.132 248.136 158.314 248.612 161.732C248.954 161.815 249.364 162.03 249.767 162.517C250.824 163.794 251.728 166.992 250.873 171.852C252.21 172.775 253.088 174.334 253.423 176.386C254.134 180.75 252.216 186.295 248.538 190.512C245.764 193.691 241.935 196.205 238.232 198.637C234.19 201.29 230.373 203.796 229.13 206.576C226.753 211.889 222.762 243.516 222.721 243.835C222.701 243.992 222.612 244.134 222.475 244.218C222.391 244.27 222.295 244.296 222.198 244.296Z" fill="#292929"/>
<path d="M222.914 191.41C222.675 191.41 222.459 191.247 222.401 191.004C221.676 187.961 218.953 182.999 217.463 182.005C217.22 181.843 217.155 181.515 217.316 181.272C217.478 181.029 217.805 180.964 218.048 181.127C219.904 182.363 222.698 187.689 223.429 190.759C223.496 191.044 223.321 191.328 223.037 191.395C222.997 191.406 222.955 191.41 222.914 191.41Z" fill="#292929"/>
<path d="M240.402 188.544C240.207 188.544 240.021 188.438 239.928 188.253C239.395 187.185 233.049 179.577 230.63 178.771C230.355 178.679 230.205 178.38 230.297 178.102C230.39 177.827 230.686 177.677 230.965 177.769C233.739 178.694 240.294 186.622 240.874 187.78C241.004 188.042 240.898 188.358 240.637 188.488C240.561 188.526 240.481 188.544 240.402 188.544Z" fill="#292929"/>
<path d="M239.111 189.261C238.911 189.261 238.72 189.147 238.631 188.954C238.509 188.69 238.624 188.375 238.889 188.253C240.548 187.488 244.198 182.807 245.184 177.458C245.689 174.716 246.533 173.012 247.762 172.25C248.9 171.545 250.159 171.787 251.008 172.029C251.289 172.109 251.45 172.401 251.371 172.681C251.29 172.961 250.998 173.121 250.717 173.045C249.661 172.742 248.922 172.774 248.319 173.148C247.37 173.737 246.665 175.251 246.223 177.65C245.208 183.157 241.403 188.257 239.331 189.212C239.259 189.245 239.184 189.261 239.111 189.261Z" fill="#292929"/>
<path d="M237.247 184.53C237.099 184.53 236.954 184.469 236.849 184.348C236.657 184.128 236.68 183.795 236.901 183.603C240.025 180.887 241.305 176.926 242.462 171.003C243.525 165.55 245.599 162.516 248.622 161.985C248.907 161.931 249.183 162.124 249.233 162.412C249.284 162.7 249.092 162.973 248.804 163.024C246.256 163.473 244.471 166.225 243.499 171.204C242.298 177.354 240.947 181.485 237.594 184.401C237.493 184.488 237.371 184.53 237.247 184.53Z" fill="#292929"/>
<path d="M233.95 180.805C233.846 180.805 233.74 180.774 233.647 180.709C233.408 180.541 233.351 180.211 233.519 179.972C235.074 177.763 237.027 171.446 238.594 166.369C239.768 162.573 240.781 159.295 241.514 157.951C241.653 157.695 241.974 157.6 242.23 157.741C242.487 157.88 242.581 158.201 242.441 158.457C241.759 159.708 240.712 163.095 239.604 166.681C237.931 172.096 236.034 178.234 234.383 180.581C234.28 180.727 234.117 180.805 233.95 180.805Z" fill="#292929"/>
<path d="M93.3976 271.146C93.2772 271.146 93.1557 271.105 93.0564 271.021C92.8335 270.831 92.8071 270.499 92.9962 270.276C96.2166 266.488 102.696 259.624 102.761 259.555C102.961 259.344 103.294 259.333 103.507 259.534C103.719 259.734 103.729 260.069 103.528 260.281C103.463 260.349 97.0035 267.193 93.801 270.96C93.6965 271.084 93.5475 271.146 93.3976 271.146Z" fill="#292929"/>
<path d="M198.906 234.181C196.794 238.142 195.572 244.566 196.002 245.139C196.432 245.713 212.109 246.988 222.803 254.645C225.24 255.791 226.019 244.501 225.638 243.195C224.635 239.755 200.197 232.748 198.906 234.181Z" fill="#292929"/>
<path d="M139.262 254.33C139.139 254.33 139.015 254.287 138.915 254.2C138.866 254.159 134.051 249.978 131.812 248.486C131.569 248.324 131.503 247.996 131.665 247.754C131.826 247.511 132.153 247.445 132.397 247.607C134.693 249.136 139.409 253.229 139.609 253.403C139.828 253.595 139.852 253.927 139.66 254.148C139.556 254.268 139.409 254.33 139.262 254.33Z" fill="#FEFEFE"/>
<path d="M156.669 252.182C156.534 252.182 156.399 252.13 156.295 252.027C156.089 251.82 156.089 251.487 156.295 251.281C158.314 249.262 160.893 247.715 162.599 246.69C163.023 246.437 163.386 246.219 163.662 246.04C163.907 245.88 164.235 245.95 164.393 246.194C164.552 246.439 164.482 246.765 164.238 246.925C163.953 247.11 163.579 247.334 163.143 247.596C161.48 248.594 158.968 250.101 157.043 252.027C156.939 252.13 156.804 252.182 156.669 252.182Z" fill="#FEFEFE"/>
<path d="M141.318 177.12C140.76 171.909 136.652 166.568 131.776 169.684C127.535 172.392 126.244 179.683 130.126 183.139C131.778 184.61 134.452 185.298 136.687 184.861C140.441 184.125 141.696 180.652 141.318 177.12Z" fill="#680707"/>
<path d="M152.083 66.2652C148.231 66.2652 144.367 66.4342 140.596 66.768C81.7644 71.9773 44.9633 105.067 31.2175 165.117C25.1748 191.511 19.9993 253.665 42.5667 277.326C66.7226 302.65 85.1115 305.469 124.366 306.208C137.921 306.465 149.303 306.894 159.344 307.273C171.019 307.714 181.1 308.095 191.387 308.095C191.387 308.095 191.388 308.095 191.389 308.095C199.541 308.095 207.013 307.859 214.904 307.353L217.343 307.2C246.682 305.373 291.017 302.611 295.82 237.519C299.552 186.914 286.042 143.498 256.751 111.965C230.168 83.3486 191.04 66.2652 152.083 66.2652ZM191.389 309.151C191.388 309.151 191.388 309.151 191.387 309.151C181.08 309.151 170.989 308.77 159.304 308.328C149.268 307.95 137.891 307.52 124.347 307.265C84.7788 306.519 66.2346 303.669 41.803 278.054C18.9389 254.084 24.1038 191.456 30.1877 164.881C44.0475 104.334 81.1634 70.9697 140.503 65.716C144.304 65.3801 148.2 65.209 152.083 65.209C191.328 65.209 230.745 82.4192 257.524 111.246C278.093 133.389 301.617 173.283 296.873 237.597C292.002 303.608 247.113 306.404 217.409 308.254L214.972 308.409C207.058 308.915 199.563 309.151 191.389 309.151Z" fill="#680707"/>
<path d="M206.067 91.6541C213.224 89.7867 236.101 85.4287 248.085 82.9392C260.068 80.4475 273.141 78.7364 274.853 79.5149C276.564 80.2933 257.577 104.259 248.707 113.752C245.751 115.775 241.704 112.04 241.704 112.04C233.301 120.755 223.806 124.023 222.252 124.335C220.695 124.645 219.916 114.998 219.76 109.238C219.605 103.481 220.627 102.359 215.871 100.057C201.086 92.8973 206.067 91.6541 206.067 91.6541Z" fill="#F21D2F"/>
<path d="M222.251 124.863C222.019 124.863 221.806 124.709 221.742 124.474C221.666 124.192 221.831 123.902 222.112 123.826C222.893 123.542 225.733 118.942 227.807 115.583C230.035 111.973 232.14 108.563 233.395 107.31C235.757 104.947 257.526 90.0869 266.767 83.833L221.514 101.793C221.243 101.9 220.936 101.768 220.827 101.497C220.72 101.226 220.852 100.92 221.123 100.812L270.923 81.0477C271.184 80.9421 271.484 81.0646 271.6 81.3223C271.715 81.5811 271.606 81.8842 271.354 82.011C269.816 82.8264 236.612 105.586 234.142 108.056C232.975 109.224 230.804 112.739 228.705 116.138C225.101 121.978 223.413 124.565 222.391 124.844C222.344 124.857 222.297 124.863 222.251 124.863Z" fill="#292929"/>
<path d="M242.638 113.191C242.53 113.191 242.421 113.158 242.327 113.09L242.099 112.923C238.908 110.591 234.937 107.68 234.005 108.155C233.744 108.284 233.427 108.179 233.296 107.918C233.165 107.657 233.271 107.341 233.532 107.21C234.97 106.492 237.817 108.483 242.723 112.07L242.949 112.236C243.186 112.409 243.237 112.74 243.064 112.974C242.961 113.116 242.8 113.191 242.638 113.191Z" fill="#292929"/>
<path d="M283.253 198.358C277.268 198.906 273.87 202.624 274.469 213.203C275.068 223.784 272.672 234.706 276.865 238.798C281.058 242.896 291.636 242.898 301.42 243.067C311.203 243.236 323.872 242.949 327.624 242.896C336.457 242.768 339.601 241.233 340.799 234.32C341.505 230.251 339.812 207.299 339.752 204.885C339.601 198.87 335.708 198.101 327.174 197.718C318.992 197.349 288.844 197.845 283.253 198.358Z" fill="#F21D2F"/>
<path d="M307.283 226.369C307.244 226.369 307.204 226.367 307.165 226.367C302.955 226.304 299.53 222.762 297.017 219.682C292.375 213.986 281.93 202.312 279.392 200.141C279.17 199.952 279.144 199.618 279.334 199.397C279.522 199.175 279.856 199.151 280.078 199.339C282.65 201.537 293.171 213.291 297.837 219.013C300.204 221.915 303.406 225.254 307.18 225.311C309.881 225.328 312.703 223.69 315.576 220.375C323.484 211.252 335.22 199.759 335.337 199.644C335.548 199.44 335.882 199.444 336.084 199.652C336.289 199.86 336.285 200.195 336.076 200.399C335.958 200.514 324.254 211.976 316.375 221.066C313.285 224.632 310.309 226.369 307.283 226.369Z" fill="#292929"/>
<path d="M276.864 239.327C276.67 239.327 276.484 239.22 276.391 239.034C276.261 238.773 276.368 238.456 276.629 238.327C278.002 237.642 285.005 231.033 290.117 226.207C294.352 222.21 296.776 219.93 297.351 219.58C297.6 219.426 297.925 219.506 298.077 219.755C298.229 220.003 298.151 220.328 297.901 220.481C297.394 220.791 294.212 223.795 290.842 226.976C283.914 233.515 278.503 238.574 277.1 239.271C277.024 239.31 276.944 239.327 276.864 239.327Z" fill="#292929"/>
<path d="M336.559 241.034C336.38 241.034 336.203 240.941 336.104 240.773C335.767 240.201 331.834 235.939 328.029 231.817C323.007 226.377 317.814 220.752 317.029 219.505C316.873 219.258 316.947 218.931 317.193 218.776C317.443 218.62 317.767 218.697 317.922 218.941C318.656 220.107 324.048 225.948 328.805 231.101C333.651 236.351 336.641 239.6 337.016 240.239C337.163 240.491 337.079 240.813 336.826 240.962C336.743 241.011 336.651 241.034 336.559 241.034Z" fill="#292929"/>
<path d="M526.171 64.9707C523.266 52.6477 496.508 36.8054 485.066 41.2067C473.624 45.6069 488.234 50.7116 488.234 50.7116C470.631 47.543 462.181 49.6544 460.421 54.0567C458.66 58.457 466.053 60.2177 466.053 60.2177C454.083 60.5694 440.705 69.9001 442.641 76.4128C444.577 82.9266 452.499 80.5501 452.499 80.5501C441.232 89.6157 443.07 98.8355 454.826 97.7465C442.465 107.043 440.706 124.119 445.458 130.28C450.21 136.442 454.824 127.116 454.824 127.116C449.858 140.843 457.251 149.821 464.293 138.379C462.709 154.046 476.616 156.158 481.017 148.413C485.242 163.376 495.276 161.087 497.037 153.694C502.494 160.559 513.232 158.271 515.345 150.877C521.33 157.919 526.611 151.493 526.083 146.036C532.244 153.253 541.927 154.133 543.863 141.019C552.664 147.533 557.066 147.357 554.689 131.777C569.389 137.146 577.134 120.774 560.234 106.692C571.501 109.684 570.268 98.0655 554.161 91.1124C565.515 90.8483 566.923 83.1019 561.29 77.3814C555.658 71.6598 546.152 60.5694 526.171 64.9707Z" fill="#292929"/>
<path d="M470.221 95.0401C468.502 105.358 471.56 108.418 474.616 115.68C477.675 122.941 473.399 130.594 481.545 139.661C489.14 148.118 500.607 147.593 500.607 147.593L503.855 160.779L531.947 153.516L525.833 127.049C525.833 127.049 531.565 123.897 529.845 112.621C528.126 101.346 527.935 73.4465 500.607 77.6503C473.279 81.8531 472.707 86.8216 470.221 95.0401Z" fill="#FEFEFE"/>
<path d="M500.607 147.065C500.848 147.065 501.063 147.23 501.12 147.467L504.24 160.134L531.317 153.135L525.318 127.169C525.266 126.939 525.372 126.701 525.578 126.587C525.63 126.559 530.96 123.428 529.323 112.701C529.147 111.545 528.986 110.212 528.811 108.757C527.414 97.1608 525.076 77.7515 505.893 77.7515C504.257 77.7515 502.505 77.8931 500.688 78.173C474.612 82.1835 473.244 86.7707 470.974 94.3702L470.728 95.193C469.386 103.268 471.045 106.762 473.339 111.596C473.911 112.801 474.503 114.047 475.104 115.476C476.281 118.271 476.403 121.053 476.532 123.998C476.741 128.799 476.957 133.764 481.938 139.31C488.575 146.697 498.322 147.071 500.208 147.071C500.716 147.071 500.591 147.065 500.607 147.065ZM503.855 161.308C503.76 161.308 503.667 161.282 503.585 161.233C503.463 161.161 503.377 161.044 503.343 160.906L500.194 148.127C498.199 148.126 488.074 147.719 481.153 140.015C475.919 134.188 475.683 128.799 475.476 124.044C475.352 121.196 475.234 118.506 474.131 115.886C473.538 114.479 472.952 113.244 472.385 112.049C470.097 107.229 468.29 103.422 469.701 94.9543L469.962 94.0681C472.35 86.0693 473.791 81.2413 500.527 77.1294C502.398 76.8411 504.203 76.6953 505.893 76.6953C526.013 76.6953 528.421 96.6865 529.86 108.63C530.033 110.073 530.192 111.395 530.368 112.543C531.897 122.568 527.701 126.385 526.43 127.291L532.462 153.398C532.527 153.676 532.356 153.956 532.08 154.028L503.987 161.291C503.944 161.302 503.9 161.308 503.855 161.308Z" fill="#292929"/>
<path d="M536.333 102.991C535.38 97.2321 534.209 91.7851 531.233 86.654C529.397 83.4906 527.74 80.2342 524.637 78.126C515.92 72.2016 504.181 72.5565 494.261 74.614C486.382 76.2491 477.612 79.0407 471.507 84.4718C469.478 86.2758 461.262 94.4669 466.583 96.8328C469.699 98.2197 473.133 95.2781 475.483 93.2934C475.589 93.5923 475.757 93.9134 476.001 94.281C477.585 96.6575 481.546 96.9216 484.186 96.3935C491.052 95.3372 497.653 90.8483 502.67 85.8312C501.614 87.4155 500.294 89.528 500.822 91.6404C501.878 94.017 504.255 94.281 506.367 94.281C510.856 94.017 515.081 90.3202 518.25 87.4155C515.609 92.4326 512.704 97.4497 512.44 103.259C512.176 105.9 512.44 108.804 513.497 111.181C514.817 114.349 517.722 114.349 520.362 112.501C519.042 116.726 518.25 120.687 520.098 124.912C521.2 127.43 524.675 131.689 529.516 130.809C533.383 130.106 534.099 121.036 535.501 117.87C538.117 111.961 537.398 109.423 536.333 102.991Z" fill="#292929"/>
<path d="M464.928 98.7298C462.563 98.7298 460.276 97.8891 459.639 95.4914C459.267 94.0983 459.488 92.4104 459.819 91.294C460.459 89.1203 462.434 86.0435 464.221 84.4359C464.435 84.2405 464.769 84.2574 464.967 84.475C465.161 84.6915 465.144 85.0263 464.927 85.2207C463.292 86.6931 461.416 89.6114 460.832 91.594C460.541 92.572 460.345 94.0381 460.66 95.22C461.454 98.1996 465.662 97.681 466.498 97.5448C469.003 97.1413 470.859 96.5677 472.341 95.7386C472.595 95.5981 472.918 95.6879 473.061 95.9425C473.203 96.197 473.112 96.5191 472.857 96.6607C471.264 97.5521 469.296 98.1637 466.665 98.5872C466.097 98.6791 465.51 98.7298 464.928 98.7298Z" fill="#FEFEFE"/>
<path d="M492.801 129.75C492.791 129.75 492.782 129.75 492.772 129.749C489.297 129.557 487.126 128.754 486.133 127.293C484.899 125.479 485.687 123.111 486.451 120.821C486.599 120.374 486.748 119.928 486.879 119.492C488.049 115.588 485.368 110.876 482.382 108.15C480.026 105.999 477.021 105.594 475.09 106.146C473.994 106.46 473.241 107.078 473.025 107.844C472.945 108.124 472.659 108.287 472.372 108.209C472.092 108.129 471.93 107.837 472.008 107.557C472.326 106.431 473.342 105.547 474.799 105.13C477.014 104.497 480.438 104.944 483.094 107.371C486.424 110.41 489.198 115.431 487.889 119.795C487.756 120.242 487.604 120.697 487.452 121.154C486.771 123.2 486.066 125.317 487.006 126.699C487.79 127.853 489.75 128.524 492.83 128.695C493.122 128.711 493.345 128.96 493.328 129.251C493.313 129.532 493.08 129.75 492.801 129.75Z" fill="#292929"/>
<path d="M491.184 106.406C491.069 106.406 490.953 106.368 490.856 106.292C490.628 106.11 490.59 105.777 490.77 105.549C492.614 103.22 497.956 98.4015 507.686 103.941C507.939 104.085 508.028 104.407 507.884 104.662C507.74 104.914 507.416 105.003 507.164 104.859C498.47 99.9109 493.681 103.578 491.598 106.205C491.494 106.337 491.34 106.406 491.184 106.406Z" fill="#292929"/>
<path d="M503.592 114.569C504.476 116.22 504.434 117.968 503.493 118.472C502.554 118.978 501.071 118.049 500.184 116.397C499.298 114.749 499.346 113.001 500.283 112.498C501.225 111.993 502.705 112.92 503.592 114.569Z" fill="#292929"/>
<path d="M500.931 113.284C500.846 113.284 500.761 113.264 500.682 113.223L497.692 111.63C497.435 111.493 497.337 111.173 497.474 110.916C497.613 110.657 497.934 110.563 498.189 110.698L501.179 112.29C501.436 112.428 501.534 112.747 501.397 113.004C501.302 113.183 501.119 113.284 500.931 113.284Z" fill="#292929"/>
<path d="M483.671 116.289C484.554 117.939 484.512 119.687 483.571 120.192C482.632 120.697 481.149 119.767 480.264 118.115C479.377 116.468 479.423 114.72 480.362 114.217C481.304 113.712 482.784 114.637 483.671 116.289Z" fill="#292929"/>
<path d="M481.008 115.003C480.924 115.003 480.839 114.982 480.76 114.941L477.77 113.349C477.513 113.211 477.415 112.891 477.552 112.633C477.69 112.376 478.011 112.281 478.267 112.416L481.258 114.009C481.514 114.146 481.611 114.465 481.475 114.723C481.38 114.901 481.197 115.003 481.008 115.003Z" fill="#292929"/>
<path d="M490.744 132.533C492.433 135.817 494.45 137.679 496.35 137.679C499.074 137.679 501.232 133.955 501.969 128.093C495.348 132.306 493.132 132.702 490.744 132.533ZM496.35 138.735C493.83 138.735 491.354 136.396 489.38 132.147C489.299 131.974 489.317 131.773 489.428 131.617C489.537 131.463 489.719 131.38 489.911 131.398C490.452 131.452 491.01 131.508 491.559 131.508C493.597 131.508 496.012 130.706 502.326 126.608C502.496 126.497 502.712 126.495 502.887 126.598C503.06 126.703 503.158 126.897 503.139 127.099C502.479 134.277 499.877 138.735 496.35 138.735Z" fill="#292929"/>
<path d="M494.874 138.326C494.828 138.326 494.781 138.321 494.734 138.308C494.453 138.231 494.287 137.941 494.365 137.659C495.295 134.246 499.086 131.696 501.581 131.843C501.871 131.862 502.093 132.112 502.075 132.404C502.056 132.694 501.831 132.916 501.514 132.898C499.391 132.762 496.168 135.067 495.384 137.937C495.319 138.172 495.106 138.326 494.874 138.326Z" fill="#292929"/>
<path d="M431.382 228.091C436.398 223.22 460.333 191.546 469.649 180.222C478.965 168.899 489.714 168.613 504.333 168.469C500.734 154.046 501.69 153.727 502.407 153.869C503.123 154.013 516.78 156.992 530.397 147.532C534.005 146.564 533.858 161.018 537.298 162.88C540.737 164.744 563.669 160.013 574.993 171.337C586.315 182.659 594.197 209.461 594.197 209.461C588.034 219.35 546.183 250.45 493.584 236.119C492.581 231.675 485.414 224.795 483.265 216.054C474.379 227.663 468.072 236.261 468.072 236.261C468.072 236.261 439.838 234.398 431.382 228.091Z" fill="#F21D2F"/>
<path d="M515.301 172.813C509.543 172.813 505.53 170.484 503.952 168.835C503.75 168.623 503.758 168.29 503.969 168.088C504.179 167.886 504.513 167.895 504.716 168.105C507.677 171.201 519.826 176.763 536.231 162.199C536.449 162.005 536.783 162.024 536.976 162.244C537.171 162.461 537.151 162.795 536.932 162.989C528.451 170.519 521.016 172.813 515.301 172.813Z" fill="#292929"/>
<path d="M512.265 172.678C512.038 172.678 511.829 172.531 511.759 172.303C511.569 171.675 507.065 156.877 506.591 154.781C506.525 154.496 506.704 154.213 506.989 154.149C507.274 154.084 507.555 154.263 507.621 154.547C508.087 156.606 512.723 171.843 512.771 171.996C512.855 172.275 512.698 172.571 512.419 172.655C512.367 172.671 512.315 172.678 512.265 172.678Z" fill="#292929"/>
<path d="M518.474 172.582C518.249 172.582 518.041 172.437 517.969 172.211L512.428 154.535C512.342 154.257 512.497 153.96 512.775 153.873C513.052 153.788 513.349 153.941 513.437 154.219L518.978 171.895C519.065 172.174 518.91 172.47 518.632 172.557C518.58 172.573 518.527 172.582 518.474 172.582Z" fill="#292929"/>
<path d="M524.971 170.67C524.75 170.67 524.543 170.529 524.47 170.307L518.928 153.395C518.837 153.118 518.988 152.819 519.266 152.728C519.537 152.637 519.84 152.79 519.932 153.066L525.474 169.978C525.565 170.255 525.413 170.553 525.136 170.644C525.081 170.662 525.026 170.67 524.971 170.67Z" fill="#292929"/>
<path d="M530.898 167.613C530.67 167.613 530.459 167.464 530.391 167.234L525.709 151.374C525.625 151.094 525.786 150.8 526.065 150.718C526.343 150.633 526.638 150.794 526.722 151.075L531.404 166.935C531.486 167.215 531.327 167.509 531.047 167.591C530.997 167.606 530.947 167.613 530.898 167.613Z" fill="#292929"/>
<path d="M500.759 148.22C500.703 148.22 500.647 148.219 500.592 148.218C500.301 148.211 500.07 147.968 500.077 147.677C500.085 147.385 500.297 147.16 500.619 147.161C504.361 147.292 514.419 144.006 520.834 136.081C521.018 135.854 521.351 135.821 521.577 136.003C521.804 136.187 521.839 136.52 521.656 136.746C515.103 144.839 504.785 148.22 500.759 148.22Z" fill="#292929"/>
<path d="M485.271 221.885C485.068 221.885 484.875 221.767 484.787 221.569C481.29 213.616 481.018 205.683 481.018 203.441C481.018 203.149 481.254 202.913 481.546 202.913C481.837 202.913 482.074 203.149 482.074 203.441C482.074 205 482.251 213.18 485.755 221.144C485.873 221.411 485.751 221.722 485.484 221.841C485.415 221.87 485.343 221.885 485.271 221.885Z" fill="#292929"/>
<path d="M562.237 231.917C562.008 231.917 561.797 231.767 561.73 231.537C561.682 231.375 556.979 215.279 554.997 209.194C554.908 208.918 555.06 208.62 555.335 208.529C555.619 208.44 555.911 208.591 556.002 208.868C557.989 214.967 562.696 231.078 562.743 231.24C562.825 231.521 562.665 231.814 562.385 231.895C562.335 231.91 562.284 231.917 562.237 231.917Z" fill="#292929"/>
<path d="M527.607 131.737C525.97 131.737 524.08 131.194 522.054 130.133C521.795 129.997 521.696 129.678 521.831 129.42C521.967 129.16 522.288 129.063 522.544 129.197C524.955 130.46 527.118 130.932 528.785 130.558C532.713 129.665 534.345 122.781 534.345 119.295C534.345 119.069 534.49 118.867 534.703 118.794C534.917 118.722 535.154 118.794 535.293 118.973C537.089 121.309 539.203 122.398 541.945 122.398C544.62 122.218 547.205 119.258 547.537 116.928C547.58 116.639 547.852 116.434 548.134 116.48C548.423 116.521 548.624 116.788 548.583 117.078C548.188 119.849 545.217 123.238 541.979 123.453C541.978 123.453 541.976 123.453 541.975 123.453C539.333 123.453 537.159 122.534 535.343 120.65C534.98 124.973 532.945 130.697 529.016 131.588C528.572 131.687 528.102 131.737 527.607 131.737Z" fill="#FEFEFE"/>
<path d="M486.813 1.05623C468.845 1.05623 448.54 3.41584 426.466 8.06853C379.802 17.9062 332.429 36.7303 334.885 101.762C337.379 167.842 361.761 207.181 409.425 222.031C431.305 228.848 468.947 235.727 503.725 235.728C503.729 235.728 503.733 235.728 503.736 235.728C535.093 235.728 575.231 230.229 588.409 204.035C601.674 177.664 603.966 147.289 603.553 126.451C603.078 102.534 598.662 78.2549 592.028 63.0874C584.605 46.1223 564.892 1.05623 486.813 1.05623ZM503.736 236.784C503.731 236.784 503.73 236.784 503.725 236.784C466.447 236.783 429.459 229.379 409.111 223.039C360.967 208.041 336.342 168.384 333.828 101.802C332.661 70.8581 343.218 46.9567 365.21 30.7616C383.414 17.3549 406.28 11.2446 426.247 7.03554C448.393 2.36701 468.771 0 486.813 0C519.35 0 545.396 7.67983 564.232 22.824C579.73 35.2854 587.745 50.6609 592.995 62.6639C599.682 77.9507 604.132 102.384 604.609 126.429C605.024 147.387 602.715 177.945 589.351 204.509C575.934 231.182 535.389 236.784 503.736 236.784Z" fill="#680707"/>
<path d="M381.065 54.7061H339.661C332.464 54.7061 326.964 60.8966 327.404 68.38L328.52 87.4027C328.926 94.3357 334.734 99.7732 341.468 99.6707L371.426 99.2197C372.99 103.868 374.135 108.391 377.132 108.17C379.276 107.96 380.194 103.425 380.804 99.0497C387.088 98.6599 392.262 93.3048 392.498 86.7024L393.172 68.0811C393.437 60.7582 388.031 54.7061 381.065 54.7061Z" fill="#FEFEFE"/>
<path d="M371.427 98.6914C371.654 98.6914 371.855 98.8351 371.927 99.0516C372.084 99.5153 372.236 99.979 372.386 100.436C373.69 104.406 374.836 107.818 377.092 107.644C379.1 107.446 379.958 101.293 380.282 98.9755C380.317 98.7273 380.522 98.5372 380.772 98.5224C386.828 98.1464 391.747 92.9466 391.97 86.6832L392.644 68.0619C392.772 64.5425 391.504 61.1319 389.164 58.7068C387.004 56.4676 384.129 55.234 381.066 55.234H339.662C336.457 55.234 333.48 56.5194 331.277 58.8537C328.943 61.3305 327.723 64.7918 327.931 68.3491L329.048 87.3718C329.428 93.8623 334.915 99.1435 341.281 99.1435L341.461 99.1424L371.418 98.6914C371.422 98.6914 371.424 98.6914 371.427 98.6914ZM376.923 108.707C373.989 108.707 372.781 105.026 371.382 100.766C371.273 100.43 371.162 100.092 371.049 99.7529L341.281 100.2C334.249 100.2 328.413 94.5922 327.994 87.4341L326.877 68.4115C326.652 64.5647 327.976 60.8161 330.51 58.1291C332.912 55.5804 336.162 54.1777 339.662 54.1777H381.066C384.417 54.1777 387.564 55.5255 389.924 57.9738C392.462 60.6038 393.838 64.2953 393.701 68.0999L393.027 86.7212C392.789 93.3722 387.661 98.9196 381.269 99.5417C380.597 104.207 379.614 108.457 377.183 108.696C377.088 108.703 377.005 108.707 376.923 108.707Z" fill="#292929"/>
<path d="M347.637 77.7704C347.637 80.0656 345.819 81.9267 343.578 81.9267C341.335 81.9267 339.518 80.0656 339.518 77.7704C339.518 75.4742 341.335 73.6141 343.578 73.6141C345.819 73.6141 347.637 75.4742 347.637 77.7704Z" fill="#680707"/>
<path d="M363.685 77.7704C363.685 80.0656 361.867 81.9267 359.625 81.9267C357.383 81.9267 355.565 80.0656 355.565 77.7704C355.565 75.4742 357.383 73.6141 359.625 73.6141C361.867 73.6141 363.685 75.4742 363.685 77.7704Z" fill="#680707"/>
<path d="M379.731 77.7705C379.731 80.0657 377.914 81.9268 375.672 81.9268C373.429 81.9268 371.611 80.0657 371.611 77.7705C371.611 75.4743 373.429 73.6143 375.672 73.6143C377.914 73.6143 379.731 75.4743 379.731 77.7705Z" fill="#680707"/>
<path d="M392.733 262.778C380.551 256.904 378.258 243.717 396.03 238.7C383.56 223.365 396.172 214.479 404.63 212.758C413.086 211.039 429.855 215.339 446.05 229.241C462.246 243.143 469.269 243.86 474.141 254.753C479.015 265.646 476.721 274.102 471.847 285.138C466.975 296.174 466.401 299.613 475.861 308.499C485.32 317.386 493.059 326.272 486.467 343.041C479.874 359.81 401.046 353.647 397.32 342.18C393.593 330.715 402.479 288.72 402.479 288.72L392.733 262.778Z" fill="#292929"/>
<path d="M383.704 331.43C381.841 323.261 384.004 304.504 400.329 295.169C412.237 288.361 418.532 297.893 418.532 297.893L420.395 329.281C420.395 329.281 387.717 331.574 383.704 331.43Z" fill="#292929"/>
<path d="M291.976 284.278C290.544 282.271 288.397 279.526 286.391 280.959C284.385 282.392 287.579 294.03 296.563 292.59C294.269 289.151 291.976 284.278 291.976 284.278Z" fill="#FEFEFE"/>
<path d="M287.567 281.088C287.265 281.088 286.981 281.187 286.699 281.388C286.306 281.668 286.122 283.178 286.796 285.282C287.864 288.618 290.596 292.184 295.058 292.184H295.059C295.255 292.184 295.456 292.177 295.658 292.164C293.531 288.806 291.52 284.548 291.499 284.502C290.8 283.538 289.051 281.088 287.567 281.088ZM295.059 293.24H295.058C290.023 293.24 286.917 289.126 285.789 285.604C285.204 283.778 284.932 281.353 286.085 280.529C286.546 280.199 287.045 280.032 287.567 280.032C289.349 280.032 290.946 281.925 292.407 283.97C292.478 284.101 294.759 288.931 297.003 292.297C297.104 292.446 297.121 292.636 297.048 292.801C296.976 292.966 296.825 293.083 296.647 293.111C296.111 293.197 295.576 293.24 295.059 293.24Z" fill="#292929"/>
<path d="M317.344 285.567C312.472 283.99 309.318 280.121 310.896 276.967C312.472 273.815 317.632 277.971 321.214 280.837C324.798 283.704 328.238 284.277 328.238 284.277C328.238 284.277 322.934 287 317.344 285.567Z" fill="#FEFEFE"/>
<path d="M312.701 276.367C312.077 276.367 311.654 276.633 311.368 277.204C310.902 278.135 310.893 279.153 311.343 280.226C312.194 282.256 314.556 284.11 317.507 285.065C318.512 285.321 319.614 285.456 320.755 285.456C323.153 285.456 325.283 284.861 326.602 284.386C325.221 283.929 323.085 283.01 320.885 281.25C318.27 279.157 314.781 276.367 312.701 276.367ZM320.755 286.512C319.526 286.512 318.335 286.367 317.214 286.079C313.947 285.023 311.337 282.939 310.369 280.634C309.803 279.284 309.822 277.935 310.423 276.731C310.888 275.801 311.676 275.311 312.701 275.311C315.152 275.311 318.658 278.116 321.476 280.37C324.967 283.162 328.292 283.751 328.326 283.757C328.549 283.795 328.724 283.972 328.76 284.197C328.794 284.422 328.681 284.643 328.479 284.746C328.339 284.819 324.992 286.512 320.755 286.512Z" fill="#292929"/>
<path d="M322.457 329.569C322.076 321.159 321.12 304.343 319.783 298.992C318.443 293.642 310.034 295.168 309.461 294.979C308.889 294.788 298.426 298.753 293.266 288.291C288.105 277.827 292.263 273.957 295.129 274.96C296.133 271.521 298.999 272.524 300.575 274.244C302.01 271.234 306.165 274.389 307.168 278.258C308.172 282.128 309.175 285.567 317.2 284.563C325.228 283.56 335.116 281.267 338.986 292.876C342.856 304.486 346.01 322.544 346.01 322.544C346.01 322.544 344.482 334.013 322.457 329.569Z" fill="#FEFEFE"/>
<path d="M322.965 329.132C326.14 329.751 329.057 330.064 331.642 330.064C343.66 330.064 345.323 323.32 345.473 322.545C345.226 321.154 342.159 304.065 338.485 293.044C335.876 285.218 330.503 284.215 326.115 284.215C323.794 284.215 321.391 284.538 319.068 284.851C318.459 284.933 317.857 285.013 317.266 285.087C316.309 285.208 315.417 285.268 314.614 285.268C308.441 285.268 307.493 281.613 306.657 278.391C305.953 275.677 303.726 273.573 302.279 273.573C301.741 273.573 301.34 273.867 301.051 274.471C300.976 274.63 300.826 274.741 300.653 274.766C300.477 274.793 300.305 274.731 300.185 274.601C299.39 273.733 298.381 273.194 297.552 273.194C296.651 273.194 296.007 273.839 295.636 275.108C295.595 275.248 295.499 275.364 295.37 275.43C295.241 275.497 295.09 275.505 294.955 275.459C293.919 275.099 292.758 275.573 292.084 276.658C291.419 277.728 290.249 280.979 293.739 288.058C296.023 292.686 299.668 295.032 304.576 295.032C306.283 295.032 307.719 294.746 308.577 294.574C308.984 294.493 309.229 294.443 309.403 294.443C309.459 294.443 309.574 294.459 309.628 294.477C309.824 294.468 310.041 294.457 310.311 294.442C310.778 294.418 311.395 294.386 312.091 294.386C316.791 294.386 319.551 295.894 320.295 298.865C321.731 304.613 322.681 322.967 322.965 329.132ZM331.642 331.12C328.878 331.12 325.752 330.772 322.352 330.087C322.115 330.038 321.94 329.836 321.929 329.593C321.671 323.907 320.716 304.909 319.27 299.122C318.659 296.681 316.244 295.443 312.091 295.443C311.416 295.443 310.818 295.473 310.366 295.498C309.842 295.524 309.553 295.536 309.376 295.502C309.261 295.51 309.06 295.556 308.784 295.61C307.887 295.789 306.387 296.088 304.576 296.088C299.308 296.088 295.233 293.473 292.793 288.523C289.202 281.243 290.245 277.615 291.186 276.101C292.016 274.766 293.414 274.089 294.785 274.328C295.513 272.436 296.809 272.138 297.552 272.138C298.508 272.138 299.565 272.603 300.475 273.407C300.934 272.829 301.556 272.517 302.279 272.517C304.381 272.517 306.905 275.138 307.679 278.125C308.526 281.391 309.258 284.212 314.614 284.212C315.373 284.212 316.221 284.155 317.135 284.04C317.723 283.967 318.322 283.886 318.927 283.805C321.284 283.487 323.722 283.159 326.115 283.159C330.487 283.159 336.634 284.149 339.488 292.709C343.326 304.223 346.499 322.272 346.529 322.454C346.539 322.506 346.54 322.561 346.533 322.615C346.521 322.7 345.24 331.12 331.642 331.12Z" fill="#292929"/>
<path d="M297.349 293.898C297.236 293.898 297.123 293.862 297.027 293.788C293.781 291.281 291.629 287.533 290.627 282.65C290.568 282.364 290.752 282.085 291.038 282.026C291.328 281.968 291.603 282.152 291.661 282.438C292.611 287.065 294.634 290.603 297.672 292.953C297.904 293.131 297.946 293.462 297.767 293.693C297.664 293.828 297.508 293.898 297.349 293.898Z" fill="#292929"/>
<path d="M310.896 291.972C310.888 291.972 310.88 291.972 310.872 291.972C307.92 291.843 305.475 290.581 303.606 288.218C300.029 283.7 299.624 276.419 300.057 274.145C300.11 273.86 300.384 273.669 300.674 273.726C300.961 273.78 301.149 274.056 301.094 274.344C300.701 276.408 301.116 283.371 304.434 287.562C306.105 289.674 308.286 290.803 310.918 290.916C311.209 290.93 311.435 291.176 311.423 291.466C311.41 291.75 311.177 291.972 310.896 291.972Z" fill="#292929"/>
<path d="M305.307 295.841C305.292 295.841 305.277 295.84 305.262 295.839C302.503 295.609 300.201 294.323 298.419 292.017C294.202 286.558 294.227 277.069 294.609 274.871C294.66 274.582 294.931 274.386 295.221 274.441C295.508 274.491 295.7 274.764 295.651 275.051C295.285 277.149 295.254 286.191 299.255 291.371C300.848 293.433 302.898 294.583 305.35 294.787C305.64 294.81 305.857 295.067 305.833 295.357C305.809 295.633 305.578 295.841 305.307 295.841Z" fill="#292929"/>
<path d="M404.631 339.027C409.36 341.176 423.119 346.05 448.058 339.743C447.198 356.943 445.478 393.204 445.478 393.204C445.478 393.204 424.696 404.957 410.793 400.083C406.924 393.49 404.631 339.027 404.631 339.027Z" fill="#292929"/>
<path d="M408.887 325.418C413.043 324.844 417.529 323.262 417.098 316.382C416.668 309.503 415.522 300.473 415.522 300.473C404.773 300.33 394.166 294.74 389.294 283.704C384.42 272.669 390.87 266.936 394.453 255.469C398.037 244.004 404.773 234.544 419.822 235.548C434.871 236.55 442.896 243.717 442.896 243.717C440.317 257.189 437.737 276.252 443.326 277.399C448.916 278.545 450.35 268.656 450.35 268.656C458.806 264.499 467.664 269.557 464.252 276.968C460.096 285.997 450.206 281.411 450.206 281.411C448.201 286.571 439.744 292.303 439.744 292.303C441.034 302.91 442.317 320.455 450.344 321.457C447.047 338.227 445.334 344.331 445.334 344.331C445.334 344.331 416.525 351.354 406.062 341.034C406.492 337.452 408.887 325.418 408.887 325.418Z" fill="#FEFEFE"/>
<path d="M406.619 340.838C410.334 344.355 416.734 346.135 425.646 346.135C434.583 346.135 443.203 344.276 444.906 343.888C445.277 342.487 446.925 336.06 449.72 321.884C442.439 320.286 440.774 305.831 439.551 295.205C439.438 294.22 439.328 293.268 439.22 292.367C439.195 292.17 439.283 291.977 439.448 291.865C439.53 291.81 447.79 286.165 449.713 281.219C449.766 281.083 449.874 280.976 450.009 280.921C450.144 280.866 450.296 280.871 450.427 280.931C450.452 280.943 452.877 282.047 455.74 282.047C459.451 282.047 462.154 280.264 463.772 276.747C464.753 274.616 464.71 272.613 463.646 270.954C462.335 268.908 459.677 267.687 456.533 267.687C454.644 267.687 452.676 268.144 450.827 269.013C450.552 270.593 449.008 278.019 444.207 278.019C443.886 278.019 443.553 277.984 443.22 277.916C438.511 276.949 438.208 265.512 442.319 243.923C440.922 242.795 433.097 236.962 419.785 236.074C407.281 235.243 399.395 241.425 394.957 255.627C393.93 258.911 392.646 261.783 391.515 264.316C388.646 270.734 386.381 275.802 389.776 283.491C394.191 293.488 404.058 299.792 415.528 299.944C415.791 299.948 416.012 300.144 416.045 300.406C416.057 300.496 417.198 309.531 417.624 316.349C418.076 323.576 413.221 325.292 409.332 325.886C408.939 327.876 407.067 337.413 406.619 340.838ZM425.646 347.192C416.295 347.192 409.581 345.246 405.691 341.411C405.575 341.295 405.519 341.133 405.538 340.972C405.964 337.409 408.27 325.806 408.368 325.314C408.412 325.093 408.591 324.925 408.814 324.895C412.876 324.334 416.974 322.888 416.57 316.415C416.201 310.501 415.29 302.906 415.054 300.991C403.362 300.672 393.333 294.163 388.81 283.917C385.225 275.799 387.574 270.542 390.551 263.885C391.725 261.256 392.94 258.537 393.948 255.311C398.49 240.775 406.942 234.158 419.856 235.02C434.913 236.024 442.914 243.025 443.247 243.322C443.385 243.447 443.45 243.634 443.414 243.815C439.543 264.033 439.549 276.084 443.432 276.881C443.696 276.936 443.957 276.963 444.207 276.963C448.561 276.963 449.815 268.664 449.826 268.58C449.852 268.407 449.96 268.259 450.116 268.183C452.181 267.168 454.4 266.631 456.533 266.631C460.039 266.631 463.03 268.034 464.536 270.384C465.784 272.334 465.854 274.75 464.731 277.188C462.481 282.077 458.599 283.103 455.74 283.103C453.408 283.103 451.392 282.446 450.488 282.098C448.356 286.742 441.743 291.55 440.305 292.556C440.403 293.364 440.501 294.211 440.601 295.085C441.815 305.628 443.476 320.067 450.408 320.933C450.553 320.951 450.685 321.029 450.771 321.147C450.856 321.265 450.89 321.414 450.86 321.559C447.598 338.158 445.859 344.412 445.841 344.473C445.789 344.657 445.644 344.799 445.458 344.844C445.362 344.867 435.707 347.192 425.646 347.192Z" fill="#292929"/>
<path d="M405.488 277.353C405.399 277.353 405.31 277.331 405.227 277.284C402.203 275.561 400.618 273.873 400.38 272.122C400.087 269.949 401.848 268.183 403.552 266.474C403.886 266.14 404.218 265.807 404.53 265.474C407.32 262.504 407.024 257.091 405.568 253.317C404.945 251.7 403.891 250.742 402.439 250.471C400.521 250.119 398.452 251.068 397.471 252.146C397.276 252.362 396.942 252.378 396.726 252.182C396.509 251.986 396.494 251.652 396.69 251.436C397.892 250.114 400.317 249.007 402.633 249.433C403.895 249.668 405.602 250.468 406.555 252.938C408.177 257.144 408.419 262.876 405.299 266.198C404.981 266.537 404.641 266.877 404.3 267.219C402.778 268.747 401.204 270.326 401.427 271.981C401.615 273.363 403.068 274.838 405.749 276.366C406.004 276.51 406.091 276.833 405.948 277.086C405.849 277.257 405.672 277.353 405.488 277.353Z" fill="#292929"/>
<path d="M431.383 259.486C431.213 259.486 431.046 259.403 430.945 259.251C425.372 250.94 419.45 252.085 416.414 253.512C416.153 253.635 415.838 253.522 415.712 253.257C415.588 252.993 415.702 252.678 415.967 252.555C418.658 251.295 425.589 249.364 431.822 258.664C431.984 258.906 431.92 259.234 431.677 259.396C431.587 259.457 431.485 259.486 431.383 259.486Z" fill="#292929"/>
<path d="M422.874 267.001C422.315 268.788 421.036 269.981 420.017 269.664C418.999 269.345 418.626 267.637 419.184 265.849C419.74 264.061 421.021 262.869 422.038 263.189C423.057 263.507 423.432 265.211 422.874 267.001Z" fill="#292929"/>
<path d="M422.306 264.358C422.078 264.358 421.866 264.21 421.8 263.98L420.843 260.731C420.761 260.45 420.921 260.158 421.2 260.075C421.484 259.994 421.774 260.151 421.856 260.432L422.813 263.681C422.895 263.961 422.735 264.255 422.456 264.337C422.405 264.352 422.355 264.358 422.306 264.358Z" fill="#292929"/>
<path d="M401.998 263.083C401.439 264.87 400.16 266.063 399.14 265.746C398.122 265.428 397.749 263.719 398.306 261.932C398.865 260.143 400.145 258.951 401.162 259.271C402.179 259.589 402.556 261.294 401.998 263.083Z" fill="#292929"/>
<path d="M401.429 260.44C401.202 260.44 400.989 260.293 400.923 260.062L399.967 256.812C399.885 256.531 400.044 256.239 400.325 256.156C400.602 256.073 400.899 256.232 400.98 256.513L401.936 259.765C402.018 260.043 401.859 260.337 401.579 260.419C401.528 260.434 401.478 260.44 401.429 260.44Z" fill="#292929"/>
<path d="M401.839 280.429C401.827 283.143 402.318 285.086 403.271 286.084C405.281 288.18 409.754 286.037 414.537 280.995C409.422 281.997 404.279 281.704 401.839 280.429ZM405.279 287.955C404.166 287.955 403.233 287.572 402.508 286.813C401.224 285.473 400.652 282.988 400.807 279.43C400.816 279.225 400.943 279.044 401.132 278.966C401.321 278.886 401.539 278.924 401.691 279.063C402.447 279.756 404.669 280.563 408.436 280.563C410.787 280.563 413.376 280.233 415.923 279.609C416.151 279.554 416.382 279.651 416.501 279.848C416.62 280.045 416.598 280.296 416.446 280.47C412.265 285.227 408.195 287.955 405.279 287.955Z" fill="#292929"/>
<path d="M403.054 287.004C402.964 287.004 402.874 286.98 402.791 286.933C402.538 286.788 402.45 286.465 402.596 286.213C403.838 284.052 408.883 282.704 411.895 283.724C412.171 283.818 412.32 284.118 412.226 284.394C412.133 284.671 411.83 284.817 411.556 284.725C408.83 283.8 404.433 285.136 403.512 286.739C403.413 286.909 403.236 287.004 403.054 287.004Z" fill="#292929"/>
<path d="M415.297 301.049C414.988 301.046 414.708 300.831 414.709 300.519C414.71 300.227 414.946 299.993 415.237 299.993C415.26 299.99 415.279 299.993 415.299 299.993C420.651 299.993 429.276 296.906 435.053 293.844C435.312 293.707 435.632 293.805 435.767 294.063C435.904 294.322 435.806 294.641 435.548 294.777C429.655 297.9 420.822 301.049 415.297 301.049Z" fill="#292929"/>
<path d="M322.075 327.132C324.511 327.991 336.407 327.991 346.01 322.544C347.586 331.288 353.462 357.372 353.462 357.372C361.632 348.486 372.954 338.025 378.114 333.581C383.274 329.137 391.157 324.837 398.896 325.125C406.636 325.411 410.648 324.981 410.648 324.981C410.648 324.981 404.486 335.874 407.639 366.115C410.792 396.357 411.795 400.369 411.795 400.369L401.19 399.367C401.19 399.367 403.339 392.63 396.89 384.891C390.44 377.15 388.576 372.278 387.717 366.545C380.837 373.569 362.492 393.06 347.156 393.204C331.821 393.347 326.374 379.588 324.225 362.389C322.075 345.19 322.075 327.132 322.075 327.132Z" fill="#680707"/>
<path d="M440.177 393.016C435.877 394.305 417.385 399.797 408.929 399.223C400.473 398.65 391.73 394.492 384.85 396.213C377.971 397.932 366.171 406.604 367.007 410.043C367.651 412.695 370.804 411.262 370.804 411.262C371.951 413.699 374.244 412.408 374.244 412.408C375.391 414.846 380.695 413.412 383.848 410.688C387 407.965 390.869 406.532 395.744 408.253C400.616 409.972 408.212 412.408 417.098 412.839C425.985 413.269 446.911 412.292 446.911 412.292C446.911 412.292 450.066 399.895 440.177 393.016Z" fill="#FEFEFE"/>
<path d="M374.245 411.881C374.3 411.881 374.355 411.89 374.407 411.908C374.546 411.952 374.661 412.051 374.722 412.183C375.09 412.965 376.044 413.129 376.78 413.129C378.804 413.129 381.568 411.962 383.503 410.29C387.319 406.993 391.41 406.163 395.92 407.755C401.318 409.66 408.606 411.899 417.125 412.312C418.616 412.384 420.556 412.42 422.892 412.42C431.787 412.42 444.1 411.89 446.48 411.783C446.887 409.699 448.366 399.539 440.083 393.596C431.747 396.087 416.43 400.264 408.894 399.75C405.534 399.522 402.138 398.738 398.855 397.979C395.177 397.13 391.702 396.327 388.499 396.327C387.203 396.327 386.052 396.458 384.978 396.726C378.059 398.454 366.801 406.962 367.52 409.919C367.72 410.738 368.204 411.122 369.046 411.122C369.824 411.122 370.58 410.785 370.587 410.781C370.851 410.666 371.161 410.777 371.282 411.038C371.658 411.834 372.185 412.222 372.893 412.222C373.481 412.222 373.983 411.95 373.988 411.948C374.068 411.903 374.155 411.881 374.245 411.881ZM376.78 414.185C375.277 414.185 374.468 413.649 374.033 413.074C373.742 413.176 373.339 413.279 372.893 413.279C372.191 413.279 371.249 413.029 370.56 411.918C370.186 412.039 369.63 412.178 369.046 412.178C367.716 412.178 366.809 411.464 366.493 410.168C365.495 406.06 378.118 397.352 384.723 395.701C385.88 395.413 387.115 395.271 388.499 395.271C391.824 395.271 395.355 396.086 399.093 396.95C402.336 397.7 405.69 398.475 408.965 398.696C416.405 399.21 431.824 394.97 440.026 392.51C440.18 392.465 440.348 392.491 440.479 392.583C450.552 399.59 447.456 412.295 447.423 412.422C447.367 412.648 447.168 412.809 446.936 412.819C446.795 412.827 432.755 413.476 422.893 413.476C422.892 413.476 422.893 413.476 422.892 413.476C420.538 413.476 418.581 413.439 417.073 413.366C408.418 412.947 401.034 410.68 395.569 408.751C391.421 407.289 387.719 408.043 384.194 411.089C382.082 412.912 379.034 414.185 376.78 414.185Z" fill="#292929"/>
<path d="M464.682 388.187L465.685 376.148L468.982 387.327L464.682 388.187ZM505.099 382.884C498.793 365.972 493.347 347.627 488.187 339.313C483.027 331.001 476.864 323.262 465.399 322.115C457.087 321.541 449.633 321.255 449.633 321.255C446.91 328.421 438.167 363.106 442.754 392.201C440.747 392.201 439.314 393.347 439.314 393.347C443.9 397.074 446.48 403.81 445.334 412.839C465.255 414.415 486.324 411.262 493.203 409.542C500.083 407.823 511.406 399.797 505.099 382.884Z" fill="#680707"/>
<path d="M314.381 285.184C314.104 285.184 313.872 284.968 313.854 284.688C313.836 284.398 314.057 284.148 314.348 284.129C315.332 284.067 316.517 283.955 317.809 283.834C322.14 283.424 327.531 282.918 330.752 283.748C331.035 283.821 331.204 284.11 331.132 284.392C331.058 284.674 330.772 284.844 330.488 284.772C327.441 283.984 322.156 284.485 317.907 284.885C316.604 285.007 315.407 285.122 314.414 285.183C314.403 285.184 314.391 285.184 314.381 285.184Z" fill="#292929"/>
<path d="M388.145 369.51C387.899 369.51 387.679 369.336 387.629 369.085C386.671 364.29 387.742 358.142 389.23 354.177C389.331 353.904 389.638 353.761 389.909 353.869C390.183 353.97 390.321 354.275 390.218 354.548C389.149 357.402 387.615 363.632 388.664 368.878C388.721 369.164 388.536 369.443 388.25 369.499C388.215 369.507 388.18 369.51 388.145 369.51Z" fill="#292929"/>
<path d="M439.632 393.491C439.399 393.491 439.185 393.335 439.122 393.098C439.048 392.817 439.216 392.527 439.497 392.453C444.133 391.226 473.173 385.528 483.413 384.65C483.698 384.625 483.958 384.841 483.984 385.131C484.008 385.423 483.793 385.678 483.504 385.702C473.307 386.577 444.385 392.251 439.767 393.474C439.722 393.486 439.676 393.491 439.632 393.491Z" fill="#292929"/>
<path d="M466.401 378.54C466.177 378.54 465.97 378.396 465.899 378.172C464.861 374.93 462.312 364.704 461.086 359.789L460.729 358.36C460.66 358.078 460.831 357.791 461.114 357.72C461.393 357.649 461.683 357.822 461.755 358.105L462.112 359.534C463.334 364.437 465.879 374.642 466.905 377.851C466.994 378.128 466.84 378.427 466.562 378.515C466.509 378.531 466.455 378.54 466.401 378.54Z" fill="#292929"/>
<path d="M370.804 411.791C370.513 411.791 370.276 411.555 370.276 411.263C370.276 408.508 376.06 402.698 385.123 399.865C385.407 399.777 385.697 399.935 385.785 400.212C385.872 400.49 385.716 400.786 385.438 400.874C376.132 403.781 371.333 409.474 371.333 411.263C371.333 411.555 371.097 411.791 370.804 411.791Z" fill="#292929"/>
<path d="M408.206 410.851H362.946L344.732 357.655C343.142 353.016 337.831 349.22 332.928 349.22H255.635C250.734 349.22 248.022 353.016 249.609 357.655L268.372 412.453C270.424 417.773 270.665 422.152 275.999 422.152H408.206C411.326 422.152 413.857 419.622 413.857 416.499C413.857 413.379 411.326 410.851 408.206 410.851Z" fill="black"/>
<path d="M300.236 376.87C298.907 376.87 297.806 377.397 297.057 378.395C295.971 379.838 295.749 382.045 296.445 384.451C297.698 388.794 301.54 392.328 305.006 392.328C306.335 392.328 307.434 391.801 308.183 390.801C309.269 389.356 309.492 387.15 308.796 384.746C307.546 380.403 303.705 376.87 300.236 376.87ZM305.006 393.384C301.101 393.384 296.805 389.509 295.43 384.744C294.641 382.017 294.926 379.472 296.212 377.761C297.156 376.504 298.586 375.813 300.236 375.813C304.143 375.813 308.439 379.69 309.811 384.453C310.6 387.178 310.315 389.724 309.027 391.436C308.083 392.692 306.656 393.384 305.006 393.384Z" fill="#292929"/>
</svg>
