<svg width="100" height="100" viewBox="0 0 100 100" fill="none" xmlns="http://www.w3.org/2000/svg">
<g clip-path="url(#clip0_52_103)">
<path d="M56.0547 56.25C53.3529 54.2318 50.4395 52.6855 47.3145 51.6113C44.1895 50.5371 40.918 50 37.5 50C34.6354 50 31.8685 50.3743 29.1992 51.123C26.5299 51.8717 24.0397 52.9134 21.7285 54.248C19.4173 55.5827 17.3177 57.2103 15.4297 59.1309C13.5417 61.0514 11.9141 63.1673 10.5469 65.4785C9.17969 67.7897 8.12175 70.2799 7.37305 72.9492C6.62435 75.6185 6.25 78.3854 6.25 81.25H0C0 77.3438 0.569661 73.584 1.70898 69.9707C2.84831 66.3574 4.49219 63.0208 6.64062 59.9609C8.78906 56.901 11.3281 54.1829 14.2578 51.8066C17.1875 49.4303 20.5078 47.5586 24.2188 46.1914C22.3958 45.0521 20.7682 43.7174 19.3359 42.1875C17.9036 40.6576 16.6667 38.9648 15.625 37.1094C14.5833 35.2539 13.8184 33.3171 13.3301 31.2988C12.8418 29.2806 12.5651 27.181 12.5 25C12.5 21.5495 13.151 18.3105 14.4531 15.2832C15.7552 12.2559 17.5456 9.61914 19.8242 7.37305C22.1029 5.12695 24.7559 3.33659 27.7832 2.00195C30.8105 0.667318 34.0495 0 37.5 0C40.9505 0 44.1895 0.651042 47.2168 1.95312C50.2441 3.25521 52.8809 5.04557 55.127 7.32422C57.373 9.60286 59.1634 12.2559 60.498 15.2832C61.8327 18.3105 62.5 21.5495 62.5 25C62.5 27.1484 62.2396 29.248 61.7188 31.2988C61.1979 33.3496 60.4167 35.2865 59.375 37.1094C58.3333 38.9323 57.0964 40.6087 55.6641 42.1387C54.2318 43.6686 52.5879 45.0195 50.7324 46.1914C52.6855 46.9401 54.5247 47.819 56.25 48.8281V56.25H56.0547ZM18.75 25C18.75 27.6042 19.2383 30.0293 20.2148 32.2754C21.1914 34.5215 22.526 36.5072 24.2188 38.2324C25.9115 39.9577 27.8971 41.3086 30.1758 42.2852C32.4544 43.2617 34.8958 43.75 37.5 43.75C40.0716 43.75 42.4967 43.2617 44.7754 42.2852C47.054 41.3086 49.0397 39.974 50.7324 38.2812C52.4251 36.5885 53.776 34.6029 54.7852 32.3242C55.7943 30.0456 56.2826 27.6042 56.25 25C56.25 22.4284 55.7617 20.0033 54.7852 17.7246C53.8086 15.446 52.474 13.4603 50.7812 11.7676C49.0885 10.0749 47.0866 8.72396 44.7754 7.71484C42.4642 6.70573 40.0391 6.21745 37.5 6.25C34.8958 6.25 32.4707 6.73828 30.2246 7.71484C27.9785 8.69141 25.9928 10.026 24.2676 11.7188C22.5423 13.4115 21.1914 15.4134 20.2148 17.7246C19.2383 20.0358 18.75 22.4609 18.75 25ZM100 62.5V100H50V62.5H62.5V50H87.5V62.5H100ZM68.75 62.5H81.25V56.25H68.75V62.5ZM93.75 81.25H87.5V87.5H81.25V81.25H68.75V87.5H62.5V81.25H56.25V93.75H93.75V81.25ZM93.75 68.75H56.25V75H93.75V68.75Z" fill="#545454"/>
</g>
<rect x="0.5" y="0.5" width="99" height="99" stroke="black"/>
<defs>
<clipPath id="clip0_52_103">
<rect width="100" height="100" fill="white"/>
</clipPath>
</defs>
</svg>
