<svg width="864" height="637" viewBox="0 0 864 637" fill="none" xmlns="http://www.w3.org/2000/svg">
<g clip-path="url(#clip0_191_81)">
<path d="M490.406 485.281C488.838 485.053 487.308 484.607 485.863 483.956C490.324 480.034 494.969 476.325 499.781 472.844L500.094 472.625L500.281 472.281C501.149 470.453 501.385 468.388 500.953 466.41C500.52 464.433 499.443 462.655 497.891 461.356C496.455 460.025 494.628 459.192 492.681 458.98C490.734 458.768 488.77 459.19 487.081 460.181L486.688 460.597C482.011 467.092 476.886 473.251 471.35 479.031C465.451 484.281 459.165 489.078 452.544 493.381L451.313 494.156V494.875C450.848 496.825 450.802 498.852 451.179 500.821C451.557 502.79 452.348 504.656 453.5 506.297C454.386 507.219 455.461 507.939 456.652 508.405C457.843 508.872 459.12 509.075 460.397 509C461.489 509.058 462.577 508.828 463.552 508.334C464.527 507.839 465.355 507.097 465.953 506.181C466.719 505.219 472.406 498.031 478.469 491.469C479.306 492.919 479.956 494.603 480.325 496.391C480.72 499.651 480.291 502.958 479.078 506.009L484.344 499.625L488.5 502.75C488.383 499.207 487.768 495.697 486.675 492.325C485.908 490.931 484.945 489.653 483.816 488.531C485.085 489.613 486.538 490.541 488.103 491.263C491.041 492.319 494.319 493.05 497.716 493.363L494.75 489.406L501 484C498.196 484.902 495.268 485.356 492.322 485.347C491.647 485.347 490.978 485.325 490.316 485.278L490.406 485.281ZM489 462.688C489.819 462.285 490.719 462.077 491.631 462.081C493.213 462.081 494.65 462.694 495.722 463.694C496.718 464.491 497.435 465.584 497.769 466.815C498.103 468.047 498.038 469.352 497.581 470.544C496.063 471.503 490.25 475.909 484.625 480.878C484.464 479.312 483.719 477.863 482.538 476.822C482.009 476.368 481.391 476.03 480.723 475.83C480.056 475.63 479.354 475.572 478.663 475.659C482.304 471.495 485.754 467.167 489 462.688ZM459.438 495.906C459.678 495.739 459.964 495.65 460.256 495.65L460.381 495.656H460.594C461.153 495.819 461.638 496.1 462.035 496.472L459.313 498.719C458.975 498.024 458.846 497.247 458.941 496.481C459.028 496.236 459.204 496.032 459.435 495.909L459.438 495.906ZM463.5 504.313C463.193 504.857 462.729 505.296 462.169 505.574C461.609 505.852 460.979 505.956 460.36 505.872C459.51 505.95 458.653 505.84 457.85 505.548C457.048 505.256 456.32 504.791 455.719 504.184C454.526 502.409 453.892 500.317 453.897 498.178C453.897 497.394 453.981 496.631 454.138 495.897L456.344 494.469C456.05 494.906 455.831 495.419 455.722 495.972C455.548 498.144 456.139 500.309 457.394 502.091L458.5 503.466L463.813 499.091C464.345 500.828 464.227 502.699 463.481 504.356L463.5 504.313ZM466.188 496.656C465.122 494.787 463.411 493.371 461.375 492.675C461.153 492.638 460.969 492.625 460.781 492.625C460.594 492.625 460.41 492.638 460.228 492.656C459.865 492.615 459.498 492.615 459.135 492.656C463.463 489.712 467.624 486.528 471.597 483.119C472.841 483.341 474.135 483.9 475.131 484.784C476.06 485.763 476.631 487.094 476.631 488.563L476.625 488.856C473.347 492.374 470.219 496.029 467.25 499.813C467.094 498.683 466.715 497.597 466.135 496.616L466.188 496.656Z" fill="#F21D2F"/>
</g>
<path d="M489.342 28.9126C487.889 29.547 486.355 29.9757 484.783 30.1866C486.501 24.5 488.487 18.8981 490.736 13.4001L490.886 13.0493L490.864 12.6584C490.635 10.6472 489.745 8.76888 488.334 7.31816C486.922 5.86743 485.069 4.92644 483.065 4.64286C481.142 4.27057 479.15 4.52763 477.385 5.37595C475.62 6.22428 474.175 7.61873 473.265 9.35265L473.15 9.91352C472.607 17.8984 471.508 25.8356 469.858 33.6671C467.621 41.24 464.815 48.6332 461.465 55.7837L460.828 57.092L461.208 57.7024C461.843 59.6041 462.874 61.3492 464.234 62.8222C465.594 64.2953 467.252 65.4627 469.097 66.2471C470.336 66.5628 471.629 66.6059 472.887 66.3735C474.144 66.1411 475.336 65.6387 476.381 64.901C477.339 64.3737 478.142 63.6041 478.708 62.6691C479.275 61.7341 479.587 60.6665 479.611 59.5733C479.753 58.3517 480.788 49.2447 482.471 40.4705C483.948 41.2597 485.389 42.3469 486.646 43.6702C488.703 46.2305 490.085 49.2651 490.667 52.497L491.767 44.2949L496.947 44.7541C494.976 41.8071 492.601 39.1513 489.892 36.8645C488.504 36.0855 487.012 35.509 485.461 35.1526C487.109 35.4009 488.833 35.4218 490.544 35.2082C493.596 34.5541 496.766 33.4441 499.816 31.9159L495.209 30.122L497.662 22.2307C495.756 24.477 493.509 26.4093 491.003 27.9568C490.43 28.3132 489.85 28.6478 489.263 28.9578L489.342 28.9126ZM476.217 10.4679C476.7 9.69383 477.355 9.04206 478.132 8.56366C479.475 7.72872 481.019 7.48984 482.457 7.77309C483.724 7.92435 484.91 8.47423 485.844 9.34335C486.778 10.2125 487.411 11.3559 487.653 12.6085C486.87 14.2252 484.26 21.0362 482.107 28.226C481.143 26.9805 479.746 26.1441 478.193 25.8836C477.504 25.7775 476.801 25.8169 476.128 25.9993C475.456 26.1817 474.829 26.503 474.288 26.9424C475.181 21.4831 475.825 15.9859 476.217 10.4679ZM468.652 54.2879C468.768 54.0191 468.964 53.7923 469.212 53.638L469.322 53.5773L469.502 53.4651C470.063 53.3077 470.623 53.2908 471.156 53.3971L470.031 56.7424C469.378 56.3308 468.858 55.7391 468.534 55.0386C468.479 54.7839 468.52 54.5177 468.651 54.2922L468.652 54.2879ZM476.541 59.2817C476.567 59.9062 476.406 60.5242 476.077 61.0559C475.748 61.5876 475.268 62.0085 474.697 62.2643C474.017 62.7797 473.231 63.1382 472.395 63.3141C471.56 63.49 470.696 63.4789 469.865 63.2816C467.915 62.4034 466.272 60.9621 465.147 59.1429C464.733 58.4768 464.402 57.7847 464.147 57.0785L465.266 54.7008C465.248 55.2274 465.333 55.7781 465.532 56.3056C466.53 58.2425 468.176 59.7686 470.182 60.619L471.848 61.2026L474.049 54.6821C475.418 55.8765 476.307 57.5279 476.548 59.3287L476.541 59.2817ZM474.781 51.3607C472.889 50.3359 470.688 50.0373 468.592 50.5208C468.383 50.6061 468.22 50.6929 468.061 50.7919C467.902 50.8909 467.752 50.9989 467.608 51.1105C467.277 51.2675 466.966 51.4613 466.679 51.688C468.8 46.9018 470.652 42.0008 472.226 37.008C473.4 36.5397 474.794 36.3316 476.107 36.5562C477.412 36.8968 478.601 37.7254 479.376 38.9727L479.526 39.2254C478.599 43.944 477.873 48.6999 477.35 53.48C476.621 52.6037 475.725 51.8811 474.714 51.3542L474.781 51.3607Z" fill="#F21D2F"/>
<g clip-path="url(#clip1_191_81)">
<path d="M406.885 151.901L384.936 174.25L396.088 176.556L400.451 190.908L419.972 194.956L433.938 180.729L429.576 166.377L433.567 162.316L438.591 178.844L443.375 177.39L437.558 158.255L406.885 151.901ZM427.56 161.294L413.952 175.15L394.934 171.211L408.542 157.354L427.56 161.294ZM428.296 179.361L418.314 189.502L404.377 186.631L401.665 177.709L415.609 180.604L425.584 170.439L428.296 179.361Z" fill="#F21D2F"/>
</g>
<g clip-path="url(#clip2_191_81)">
<path d="M274.885 432.901L252.936 455.25L264.088 457.556L268.451 471.908L287.972 475.956L301.938 461.729L297.576 447.377L301.567 443.316L306.591 459.844L311.375 458.39L305.558 439.255L274.885 432.901ZM295.56 442.294L281.952 456.15L262.934 452.211L276.542 438.354L295.56 442.294ZM296.296 460.361L286.314 470.502L272.377 467.631L269.665 458.709L283.609 461.604L293.584 451.439L296.296 460.361Z" fill="#F21D2F"/>
</g>
<path d="M360.38 218.617C358.702 216.941 356.427 216 354.055 216C351.683 216 349.408 216.941 347.73 218.617L317.85 248.5C316.834 249.515 316.12 250.793 315.787 252.19L313.05 263.692C312.976 264.004 312.983 264.33 313.07 264.638C313.157 264.946 313.322 265.227 313.549 265.453C313.776 265.679 314.056 265.844 314.365 265.931C314.673 266.018 314.998 266.024 315.31 265.95L326.812 263.21C328.211 262.878 329.489 262.164 330.505 261.147L355.5 236.15C356.315 236.972 356.771 238.083 356.768 239.241C356.765 240.398 356.304 241.507 355.485 242.325L351.027 246.785C350.843 246.957 350.695 247.164 350.593 247.394C350.49 247.624 350.435 247.872 350.431 248.124C350.426 248.375 350.473 248.626 350.567 248.859C350.661 249.092 350.802 249.305 350.98 249.483C351.158 249.661 351.37 249.801 351.603 249.895C351.837 249.99 352.087 250.036 352.339 250.031C352.59 250.027 352.839 249.972 353.069 249.869C353.299 249.767 353.506 249.619 353.677 249.435L358.137 244.977C359.659 243.456 360.515 241.393 360.517 239.241C360.519 237.09 359.668 235.025 358.15 233.5L360.38 231.27C362.056 229.592 362.998 227.317 362.998 224.945C362.998 222.573 362.056 220.298 360.38 218.62M350.38 221.27C350.863 220.787 351.435 220.405 352.066 220.143C352.697 219.882 353.372 219.748 354.055 219.748C354.737 219.748 355.413 219.882 356.044 220.143C356.674 220.405 357.247 220.787 357.73 221.27C358.213 221.753 358.595 222.326 358.857 222.956C359.118 223.587 359.252 224.262 359.252 224.945C359.252 225.627 359.118 226.303 358.857 226.934C358.595 227.564 358.213 228.137 357.73 228.62L327.852 258.497C327.325 259.022 326.665 259.39 325.942 259.562L317.402 261.595L319.435 253.057C319.607 252.332 319.977 251.672 320.502 251.147L350.38 221.27Z" fill="#F21D2F"/>
<g clip-path="url(#clip3_191_81)">
<path d="M486.885 330.763C484.516 330.876 482.289 331.925 480.692 333.679C479.096 335.434 478.262 337.75 478.372 340.119L480.366 382.331C480.433 383.766 480.898 385.153 481.708 386.34L488.373 396.105C488.554 396.37 488.799 396.584 489.086 396.727C489.373 396.869 489.691 396.936 490.011 396.921C490.331 396.906 490.642 396.809 490.914 396.639C491.185 396.47 491.409 396.234 491.564 395.953L497.278 385.601C497.974 384.344 498.306 382.917 498.238 381.482L496.569 346.171C497.725 346.122 498.854 346.532 499.708 347.313C500.563 348.094 501.072 349.182 501.126 350.338L501.426 356.637C501.429 356.888 501.482 357.137 501.583 357.367C501.684 357.598 501.831 357.806 502.014 357.979C502.198 358.151 502.414 358.285 502.65 358.373C502.886 358.46 503.137 358.499 503.389 358.487C503.64 358.475 503.887 358.413 504.114 358.304C504.341 358.194 504.543 358.041 504.709 357.851C504.875 357.662 505.002 357.441 505.081 357.202C505.16 356.963 505.19 356.711 505.169 356.46L504.873 350.161C504.772 348.012 503.822 345.991 502.232 344.541C500.642 343.091 498.542 342.331 496.392 342.428L496.244 339.278C496.131 336.908 495.082 334.681 493.327 333.085C491.573 331.488 489.256 330.654 486.887 330.764M482.117 339.944C482.085 339.263 482.188 338.581 482.419 337.939C482.65 337.297 483.005 336.706 483.465 336.202C483.924 335.697 484.478 335.287 485.096 334.997C485.713 334.706 486.382 334.54 487.064 334.508C487.746 334.476 488.427 334.578 489.069 334.809C489.711 335.04 490.302 335.396 490.806 335.855C491.311 336.314 491.721 336.869 492.011 337.486C492.302 338.104 492.468 338.772 492.5 339.454L494.492 381.66C494.526 382.404 494.353 383.139 493.995 383.79L489.751 391.474L484.804 384.225C484.384 383.61 484.145 382.892 484.11 382.151L482.117 339.944Z" fill="#F21D2F"/>
</g>
<path d="M682.502 165.285C680.969 162.175 679.246 159.053 677.36 156L676.399 156.419C678.283 159.439 680.015 162.555 681.587 165.757C691.402 185.763 693.569 208.508 687.854 231.535C685.421 241.339 681.378 249.237 676.056 258.077C673.658 261.968 670.812 265.549 667.581 268.745C661.288 274.715 654.735 279.879 648.34 279.921C645.408 279.916 642.573 278.845 640.34 276.899C636.445 273.715 632.708 269.887 634.461 265.681C634.819 264.828 639.767 260.078 642.727 257.244L643.023 256.962C644.833 255.223 646.234 253.872 646.602 253.437C657.5 240.077 663.374 226.272 665.24 208.974C664.825 209.544 664.416 210.121 664.008 210.702C661.963 226.937 656.181 240.056 645.815 252.767C645.513 253.138 644.194 254.411 642.594 255.946L642.037 256.469C637.467 260.847 633.94 264.278 633.531 265.257C631.236 270.767 636.961 275.454 639.711 277.711C642.461 279.968 645.395 281 648.273 281H648.483C651.775 280.948 655.082 279.633 658.359 277.57C661.712 275.475 665.035 272.589 668.286 269.504C671.585 266.244 674.491 262.591 676.94 258.622C682.308 249.719 686.392 241.721 688.856 231.792C694.622 208.518 692.429 185.522 682.502 165.285ZM657.756 170.245H657.72C656.386 169.271 654.781 168.051 653.068 166.689L651.995 167.16C654.551 169.187 656.544 170.669 657.107 171.099C658.589 172.178 659.898 174.377 660.997 177.069C661.334 176.985 661.666 176.912 662.019 176.844C660.854 173.906 659.422 171.476 657.756 170.245Z" fill="white"/>
<path d="M591.869 361.95L572 518H629.801L595.481 503.532L640 370.889C640 370.889 617.012 331.809 594.506 360.555" fill="black"/>
<path d="M760 467.971L733.369 478.857L725.668 474.233L654.585 358.592L593 356C608.302 382.111 671.656 445.162 671.656 445.162L713.312 484.445L713.517 484.279L726.167 497L760 467.971Z" fill="#F96464"/>
<path d="M617.19 259.106C614.979 257.548 613.071 256.235 612.657 255.861C596.106 241.084 587.912 224.78 585.27 201.359C585.075 199.07 585.075 196.771 585.27 194.482C585.304 194.098 585.337 193.708 585.371 193.314C585.975 186.862 587.699 179.247 590.895 176.616C595.304 172.946 599.5 169.063 603.466 164.983C603.746 164.693 604.02 164.402 604.289 164.111C604.552 163.826 604.804 163.545 605.056 163.26C607.748 160.255 609.841 157.363 610.194 155.355C610.367 154.363 609.97 153.943 609.601 153.761C608.979 153.46 607.53 152.723 597.018 161.069L596.543 161.443C600.427 157.099 604.255 151.981 604.714 148.259C604.714 148.191 604.714 148.124 604.714 148.062C604.758 147.699 604.716 147.333 604.591 146.987C604.542 146.84 604.458 146.706 604.346 146.592C604.234 146.479 604.096 146.391 603.942 146.333C603.461 146.146 602.492 145.778 598.295 149.489L594.119 151.145C594.836 149.541 595.177 148.176 594.908 147.309C594.861 147.103 594.748 146.914 594.585 146.767C594.421 146.62 594.214 146.521 593.99 146.484C592.25 146.229 588.08 150.61 584.363 155.028L583.244 155.474C585.08 151.508 586.809 146.956 586.602 144.309C586.535 143.546 586.233 143.11 585.707 143.022C585.181 142.933 583.977 142.72 578.783 151.493C578.458 152.012 578.139 152.583 577.832 153.123C578.447 150.678 578.694 148.119 577.865 146.318C577.501 145.534 576.981 145.399 576.6 145.409C574.093 145.529 570.013 156.388 568.255 161.438L453.515 207.033L453 207.235L468.543 240.871L556.417 205.943C556.551 217.562 558.895 229.068 563.341 239.931C567.169 249.446 572.537 256.858 579.41 265.064C582.557 268.707 586.165 271.985 590.156 274.828C596.962 279.5 603.936 283.548 610.468 284L610.871 282.962C609.46 282.891 608.063 282.668 606.707 282.297C601.227 280.839 595.602 277.273 590.822 273.992C586.935 271.201 583.425 267.986 580.367 264.416C573.555 256.287 568.244 248.947 564.466 239.558C560.01 228.67 557.686 217.131 557.604 205.486C557.604 205.112 557.604 204.739 557.604 204.36C557.688 196.496 558.898 188.678 561.203 181.111C561.259 180.898 561.326 180.685 561.393 180.477L561.595 179.844C562.214 177.899 562.912 175.968 563.688 174.051C565.188 170.344 566.911 166.717 568.848 163.187L568.882 163.104C568.983 162.798 569.089 162.497 569.19 162.196C569.346 161.755 569.498 161.319 569.654 160.883C572.503 152.894 575.593 146.479 576.667 146.432C576.667 146.432 576.751 146.479 576.863 146.717C578.358 149.961 575.744 156.393 574.574 158.931C574.277 159.585 574.076 159.969 574.065 159.969L574.378 160.109L575.072 160.421C575.201 160.171 575.33 159.928 575.464 159.678C575.716 159.201 575.973 158.723 576.231 158.246C579.925 151.41 584.128 144.641 585.46 144.044C585.487 144.148 585.506 144.254 585.516 144.361C585.751 147.013 583.742 151.96 581.789 156.035C581.559 156.517 581.33 156.984 581.106 157.436C579.651 160.364 578.386 162.564 578.358 162.627L579.309 163.146C581.201 160.644 583.227 158.095 585.164 155.806C585.662 155.214 586.149 154.643 586.63 154.098C589.988 150.231 592.832 147.439 593.761 147.439H593.85C593.872 147.471 593.887 147.506 593.895 147.543C594.142 148.337 593.649 149.832 592.703 151.695C592.474 152.152 592.211 152.629 591.925 153.128C589.409 157.327 586.573 161.355 583.44 165.18L584.324 165.814C584.369 165.767 588.645 160.753 593.207 155.977C595.636 153.439 597.505 151.633 598.938 150.356C599.801 149.57 600.713 148.831 601.67 148.145C603.13 147.107 603.5 147.278 603.522 147.288C603.545 147.299 603.55 147.288 603.578 147.387C603.63 147.634 603.63 147.888 603.578 148.134C603.578 148.264 603.539 148.399 603.517 148.534C602.129 155.915 587.246 169.203 587.095 169.343L587.654 169.862L587.867 170.07L588.427 169.551C598.502 160.727 607.866 153.917 609.041 154.643C609.097 154.813 609.097 154.993 609.041 155.163C608.677 157.239 606.074 160.582 602.755 164.096L601.921 164.973L601.043 165.866C597.304 169.629 593.044 173.382 590.089 175.821C586.49 178.785 584.722 187.049 584.156 193.755C584.123 194.144 584.095 194.534 584.072 194.913C583.892 197.088 583.892 199.273 584.072 201.448C586.748 225.138 595.037 241.634 611.795 256.598C612.259 257.014 614.101 258.296 616.435 259.92L619.558 262.101C619.709 261.774 619.854 261.447 620 261.12L617.19 259.106ZM550.523 169.603C553.703 171.077 556.277 173.273 556.025 174.275C555.857 174.923 555.068 175.313 553.859 175.313C552.644 175.382 551.447 175.626 550.311 176.034C547.171 176.974 543.925 177.939 540.236 173.709L550.523 169.603ZM493.12 192.416C494.715 193.874 495.655 197.171 494.48 199.408C493.724 200.846 491.245 204.079 484.568 202.818C476.06 201.261 474.213 204.417 472.433 207.49C471.819 208.675 471.021 209.772 470.065 210.744C469.806 210.993 469.49 211.186 469.141 211.309C468.792 211.432 468.417 211.482 468.045 211.455C464.849 211.346 460.584 207.386 459.118 205.932L493.12 192.416ZM454.5 207.77L458.043 206.363C459.252 207.609 464.127 212.358 468.017 212.493H468.185C468.683 212.503 469.179 212.419 469.641 212.245C470.103 212.07 470.522 211.811 470.871 211.481C471.906 210.439 472.768 209.26 473.429 207.983C475.164 204.993 476.664 202.408 484.355 203.83C489.527 204.79 493.685 203.311 495.499 199.854C496.109 198.563 496.321 197.14 496.111 195.743C495.902 194.347 495.279 193.031 494.312 191.944L522.807 180.618C522.807 182.284 523.053 186.005 525.376 188.03C526.43 188.938 527.828 189.425 529.266 189.385C529.659 189.382 530.052 189.354 530.441 189.302C533.62 188.881 536.43 187.744 538.686 186.836C540.684 186.026 542.408 185.336 543.074 185.72C543.314 185.855 543.471 186.192 543.538 186.722L488.95 207.536C487.407 207.771 485.942 208.33 484.668 209.171L459.56 218.743L454.5 207.77ZM551.329 184.879C546.757 189.172 546.023 191.918 545.52 193.817C544.96 195.826 544.764 196.657 539.783 197.627C538.104 197.954 535.954 198.146 535.243 197.108C534.124 195.515 536.548 191.596 537.689 190.059L551.329 184.879ZM460.002 219.693L482.306 211.185C481.432 212.165 480.713 213.255 480.174 214.424C478.495 218.001 478.702 221.816 480.638 224.38C483.437 228.122 473.771 236.059 469.075 239.329L460.002 219.693ZM509.698 223.389L472.383 238.218C477.023 234.616 484.596 227.837 481.556 223.793C479.838 221.52 479.704 218.084 481.204 214.84C482.041 212.945 483.423 211.3 485.2 210.085L520.383 196.667C517.585 199.185 512.659 204.074 513.521 206.763C513.829 207.723 514.758 208.32 516.281 208.512C519.476 208.933 523.853 208.429 527.715 207.993C531.577 207.557 535.926 207.043 536.671 207.941C536.811 208.118 536.777 208.414 536.581 208.829C535.708 210.646 529.103 212.903 523.283 214.897C514.736 217.819 509.525 219.76 509.223 222.018C509.191 222.265 509.217 222.515 509.299 222.752C509.381 222.988 509.518 223.205 509.698 223.389ZM556.462 204.806L547.473 208.377C547.91 205.906 549.152 201.577 551.699 201.245C553.685 200.932 555.478 199.953 556.736 198.494C556.565 200.591 556.473 202.695 556.462 204.806ZM556.927 196.423C556.641 196.911 554.833 199.781 551.542 200.217C547.658 200.737 546.505 207.329 546.264 208.855L510.801 222.947C510.443 222.667 510.275 222.402 510.314 222.143C510.549 220.347 517.809 217.861 523.646 215.867C530.262 213.604 536.52 211.466 537.577 209.249C537.765 208.956 537.861 208.62 537.855 208.279C537.849 207.938 537.742 207.606 537.544 207.318C536.492 206 533.066 206.322 527.575 206.955C523.786 207.391 519.488 207.889 516.437 207.474C514.853 207.266 514.657 206.654 514.596 206.436C513.896 204.261 519.309 198.821 522.885 195.899L522.734 195.738L535.865 190.765C534.661 192.644 532.988 195.883 534.27 197.7C534.829 198.52 535.893 198.93 537.421 198.93C538.283 198.915 539.142 198.819 539.984 198.645C545.419 197.607 545.934 196.475 546.572 194.067C547.132 192.027 547.932 188.954 554.167 183.784L559.865 181.609C558.438 186.462 557.456 191.417 556.927 196.423ZM567.807 162.751C565.86 166.304 564.127 169.956 562.619 173.688C561.731 175.889 560.94 178.109 560.246 180.348L544.574 186.317C544.54 186.024 544.439 185.741 544.278 185.486C544.117 185.232 543.899 185.013 543.639 184.843C542.469 184.168 540.684 184.889 538.21 185.881C536.016 186.768 533.284 187.874 530.256 188.274C528.533 188.502 527.139 188.165 526.115 187.272C523.876 185.336 523.876 181.308 523.915 180.166L539.15 174.114C541.602 177.026 543.975 177.861 546.158 177.861C547.69 177.794 549.201 177.503 550.635 177C551.662 176.632 552.74 176.407 553.837 176.33C555.583 176.33 556.798 175.65 557.089 174.508C557.52 172.826 554.777 170.662 551.637 169.146L567.79 162.73C567.79 162.73 567.807 162.746 567.807 162.751ZM582.237 157.638C582.365 157.379 582.494 157.119 582.623 156.849L582.998 156.699L582.237 157.638ZM592.311 155.381L590.929 156.839C591.886 155.381 592.781 153.901 593.492 152.526L596.207 151.451C595.082 152.531 593.794 153.823 592.311 155.381Z" fill="white"/>
<path d="M730.613 85.8263L730.202 85.6883L729.556 85.9623L597.829 142.201C597.842 142.657 597.787 143.127 597.668 143.579L612.99 137.039C609.747 140.922 607.945 144.537 607.504 148.025C607.102 151.187 607.803 153.991 609.189 156.854L594.32 162.867C594.062 163.193 593.806 163.512 593.54 163.837C593.274 164.161 592.98 164.494 592.713 164.825L609.74 157.929C610.211 158.806 610.745 159.695 611.321 160.611C612 161.663 612.174 162.722 611.91 163.856C610.507 169.851 597.516 176.554 592.624 179.083C584.432 183.315 579.225 193.789 578.389 195.571L572.352 198.144C572.233 198.639 572.116 199.127 572 199.609L628.952 175.305L629.95 174.879L635.432 172.542L635.851 172.362L646.735 167.714L647.618 167.342L651.619 165.633L652.511 165.255L733.486 130.716L733.833 130.563L734.319 129.974L761.181 96.1462L730.613 85.8263ZM714.769 93.5953L725.699 88.9152C724.447 90.4021 721.163 94.9717 721.35 101.916C721.419 104.479 721.076 106.197 720.31 107.163C718.74 109.134 715.329 108.083 712.167 106.793C710.998 106.309 710.376 105.473 710.277 104.223C710.005 100.99 713.339 95.5659 714.748 93.5914L714.769 93.5953ZM704.527 97.9617L713.167 94.3097C711.633 96.7437 709.162 101.247 709.412 104.592C709.552 106.305 710.358 107.489 711.823 108.075C713.176 108.664 714.568 109.112 715.989 109.417C717.941 109.781 719.666 109.559 720.814 108.12C721.852 106.818 722.326 104.703 722.24 101.647C722.068 95.256 725.613 90.0348 726.894 88.4172L729.674 87.2288L731.448 107.37L705.033 118.084L705.229 117.876C706.239 116.704 706.586 114.796 706.256 112.205C705.615 107.155 703.47 104.966 702.052 103.519C701.446 102.902 700.817 102.261 700.866 101.835C700.949 101.157 702.177 99.8696 704.527 97.9617ZM701.458 99.2729C700.511 100.273 700.084 101.057 699.999 101.796C699.867 102.975 700.545 103.673 701.482 104.629C702.885 106.061 704.807 108.018 705.394 112.629C705.651 114.649 705.438 116.072 704.77 116.845C702.411 119.574 694.771 115.476 690.389 111.612C687.303 108.887 685.838 112.055 684.536 114.859C683.525 117.044 682.566 119.116 680.836 119.317C677.371 119.724 676.71 112.086 676.587 109.887L701.458 99.2729ZM639.295 125.815L675.726 110.264C675.845 112.625 676.502 119.977 679.916 120.614C680.191 120.662 680.472 120.669 680.756 120.635C682.958 120.365 684.163 117.775 685.216 115.482C686.561 112.584 687.452 110.669 689.84 112.774C692.717 115.351 698.683 119.28 702.594 119.037L676.574 129.579L676.441 129.636L664.242 134.576L664.153 134.607C663.17 134.954 660.19 134.759 658.927 133.041C658.358 132.281 657.951 131.283 657.742 130.14C657.534 128.997 657.531 127.746 657.734 126.5C657.796 126.002 657.992 124.508 657.36 123.934C656.417 123.126 654.521 125.085 651.69 128.052C648.563 131.311 644.667 135.365 642.084 135.196C640.787 135.118 639.846 134.418 639.338 133.133C638.432 130.863 639 127.283 639.295 125.815ZM610.174 156.426C608.75 153.63 608 150.967 608.372 148.038C608.835 144.384 611.055 140.473 615.161 136.09L638.35 126.196C638 128.069 637.61 131.499 638.559 133.913C638.857 134.634 639.262 135.229 639.748 135.661C640.235 136.093 640.792 136.354 641.387 136.426C641.556 136.458 641.725 136.489 641.902 136.522C644.797 136.709 648.846 132.493 652.102 129.101C653.99 127.135 656.344 124.69 656.83 125.107C656.916 125.185 656.979 125.577 656.86 126.473C656.631 127.93 656.641 129.392 656.888 130.726C657.135 132.061 657.612 133.225 658.276 134.116C658.963 135.023 659.795 135.669 660.716 136.013L643.674 142.892L642.762 143.259L641.026 143.962L640.155 144.317L636.939 145.621L635.992 146.009L634.167 146.743L633.316 147.087L631.352 147.884L630.35 148.288L627.153 149.582L626.268 149.941L622.192 151.588L620.725 152.185L610.177 156.454L610.174 156.426ZM579.694 194.999C581.398 191.746 586.125 183.753 592.794 180.305C601.349 175.889 611.323 170.051 612.746 164.087C613.12 162.477 612.89 160.972 612.012 159.605C611.56 158.888 611.135 158.19 610.752 157.499L620.458 153.57L621.115 153.305C620.896 153.543 620.677 153.801 620.461 154.067C619.556 155.218 618.796 156.592 618.695 158.049C618.567 159.909 619.544 161.445 621.599 162.617C622.041 162.862 622.504 163.038 622.984 163.141C623.371 163.224 623.766 163.268 624.166 163.273C625.776 163.204 627.412 162.734 629.007 161.884C629.335 161.721 629.664 161.551 629.975 161.385L630.009 161.391C630.311 161.223 630.615 161.048 630.913 160.879C632.242 160.087 633.541 159.193 634.758 158.366L635.038 158.174C635.541 157.825 636.042 157.484 636.538 157.168C638.009 156.198 639.301 155.46 640.082 155.469C640.277 155.457 640.462 155.525 640.618 155.665C640.87 155.909 640.961 156.477 640.895 157.389C640.89 157.443 640.88 157.496 640.866 157.547C640.688 159.228 639.615 160.714 638.096 162.104C637.776 162.391 637.437 162.661 637.064 162.952C635.752 163.952 634.417 164.852 633.063 165.646C632.638 165.907 632.205 166.167 631.784 166.408L631.249 166.723C629.746 167.605 628.278 168.467 626.977 169.367C626.672 169.575 626.379 169.786 626.095 169.998C624.362 171.314 623.047 172.714 622.548 174.362C622.305 175.172 622.26 176.041 622.421 176.8L579.694 194.999ZM652.275 164.014L651.386 164.393L649.548 165.178C650.297 164.025 650.822 162.599 651.046 161.106C651.208 159.897 651.193 158.693 651 157.581C650.813 156.262 650.841 154.845 651.081 153.441C651.667 149.715 653.377 145.987 654.482 145.194C654.547 145.13 654.618 145.088 654.69 145.069C654.762 145.051 654.833 145.057 654.897 145.088C654.962 145.118 655.019 145.172 655.064 145.245C655.108 145.318 655.139 145.409 655.154 145.51C655.606 147.022 655.227 148.726 654.896 150.222C654.516 151.953 654.079 153.919 655.452 154.644C656.826 155.369 657.694 159.387 658.053 161.542L652.275 164.014ZM658.926 161.175C658.643 159.435 657.676 154.352 655.861 153.394C655.212 153.049 655.299 152.398 655.727 150.452C656.091 148.806 656.544 146.755 655.965 144.818C655.91 144.574 655.82 144.359 655.701 144.185C655.582 144.011 655.436 143.882 655.271 143.807C655.107 143.731 654.929 143.711 654.748 143.747C654.566 143.783 654.386 143.874 654.217 144.015C653.016 144.873 651.576 147.739 650.732 150.975C650.492 151.878 650.307 152.8 650.179 153.728C649.953 155.21 649.94 156.695 650.141 158.081C650.319 158.957 650.341 159.922 650.206 160.891C650.071 161.86 649.783 162.802 649.368 163.635C648.843 164.65 648.177 165.489 647.43 166.076L635.857 171.016L634.838 171.507L629.374 173.84L628.377 174.266L623.336 176.42C623.265 176.168 623.232 175.889 623.239 175.599C623.246 175.309 623.292 175.015 623.375 174.734C623.768 173.447 625.018 172.184 626.643 170.998C626.927 170.786 627.224 170.576 627.53 170.368C628.755 169.542 630.129 168.738 631.48 167.942L632.419 167.39C632.812 167.157 633.205 166.924 633.595 166.684C634.933 165.905 636.252 165.015 637.546 164.021C637.885 163.767 638.202 163.499 638.496 163.219C639.863 161.985 640.924 160.612 641.446 159.009C641.631 158.464 641.747 157.888 641.789 157.311C641.852 156.833 641.85 156.355 641.782 155.91C641.715 155.464 641.584 155.06 641.397 154.722C641.341 154.646 641.281 154.576 641.218 154.512C641.077 154.371 640.916 154.273 640.744 154.219C640.391 154.118 640.018 154.123 639.644 154.232C638.49 154.623 637.35 155.224 636.249 156.02C635.747 156.368 635.185 156.732 634.618 157.123L634.557 157.166C633.279 158.043 631.905 158.984 630.509 159.811C630.208 159.993 629.906 160.161 629.605 160.323C629.532 160.363 629.453 160.41 629.377 160.443C629.041 160.625 628.704 160.794 628.371 160.936C626.783 161.738 625.154 162.075 623.582 161.926C623.153 161.874 622.736 161.755 622.336 161.571L622.018 161.403C620.831 160.733 619.455 159.599 619.564 158.007C619.701 157.061 620.074 156.173 620.603 155.535C620.852 155.183 621.115 154.855 621.389 154.553C621.77 154.127 622.164 153.731 622.568 153.365C622.89 153.072 623.198 152.803 623.473 152.596C623.748 152.388 623.907 152.262 624.073 152.143L626.518 151.157L627.412 150.794L630.898 149.404L631.887 149.004L633.448 148.37L634.309 148.02L636.527 147.122L637.474 146.734L640.203 145.631L641.074 145.277L643.084 144.462L643.992 144.094L646.641 143.024L648.646 142.214L675.288 131.407C673.408 134.456 670.174 140.654 671.412 145.156C672.826 150.37 667.126 157.651 667.069 157.722L658.926 161.175ZM705.551 141.276C704.656 140.095 699.994 133.561 702.263 128.992C703.877 125.757 708.153 124.188 710.621 124.295C711.852 124.354 712.277 124.794 712.327 125.014C712.378 125.235 712.26 125.376 712.185 125.498C711.325 127.085 710.355 129.237 710.475 131.619C710.583 133.781 711.563 135.841 713.466 137.896L705.551 141.276ZM714.655 137.431C712.536 135.356 711.476 133.377 711.355 131.375C711.284 129.88 711.739 128.312 712.828 126.291C712.991 126.039 713.109 125.733 713.17 125.41C713.23 125.086 713.23 124.758 713.169 124.464C712.911 123.362 711.739 123.082 710.812 123.038C708.235 122.925 703.534 124.544 701.617 128.375C699.124 133.351 702.943 139.599 704.49 141.832L668.754 157.085C670.506 154.419 673.454 149.046 672.235 144.561C670.985 139.942 675.655 132.604 676.828 130.865L731.564 108.623L731.833 111.658C731.19 112.762 728.348 117.516 723.194 121.193C721.531 122.372 720.483 124.006 720.028 126.043C719.295 129.456 720.597 133.025 721.306 134.592L714.655 137.431ZM733.402 129.429L722.259 134.171C721.762 133.133 720.182 129.485 720.877 126.249C721.221 124.667 722.09 123.36 723.466 122.379C726.614 120.211 729.517 117.097 731.972 113.255L732.023 113.169L733.402 129.408L733.402 129.429ZM734.238 128.49L730.738 87.2642L752.17 94.4517L753.386 104.342L734.238 128.49Z" fill="white"/>
<path d="M672.624 574.114C671.022 577.772 669.343 581.643 667.653 585.64C667.21 586.695 666.773 587.76 666.335 588.834C664.378 593.615 662.48 598.561 660.796 603.584C660.665 603.961 660.544 604.339 660.424 604.697C660.526 602.903 660.572 601.1 660.561 599.296C660.522 599.374 660.49 599.461 660.451 599.529C660.229 599.943 659.989 600.328 659.735 600.68L659.669 600.777L659.735 600.555L666.598 584.924C667.019 583.957 667.44 582.921 667.866 581.924C669.184 578.827 670.497 575.827 671.754 572.943C678.404 557.729 684.151 544.586 682.691 536.32C682.095 532.894 680.263 530.349 677.091 528.578C675.057 527.486 672.939 526.961 670.814 527.02C668.736 527.041 666.663 527.407 664.624 528.113C664.268 528.239 663.913 528.365 663.53 528.51C657.865 530.717 651.204 535.546 643.959 544.15C637.364 551.98 632.612 560.748 632.41 565.442C632.142 571.549 631.705 572.265 630.223 573.775C628.741 575.285 626.253 577.85 621.375 591.06C619.253 596.799 618.641 602.674 619.505 608.597C621.758 623.657 633.083 634.08 633.176 634.186H633.219C633.465 634.467 633.706 634.738 633.947 634.99C633.793 635.551 633.629 636.132 633.465 636.741L632.651 635.841C630.467 633.745 628.398 631.292 626.471 628.515C623.491 624.237 619.674 617.385 618.428 609.042C617.46 602.597 618.138 596.17 620.434 589.947C625.46 576.398 628.183 573.552 629.648 572.052C630.808 570.862 631.054 570.61 631.289 565.278C631.524 559.945 636.249 550.886 643.319 542.495C648.962 535.788 656.082 529.526 663.087 526.642C663.448 526.487 663.803 526.352 664.181 526.226C668.829 524.532 673.395 524.406 677.403 526.691C680.936 528.704 682.997 531.665 683.708 535.74C685.365 544.953 679.743 557.825 672.624 574.114Z" fill="#F96464"/>
<path d="M656.893 222.331C657.015 221.669 657.11 221.012 657.174 220.36C657.174 220.288 657.174 220.21 657.174 220.138C657.272 219.179 657.317 218.215 657.306 217.252C657.269 217.293 657.237 217.34 657.2 217.376C656.985 217.597 656.753 217.803 656.507 217.991L656.443 218.043C656.047 218.356 655.615 218.624 655.157 218.84H655.12C654.872 218.967 654.615 219.078 654.352 219.171C654.049 219.281 653.74 219.372 653.425 219.445H653.383C650.413 220.107 646.999 219.134 644.479 216.579C644.288 216.393 644.119 216.191 643.949 216C640.852 222.838 636.469 229.376 630.915 229.965C631.304 231.442 631.891 232.861 632.662 234.186L631.604 236.296C631.455 236.596 631.297 236.907 631.138 237.232C628.538 242.488 624.467 251.012 619.93 261.579C619.793 261.905 619.655 262.23 619.512 262.556C622.493 264.77 625.653 267.175 625.992 267.77C628.258 271.706 624.827 275.875 621.169 279.429C618.273 282.237 614.986 283.535 611.19 283.344L610.809 284.378C601.989 308.171 593.842 336.314 593 360.784C593 360.784 618.575 386.408 652.054 360.195C652.054 360.195 650.466 311.021 646.824 281.058C646.776 280.701 646.734 280.344 646.686 279.987C645.548 270.92 644.203 263.746 642.647 260.461C642.118 259.339 641.625 258.294 641.18 257.312C641.022 256.965 640.868 256.634 640.725 256.308C637.168 248.291 636.638 244.825 638.226 240.02C638.926 240.133 639.635 240.191 640.344 240.191C641.956 240.196 643.551 239.868 645.024 239.229C645.863 238.862 646.66 238.41 647.401 237.879C649.035 236.832 650.482 235.53 651.684 234.026C652.682 232.796 653.549 231.47 654.272 230.069C654.289 230.044 654.303 230.018 654.315 229.991C654.41 229.81 654.5 229.629 654.59 229.474C655.596 228.621 659 226.345 659 226.345C659 226.345 657.984 224.446 656.893 222.331ZM654.32 229.464V229.691C654.32 229.722 654.32 229.665 654.278 229.546C654.278 229.407 654.23 229.184 654.198 228.905L654.325 228.631L654.32 229.464Z" fill="black"/>
<path d="M369.281 68.366C371.602 69.155 374.85 70.6486 377.844 72.8284C381.072 75.1767 383.617 78.0242 384.737 81.2586L378.704 108.108C376.821 104.737 374.065 102.115 371.412 100.184C368.548 98.1041 365.523 96.612 363.138 95.7026L369.281 68.366ZM387.102 83.3018C389.075 82.74 391.864 84.502 394.926 87.5887C397.767 90.4517 400.52 94.1437 402.384 96.9713L396.241 124.308C394.287 121.468 391.687 118.096 388.97 115.36C386.452 112.819 383.608 110.598 381.068 110.151L387.102 83.3018ZM386.479 79.7898C384.674 75.4438 381.376 72.179 378.222 69.8809C374.547 67.209 370.613 65.5167 368.094 64.7644C367.863 64.6953 367.648 64.7204 367.475 64.8365C367.302 64.9526 367.179 65.1549 367.119 65.4192L360.31 95.7228C360.258 95.9533 360.257 96.223 360.306 96.5072C360.355 96.7914 360.454 97.0809 360.592 97.3494C360.73 97.6179 360.904 97.8566 361.098 98.0438C361.291 98.231 361.498 98.3606 361.7 98.4208C364.033 99.121 367.691 100.699 371.033 103.13C374.452 105.618 377.103 108.662 378.11 112.131C378.185 112.388 378.296 112.639 378.436 112.866C378.575 113.093 378.74 113.291 378.917 113.444C379.094 113.597 379.279 113.701 379.459 113.75C379.638 113.799 379.808 113.79 379.955 113.725C381.94 112.842 384.875 114.624 388.116 117.892C391.288 121.091 394.353 125.321 396.188 128.223C396.347 128.474 396.535 128.687 396.736 128.84C396.937 128.994 397.145 129.085 397.339 129.104C397.533 129.123 397.709 129.07 397.849 128.949C397.989 128.829 398.09 128.645 398.142 128.414L404.951 98.1109C405.01 97.8465 405.003 97.5313 404.93 97.2029C404.857 96.8744 404.722 96.5467 404.54 96.2588C402.557 93.1208 399.265 88.5689 395.78 85.054C392.788 82.0369 389.332 79.469 386.479 79.7898Z" fill="#F21D2F"/>
<path d="M338.903 330.11C340.755 327.665 343.627 324.579 346.853 322.419C350.329 320.091 353.787 319.107 356.735 320.37L372.723 351.455C369.255 351.101 365.842 352.562 362.985 354.475C359.903 356.544 357.155 359.333 355.181 361.76L338.903 330.11ZM359.514 318.941C360.201 315.808 363.012 313.568 366.928 312.094C370.561 310.726 374.742 310.185 377.808 310.1L394.087 341.75C390.962 341.945 387.096 342.554 383.624 343.864C380.401 345.074 377.229 346.996 375.502 350.026L359.514 318.941ZM356.641 316.772C352.514 315.478 348.339 317.117 344.94 319.39C340.984 322.042 337.589 325.881 335.653 328.623C335.476 328.875 335.375 329.185 335.363 329.517C335.351 329.848 335.428 330.187 335.586 330.493L353.631 365.578C353.768 365.845 353.962 366.078 354.193 366.255C354.425 366.431 354.688 366.547 354.958 366.591C355.228 366.635 355.496 366.605 355.738 366.506C355.979 366.406 356.187 366.238 356.342 366.019C358.137 363.483 361.297 359.917 364.895 357.506C368.578 355.039 372.236 354.081 375.291 355.696C375.517 355.816 375.759 355.881 376 355.888C376.24 355.895 376.473 355.843 376.681 355.736C376.89 355.629 377.067 355.469 377.202 355.27C377.336 355.07 377.424 354.835 377.458 354.582C377.921 351.157 380.828 348.739 384.973 347.179C389.031 345.653 393.772 345.155 396.876 345.171C397.145 345.173 397.402 345.101 397.624 344.962C397.845 344.824 398.025 344.623 398.146 344.378C398.268 344.133 398.326 343.852 398.317 343.56C398.308 343.269 398.232 342.976 398.095 342.709L380.049 307.624C379.892 307.318 379.661 307.058 379.384 306.875C379.107 306.692 378.796 306.594 378.489 306.592C375.133 306.572 370.035 307.1 365.577 308.776C361.749 310.216 357.989 312.663 356.641 316.772Z" fill="#F21D2F"/>
<path opacity="0.7" d="M183 169L332.997 170.007" stroke="#F21D2F" stroke-width="5" stroke-linecap="round"/>
<path d="M139 221L288.997 222.007" stroke="#F21D2F" stroke-width="7" stroke-linecap="round"/>
<path opacity="0.4" d="M78.0029 266.993L228 268" stroke="#F21D2F" stroke-width="5" stroke-linecap="round"/>
<path opacity="0.4" d="M677 509L826.997 510.007" stroke="#F21D2F" stroke-width="5" stroke-linecap="round"/>
<path d="M134 345L283.997 346.007" stroke="#F21D2F" stroke-width="14" stroke-linecap="round"/>
<path d="M520 582L669.997 583.007" stroke="#F21D2F" stroke-width="14" stroke-linecap="round"/>
<path d="M37 433L186.997 434.007" stroke="#F21D2F" stroke-width="5" stroke-linecap="round"/>
<path opacity="0.2" d="M5 511L154.997 512.007" stroke="#F21D2F" stroke-width="10" stroke-linecap="round"/>
<path d="M153 585L302.997 586.007" stroke="#F21D2F" stroke-width="5" stroke-linecap="round"/>
<path d="M86 116L235.997 117.007" stroke="#F21D2F" stroke-width="8" stroke-linecap="round"/>
<path d="M588 50L737.997 51.0067" stroke="#F21D2F" stroke-width="8" stroke-linecap="round"/>
<path d="M164 73L313.997 74.0067" stroke="#F21D2F" stroke-width="5" stroke-linecap="round"/>
<path d="M401 294L550.997 295.007" stroke="#F21D2F" stroke-width="5" stroke-linecap="round"/>
<path d="M706 362L855.997 363.007" stroke="#F21D2F" stroke-width="5" stroke-linecap="round"/>
<path d="M289 14L438.997 15.0067" stroke="#F21D2F" stroke-width="5" stroke-linecap="round"/>
<path d="M289 14L438.997 15.0067" stroke="#F21D2F" stroke-width="5" stroke-linecap="round"/>
<path d="M711 202L860.997 203.007" stroke="#F21D2F" stroke-width="5" stroke-linecap="round"/>
<defs>
<clipPath id="clip0_191_81">
<rect width="50" height="50" fill="white" transform="translate(451 459)"/>
</clipPath>
<clipPath id="clip1_191_81">
<rect width="60" height="60" fill="white" transform="translate(376 153.45) rotate(-16.9074)"/>
</clipPath>
<clipPath id="clip2_191_81">
<rect width="60" height="60" fill="white" transform="translate(244 434.45) rotate(-16.9074)"/>
</clipPath>
<clipPath id="clip3_191_81">
<rect width="60" height="60" fill="white" transform="translate(446 364.38) rotate(-47.7024)"/>
</clipPath>
</defs>
</svg>
