<svg width="92" height="84" viewBox="0 0 92 84" fill="none" xmlns="http://www.w3.org/2000/svg">
<path d="M91.8337 37.6665C91.8337 35.4564 90.9557 33.3368 89.3929 31.774C87.8301 30.2111 85.7105 29.3332 83.5003 29.3332H57.167L61.167 10.2915C61.2503 9.87484 61.292 9.4165 61.292 8.95817C61.292 7.24984 60.5837 5.6665 59.4587 4.5415L55.042 0.166504L27.6253 27.5832C26.0837 29.1248 25.167 31.2082 25.167 33.4998V75.1665C25.167 77.3766 26.045 79.4963 27.6078 81.0591C29.1706 82.6219 31.2902 83.4998 33.5003 83.4998H71.0003C74.4587 83.4998 77.417 81.4165 78.667 78.4165L91.2503 49.0415C91.6253 48.0832 91.8337 47.0832 91.8337 45.9998V37.6665ZM0.166992 83.4998H16.8337V33.4998H0.166992V83.4998Z" fill="#0FA958" fill-opacity="0.5"/>
</svg>
