<svg width="438" height="423" viewBox="0 0 438 423" fill="none" xmlns="http://www.w3.org/2000/svg">
<path d="M353.428 360.735H82.7445V84.5549H353.428V360.735Z" fill="#363636"/>
<path d="M2.39189 423H435.61C436.929 423 438 421.903 438 420.55C438 419.197 436.929 418.1 435.61 418.1H2.39189C1.07088 418.1 0 419.197 0 420.55C0 421.903 1.07088 423 2.39189 423Z" fill="#363636"/>
<path d="M119.13 398.687C105.76 398.687 94.9225 387.587 94.9225 373.892V340.092H143.337V373.892C143.337 387.587 132.499 398.687 119.13 398.687Z" fill="#F21D2F"/>
<path d="M94.9223 418.1H92.2392V365.636H94.9223V418.1Z" fill="#0E0E0E"/>
<path d="M146.02 418.1H143.336V365.636H146.02V418.1Z" fill="#0E0E0E"/>
<path d="M125.488 418.1H122.805V365.636H125.488V418.1Z" fill="#0E0E0E"/>
<path d="M92.2391 401.436V398.688H143.461V401.436H92.2391Z" fill="#0E0E0E"/>
<path d="M156.83 284.25C159.752 288.561 153.871 292.276 152.955 298.25C152.039 304.223 158.721 307.586 151.635 315.408C147.27 320.225 143.586 313.826 140.039 321.21C136.492 328.594 139.287 329.839 135.299 332.495C128.348 337.127 117.713 326.891 121.29 319.515C124.867 312.139 132.102 312.8 128.754 306.731C125.407 300.662 124.162 298.048 129.934 294.93C137.078 291.071 143.374 294.616 143.949 288.969C144.523 283.323 152.965 278.549 156.83 284.25Z" fill="#FFCA59"/>
<path d="M126.292 339.753L125.089 339.509C130.722 310.349 149.395 289.929 149.583 289.727L150.473 290.591C150.287 290.792 131.853 310.961 126.292 339.753Z" fill="#0E0E0E"/>
<path d="M63.2041 273.477C60.1837 279.781 68.6954 283.486 71.0801 291.204C73.4648 298.92 64.6836 301.646 75.5965 310.539C82.3179 316.018 83.7247 312.593 86.1957 324.844C88.3713 335.631 96.373 325.367 102.357 331.698C110.078 339.866 122.142 321.938 115.961 312.915C109.78 303.892 102.567 306.224 105.805 297.505C109.043 288.784 105.181 282.215 96.9305 279.277C86.7186 275.642 83.0458 284.421 81.1766 277.067C79.3075 269.714 67.1988 265.136 63.2041 273.477Z" fill="#ED5A24"/>
<path d="M114.514 340.635C101.495 303.66 73.1476 280.787 72.8631 280.56L73.87 279.231C74.1585 279.462 102.879 302.635 116.058 340.064L114.514 340.635Z" fill="#0E0E0E"/>
<path d="M253.525 132.231C253.525 190.797 207.172 238.273 149.993 238.273C92.8133 238.273 46.4603 190.797 46.4603 132.231C46.4603 73.6649 92.8133 26.1877 149.993 26.1877C207.172 26.1877 253.525 73.6649 253.525 132.231Z" stroke="#F21D2F" stroke-width="8.731" stroke-miterlimit="10" stroke-dasharray="13.1 13.1"/>
<path d="M176.206 125.27C176.315 124.442 176.392 123.604 176.392 122.746C176.392 112.424 168.221 104.057 158.144 104.057C150.584 104.057 144.098 108.766 141.33 115.476C139.077 113.422 136.117 112.163 132.863 112.163C125.821 112.163 120.112 118.01 120.112 125.223H117.733C110.962 125.223 105.422 130.897 105.422 137.832V137.832C105.422 144.767 110.962 150.442 117.733 150.442H175.297C182.068 150.442 187.608 144.767 187.608 137.832V137.832C187.608 131.211 182.555 125.752 176.206 125.27Z" fill="white"/>
<path d="M187.528 262.44H110.458C107.864 262.44 105.761 260.286 105.761 257.63V191.403C105.761 188.747 107.864 186.593 110.458 186.593H187.528C190.121 186.593 192.224 188.747 192.224 191.403V257.63C192.224 260.286 190.121 262.44 187.528 262.44Z" fill="#6D0B13"/>
<path d="M175.17 232.391H123.045C121.34 232.391 119.944 230.96 119.944 229.214C119.944 227.467 121.34 226.038 123.045 226.038H175.17C176.874 226.038 178.271 227.467 178.271 229.214C178.271 230.96 176.874 232.391 175.17 232.391Z" fill="white"/>
<path d="M175.17 242.621H123.045C121.34 242.621 119.944 241.192 119.944 239.444C119.944 237.697 121.34 236.268 123.045 236.268H175.17C176.874 236.268 178.271 237.697 178.271 239.444C178.271 241.192 176.874 242.621 175.17 242.621Z" fill="white"/>
<path d="M132.778 239.727C132.778 240.343 132.29 240.843 131.686 240.843C131.083 240.843 130.595 240.343 130.595 239.727C130.595 239.108 131.083 238.608 131.686 238.608C132.29 238.608 132.778 239.108 132.778 239.727Z" fill="#363636"/>
<path d="M136.521 239.727C136.521 240.343 136.032 240.843 135.429 240.843C134.826 240.843 134.337 240.343 134.337 239.727C134.337 239.108 134.826 238.608 135.429 238.608C136.032 238.608 136.521 239.108 136.521 239.727Z" fill="#363636"/>
<path d="M140.266 239.727C140.266 240.343 139.777 240.843 139.174 240.843C138.571 240.843 138.082 240.343 138.082 239.727C138.082 239.108 138.571 238.608 139.174 238.608C139.777 238.608 140.266 239.108 140.266 239.727Z" fill="#363636"/>
<path d="M144.008 239.727C144.008 240.343 143.519 240.843 142.916 240.843C142.313 240.843 141.824 240.343 141.824 239.727C141.824 239.108 142.313 238.608 142.916 238.608C143.519 238.608 144.008 239.108 144.008 239.727Z" fill="#363636"/>
<path d="M147.753 239.727C147.753 240.343 147.264 240.843 146.661 240.843C146.058 240.843 145.569 240.343 145.569 239.727C145.569 239.108 146.058 238.608 146.661 238.608C147.264 238.608 147.753 239.108 147.753 239.727Z" fill="#363636"/>
<path d="M151.496 239.727C151.496 240.343 151.007 240.843 150.404 240.843C149.8 240.843 149.312 240.343 149.312 239.727C149.312 239.108 149.8 238.608 150.404 238.608C151.007 238.608 151.496 239.108 151.496 239.727Z" fill="#363636"/>
<path d="M155.239 239.727C155.239 240.343 154.75 240.843 154.147 240.843C153.544 240.843 153.055 240.343 153.055 239.727C153.055 239.108 153.544 238.608 154.147 238.608C154.75 238.608 155.239 239.108 155.239 239.727Z" fill="#363636"/>
<path d="M158.983 239.727C158.983 240.343 158.494 240.843 157.891 240.843C157.288 240.843 156.799 240.343 156.799 239.727C156.799 239.108 157.288 238.608 157.891 238.608C158.494 238.608 158.983 239.108 158.983 239.727Z" fill="#363636"/>
<path d="M162.726 239.727C162.726 240.343 162.237 240.843 161.634 240.843C161.031 240.843 160.543 240.343 160.543 239.727C160.543 239.108 161.031 238.608 161.634 238.608C162.237 238.608 162.726 239.108 162.726 239.727Z" fill="#363636"/>
<path d="M161.106 204.876C161.106 211.655 155.742 217.149 149.125 217.149C142.507 217.149 137.143 211.655 137.143 204.876C137.143 198.099 142.507 192.604 149.125 192.604C155.742 192.604 161.106 198.099 161.106 204.876Z" fill="white"/>
<path d="M149.143 204.384C150.312 204.384 151.392 203.799 152.082 202.908C152.592 202.262 152.892 201.433 152.892 200.511C152.892 198.391 151.212 196.64 149.143 196.64C147.043 196.64 145.363 198.391 145.363 200.511C145.363 201.433 145.662 202.262 146.173 202.908C146.863 203.799 147.942 204.384 149.143 204.384Z" fill="#363636"/>
<path d="M155.783 211.281C155.783 213.725 142.463 213.725 142.463 211.281L142.468 208.435C142.994 204.542 154.7 204.377 155.785 208.435L155.783 211.281Z" fill="#363636"/>
<path d="M124.618 239.993V240.643C124.618 240.762 124.52 240.844 124.406 240.844C124.291 240.844 124.21 240.762 124.21 240.643V239.993C124.096 239.927 124.015 239.809 124.015 239.659C124.015 239.443 124.194 239.258 124.406 239.258C124.618 239.258 124.797 239.443 124.797 239.659C124.797 239.809 124.715 239.927 124.618 239.993ZM123.625 238.688C123.625 238.256 123.885 237.863 124.41 237.863C124.935 237.863 125.204 238.232 125.204 238.688V238.858H123.625V238.688ZM125.63 238.858V238.688C125.63 237.999 125.083 237.439 124.41 237.439C123.737 237.439 123.19 237.999 123.19 238.688V238.858H123.004V241.112C123.004 241.5 125.823 241.5 125.823 241.112V238.858H125.63Z" fill="#363636"/>
<path d="M124.414 228.982C124.661 228.982 124.889 228.859 125.034 228.671C125.142 228.535 125.205 228.361 125.205 228.165C125.205 227.719 124.851 227.348 124.414 227.348C123.971 227.348 123.616 227.719 123.616 228.165C123.616 228.361 123.68 228.535 123.787 228.671C123.933 228.859 124.16 228.982 124.414 228.982Z" fill="#363636"/>
<path d="M125.814 230.439C125.814 230.954 122.989 230.954 122.989 230.439L123.004 229.839C123.115 229.016 125.585 228.982 125.814 229.839L125.814 230.439Z" fill="#363636"/>
<path d="M142.672 230.145H131.249C130.749 230.145 130.339 229.727 130.339 229.214C130.339 228.7 130.749 228.282 131.249 228.282H142.672C143.172 228.282 143.582 228.7 143.582 229.214C143.582 229.727 143.172 230.145 142.672 230.145Z" fill="#363636"/>
<path d="M157.736 230.145H146.313C145.813 230.145 145.403 229.727 145.403 229.214C145.403 228.7 145.813 228.282 146.313 228.282H157.736C158.236 228.282 158.646 228.7 158.646 229.214C158.646 229.727 158.236 230.145 157.736 230.145Z" fill="#363636"/>
<path d="M152.927 252.533H142.576C141.109 252.533 139.919 251.314 139.919 249.813C139.919 248.309 141.109 247.09 142.576 247.09H152.927C154.395 247.09 155.585 248.309 155.585 249.813C155.585 251.314 154.395 252.533 152.927 252.533Z" fill="#363636"/>
<path d="M17.4438 141.736C17.4442 141.648 17.4444 141.609 17.4444 141.601C17.4442 141.617 17.4438 141.736 17.4438 141.736Z" fill="#D9FFFF"/>
<path d="M17.4438 141.736C17.4442 141.648 17.4444 141.609 17.4444 141.601C17.4442 141.617 17.4438 141.736 17.4438 141.736Z" fill="#D9FFFF"/>
<path d="M68.3954 141.969C68.3954 141.969 68.3957 141.85 68.3959 141.834C68.3959 141.842 68.3957 141.881 68.3954 141.969Z" fill="#D9FFFF"/>
<path d="M68.3954 141.969C68.3954 141.969 68.3957 141.85 68.3959 141.834C68.3959 141.842 68.3957 141.881 68.3954 141.969Z" fill="#D9FFFF"/>
<path d="M43.0244 127.636C37.0869 134.151 27.6126 139.489 17.474 141.764C17.4711 142.458 17.4543 146.3 17.3771 164.011C17.2739 187.637 39.2259 199.182 42.634 200.953C45.9363 199.396 68.1654 187.869 68.2684 164.244C68.3456 146.533 68.3624 142.691 68.3655 141.997C58.2475 139.63 48.9049 134.205 43.0244 127.636Z" fill="#363636"/>
<path d="M42.9624 131.906C37.148 137.369 29.0928 141.663 20.235 144.003L20.1476 164.02C20.1075 173.179 23.6602 181.465 30.7069 188.649C35.3371 193.369 40.2053 196.297 42.6753 197.612C42.7816 197.558 42.8983 197.494 43.013 197.434V131.952C42.9962 131.937 42.9786 131.921 42.9624 131.906Z" fill="#F21D2F"/>
<path d="M43.0148 131.953V197.434C45.5836 196.065 50.2523 193.237 54.7236 188.76C61.8324 181.64 65.4574 173.388 65.497 164.228L65.5846 144.211C56.7727 141.797 48.7771 137.446 43.0148 131.953Z" fill="#F21D2F"/>
<path d="M44.0543 169.039V173.435C44.0543 174.019 43.5894 174.506 43.0178 174.506C42.4368 174.506 41.9717 174.019 41.9717 173.435V169.029C41.0902 168.622 40.4704 167.709 40.4704 166.657C40.4704 165.219 41.6132 164.058 43.0178 164.058C44.4223 164.058 45.5559 165.219 45.5559 166.657C45.5559 167.719 44.9454 168.632 44.0543 169.039ZM32.721 160.804V176.311C32.721 178.038 53.3053 178.038 53.3053 176.311V160.804H32.721Z" fill="#363636"/>
<path d="M51.505 159.699H49.4213V158.655C49.4213 155.037 46.5473 152.094 43.0156 152.094C39.483 152.094 36.6092 155.037 36.6092 158.655V159.699H34.5255V158.655C34.5255 153.86 38.334 149.959 43.0156 149.959C47.6963 149.959 51.505 153.86 51.505 158.655V159.699Z" fill="#363636"/>
<path d="M195.384 47.5384H158.201V0H195.384V47.5384Z" fill="#F21D2F"/>
<path d="M200.207 52.4476H163.023V4.90906H200.207V52.4476Z" fill="white"/>
<path d="M200.207 52.4476H163.023V4.90906H200.207V52.4476Z" stroke="#F21D2F" stroke-width="6.341" stroke-miterlimit="10"/>
<path d="M206.329 57.2671H169.147V9.72852H206.329V57.2671Z" fill="white"/>
<path d="M206.329 57.2671H169.147V9.72852H206.329V57.2671Z" stroke="#F21D2F" stroke-width="6.341" stroke-miterlimit="10"/>
<path d="M210.785 62.176H173.603V14.6375H210.785V62.176Z" fill="#F21D2F"/>
<path d="M205.001 25.5347H185.768V22.4429H205.001V25.5347Z" fill="#363636"/>
<path d="M204.999 32.7982H180.078V29.7064H204.999V32.7982Z" fill="#363636"/>
<path d="M204.999 40.0619H180.078V36.9701H204.999V40.0619Z" fill="#363636"/>
<path d="M204.999 47.3256H180.078V44.2338H204.999V47.3256Z" fill="#363636"/>
<path d="M204.999 54.5903H180.078V51.4985H204.999V54.5903Z" fill="#363636"/>
<path d="M89.7608 51.744C89.7608 59.173 83.881 65.1954 76.6279 65.1954C69.3749 65.1954 63.495 59.173 63.495 51.744C63.495 44.3151 69.3749 38.2926 76.6279 38.2926C83.881 38.2926 89.7608 44.3151 89.7608 51.744Z" fill="#363636"/>
<path d="M69.8511 63.2626C63.6342 59.4226 61.6366 51.1612 65.3857 44.7935C69.1289 38.4358 77.1946 36.3902 83.4116 40.2302C89.6188 44.0641 91.6159 52.3251 87.8729 58.683C84.1239 65.0506 76.0583 67.0964 69.8511 63.2626ZM97.3479 64.5352C99.0507 61.6427 100.115 58.5171 100.566 55.3625L101.545 55.5094L103.476 55.8002L103.501 55.8024C104.022 52.1932 103.845 48.543 102.994 45.0553L100.12 45.7845C99.3489 42.629 97.9906 39.6225 96.0544 36.9729L98.4365 35.1592C96.3985 32.3253 93.7825 29.8481 90.6596 27.9192L89.1252 30.5255C86.2912 28.7749 83.2496 27.6907 80.1699 27.2289L80.5992 24.2226C77.0754 23.6884 73.5058 23.8801 70.1067 24.7424L70.8184 27.6859C67.7377 28.4757 64.8026 29.8668 62.2153 31.8499L60.4448 29.41C57.6781 31.4974 55.2592 34.1769 53.3758 37.3756L55.9207 38.9474C54.2118 41.85 53.1528 44.9652 52.702 48.1199L50.6257 47.8066L49.7766 47.6861L49.7671 47.6803C49.2457 51.2891 49.4327 54.9456 50.2744 58.4271L53.1485 57.6981C53.9195 60.8535 55.2872 63.8659 57.2234 66.5157L54.8412 68.3293C56.8794 71.1631 59.4859 73.6346 62.6086 75.5635L64.1432 72.9573C66.9769 74.7075 70.0284 75.7981 73.1081 76.2599L72.771 78.5959L72.6788 79.266C76.2025 79.8 79.7624 79.6024 83.1615 78.7402L82.4502 75.7965C85.5307 75.0069 88.4717 73.606 91.0684 71.6287L92.8388 74.0686C95.5962 71.9751 98.0089 69.3055 99.8924 66.107L97.3479 64.5352Z" fill="#6D0B13"/>
<path d="M41.3932 75.8559C38.2056 78.0164 33.9185 77.1225 31.8092 73.8576C29.703 70.5977 30.576 66.2069 33.7636 64.0464C36.9463 61.8891 41.2331 62.783 43.3391 66.0429C45.4485 69.3079 44.5759 73.6989 41.3932 75.8559ZM48.1974 62.7502C47.2392 61.267 46.0284 60.0423 44.6658 59.11L44.955 58.6666L45.5266 57.7913L45.5333 57.7795C43.9752 56.7103 42.2403 55.9717 40.4286 55.5984L40.1179 57.1629C38.4786 56.8256 36.7759 56.8078 35.108 57.152L34.8044 55.582C33.028 55.9343 31.2867 56.6489 29.6854 57.7339L30.5488 59.0703C29.0957 60.0551 27.905 61.2916 26.9946 62.6875L25.6958 61.799C24.6515 63.3947 23.934 65.1767 23.5662 67.0273L25.0938 67.3457C24.7643 69.0248 24.7469 70.7688 25.0832 72.4771L23.5502 72.7881C23.8943 74.6076 24.5917 76.3911 25.6513 78.0312L26.9561 77.1469C27.9175 78.6351 29.1246 79.8548 30.4874 80.7873L29.8728 81.7279L29.6251 82.1142L29.6202 82.1176C31.178 83.1868 32.9178 83.922 34.7246 84.2989L35.0355 82.7341C36.6747 83.0715 38.3824 83.0861 40.0501 82.7416L40.354 84.3119C42.1303 83.9594 43.8666 83.2484 45.468 82.1632L44.6045 80.8268C46.0576 79.842 47.2533 78.6021 48.1638 77.2064L49.1721 77.8985L49.4623 78.0949C50.5066 76.499 51.2193 74.7204 51.587 72.87L50.0595 72.5514C50.389 70.8725 50.403 69.1233 50.0718 67.4118L51.6046 67.1005C51.2558 65.2845 50.5615 63.506 49.502 61.8661L48.1974 62.7502Z" fill="#6D0B13"/>
<path d="M262.984 90.0856H231.057C230.384 90.0856 229.839 89.5275 229.839 88.839V70.2846C229.839 69.5961 230.384 69.0381 231.057 69.0381H262.984C263.656 69.0381 264.201 69.5961 264.201 70.2846V88.839C264.201 89.5275 263.656 90.0856 262.984 90.0856Z" fill="#6D0B13"/>
<path d="M264.201 76.6444H229.839V73.0126H264.201V76.6444Z" fill="#363636"/>
<path d="M237.71 86.0472H232.659C232.336 86.0472 232.076 86.3139 232.076 86.6427C232.076 86.9718 232.336 87.2384 232.659 87.2384H237.71C238.031 87.2384 238.293 86.9718 238.293 86.6427C238.293 86.3139 238.031 86.0472 237.71 86.0472Z" fill="#363636"/>
<path d="M245.481 86.0472H240.427C240.107 86.0472 239.847 86.3139 239.847 86.6427C239.847 86.9718 240.107 87.2384 240.427 87.2384H245.481C245.801 87.2384 246.061 86.9718 246.061 86.6427C246.061 86.3139 245.801 86.0472 245.481 86.0472Z" fill="#363636"/>
<path d="M253.25 86.0472H248.196C247.876 86.0472 247.616 86.3139 247.616 86.6427C247.616 86.9718 247.876 87.2384 248.196 87.2384H253.25C253.57 87.2384 253.83 86.9718 253.83 86.6427C253.83 86.3139 253.57 86.0472 253.25 86.0472Z" fill="#363636"/>
<path d="M261.018 86.0472H255.967C255.646 86.0472 255.384 86.3139 255.384 86.6427C255.384 86.9718 255.646 87.2384 255.967 87.2384H261.018C261.341 87.2384 261.601 86.9718 261.601 86.6427C261.601 86.3139 261.341 86.0472 261.018 86.0472Z" fill="#363636"/>
<path d="M232.427 70.1057C232.071 70.1057 231.784 70.3999 231.784 70.763V70.994C231.784 71.3569 232.071 71.6513 232.427 71.6513C232.78 71.6513 233.068 71.3569 233.068 70.994V70.763C233.068 70.3999 232.78 70.1057 232.427 70.1057Z" fill="#363636"/>
<path d="M233.809 70.8785C233.809 71.3052 234.147 71.6513 234.564 71.6513H237.239C237.655 71.6513 237.993 71.3052 237.993 70.8785C237.993 70.4518 237.655 70.1057 237.239 70.1057H234.564C234.147 70.1057 233.809 70.4518 233.809 70.8785Z" fill="#363636"/>
<path d="M233.458 78.5978H236.911C237.464 78.5978 237.913 79.0573 237.913 79.6244V82.6741C237.913 83.2412 237.464 83.7009 236.911 83.7009H233.458C232.903 83.7009 232.455 83.2412 232.455 82.6741V79.6244C232.455 79.0573 232.903 78.5978 233.458 78.5978Z" fill="#363636"/>
<path d="M250.338 143.698V141.294C250.338 140.202 249.475 139.317 248.41 139.317H227.864C226.799 139.317 225.933 140.202 225.933 141.294V183.793H279.078V143.698H250.338Z" fill="#F21D2F"/>
<path d="M281.289 145.16H229.175L225.935 183.794H278.819L281.289 145.16Z" fill="white"/>
<path d="M279.079 183.794H225.935L231.573 145.64C231.739 144.524 232.675 143.699 233.777 143.699H282.412C283.776 143.699 284.82 144.943 284.617 146.324L279.079 183.794Z" fill="#F21D2F"/>
<path d="M296.818 145.159C296.818 152.048 291.368 157.632 284.641 157.632C277.917 157.632 272.465 152.048 272.465 145.159C272.465 138.272 277.917 132.687 284.641 132.687C291.368 132.687 296.818 138.272 296.818 145.159Z" fill="#F21D2F"/>
<path d="M284.643 133.143C278.173 133.143 272.912 138.533 272.912 145.159C272.912 151.784 278.173 157.175 284.643 157.175C291.113 157.175 296.374 151.784 296.374 145.159C296.374 138.533 291.113 133.143 284.643 133.143ZM284.643 158.087C277.682 158.087 272.019 152.288 272.019 145.159C272.019 138.031 277.682 132.232 284.643 132.232C291.604 132.232 297.267 138.031 297.267 145.159C297.267 152.288 291.604 158.087 284.643 158.087Z" fill="#363636"/>
<path d="M285.236 147.591V150.094C285.236 150.427 284.97 150.704 284.645 150.704C284.313 150.704 284.049 150.427 284.049 150.094V147.585C283.547 147.354 283.194 146.834 283.194 146.235C283.194 145.416 283.844 144.755 284.645 144.755C285.445 144.755 286.09 145.416 286.09 146.235C286.09 146.84 285.742 147.359 285.236 147.591ZM278.781 142.901V151.733C278.781 152.716 290.502 152.716 290.502 151.733V142.901H278.781Z" fill="#363636"/>
<path d="M289.476 142.272H288.29V141.677C288.29 139.617 286.654 137.941 284.641 137.941C282.63 137.941 280.993 139.617 280.993 141.677V142.272H279.807V141.677C279.807 138.946 281.976 136.725 284.641 136.725C287.309 136.725 289.476 138.946 289.476 141.677V142.272Z" fill="#363636"/>
<path d="M247.021 40.7815C247.021 43.4186 244.934 45.5564 242.36 45.5564C239.784 45.5564 237.697 43.4186 237.697 40.7815C237.697 38.1445 239.784 36.0068 242.36 36.0068C244.934 36.0068 247.021 38.1445 247.021 40.7815Z" fill="#FFF612"/>
<path d="M124.605 58.599C124.605 61.2361 122.518 63.3737 119.943 63.3737C117.369 63.3737 115.282 61.2361 115.282 58.599C115.282 55.962 117.369 53.8243 119.943 53.8243C122.518 53.8243 124.605 55.962 124.605 58.599Z" fill="#FFF612"/>
<path d="M277.487 122.172C277.487 123.552 276.395 124.67 275.048 124.67C273.702 124.67 272.61 123.552 272.61 122.172C272.61 120.793 273.702 119.674 275.048 119.674C276.395 119.674 277.487 120.793 277.487 122.172Z" fill="#FFF612"/>
<path d="M22.2541 126.857C22.2541 128.237 21.1623 129.355 19.8153 129.355C18.4685 129.355 17.3767 128.237 17.3767 126.857C17.3767 125.478 18.4685 124.359 19.8153 124.359C21.1623 124.359 22.2541 125.478 22.2541 126.857Z" fill="#FFF612"/>
<path d="M62.6298 217.888C62.6298 220.524 60.5427 222.662 57.9681 222.662C55.3935 222.662 53.3065 220.524 53.3065 217.888C53.3065 215.25 55.3935 213.112 57.9681 213.112C60.5427 213.112 62.6298 215.25 62.6298 217.888Z" fill="#FFF612"/>
<path d="M132.777 11.1987C132.331 11.1987 131.969 10.8282 131.969 10.3714V1.51396C131.969 1.05701 132.331 0.686523 132.777 0.686523C133.223 0.686523 133.584 1.05701 133.584 1.51396V10.3714C133.584 10.8282 133.223 11.1987 132.777 11.1987Z" fill="#FFF612"/>
<path d="M127.643 5.94174C127.643 5.48479 128.005 5.1145 128.451 5.1145H137.099C137.545 5.1145 137.907 5.48479 137.907 5.94174C137.907 6.39869 137.545 6.76898 137.099 6.76898H128.451C128.005 6.76898 127.643 6.39869 127.643 5.94174Z" fill="#FFF612"/>
<path d="M224.709 124.931C224.261 124.931 223.9 124.56 223.9 124.103V115.246C223.9 114.789 224.261 114.419 224.709 114.419C225.154 114.419 225.516 114.789 225.516 115.246V124.103C225.516 124.56 225.154 124.931 224.709 124.931Z" fill="#FFF612"/>
<path d="M219.578 119.675C219.578 119.218 219.939 118.848 220.385 118.848H229.032C229.478 118.848 229.839 119.218 229.839 119.675C229.839 120.132 229.478 120.502 229.032 120.502H220.385C219.939 120.502 219.578 120.132 219.578 119.675Z" fill="#FFF612"/>
<path d="M215.916 241.591C215.471 241.591 215.109 241.221 215.109 240.765V231.908C215.109 231.452 215.471 231.079 215.916 231.079C216.364 231.079 216.725 231.452 216.725 231.908V240.765C216.725 241.221 216.364 241.591 215.916 241.591Z" fill="#FFF612"/>
<path d="M210.784 236.336C210.784 235.88 211.145 235.51 211.593 235.51H220.24C220.685 235.51 221.047 235.88 221.047 236.336C221.047 236.795 220.685 237.165 220.24 237.165H211.593C211.145 237.165 210.784 236.795 210.784 236.336Z" fill="#FFF612"/>
<path d="M143.942 178.127C145.37 178.127 146.527 176.942 146.527 175.479C146.527 174.017 145.37 172.831 143.942 172.831C142.514 172.831 141.356 174.017 141.356 175.479C141.356 176.942 142.514 178.127 143.942 178.127Z" stroke="#FFF612" stroke-width="4.226" stroke-miterlimit="10"/>
<path d="M207.488 418.072H197.37L196.322 395.538H208.534L207.488 418.072Z" fill="#0E0E0E"/>
<path d="M383.338 418.072H373.219L372.172 395.538H384.384L383.338 418.072Z" fill="#0E0E0E"/>
<path d="M374.517 356.431C373.401 359.974 372.186 363.611 370.855 367.342H202.886C202.886 367.342 181.208 276.97 202.886 260.443C203.441 260.021 204.105 259.604 204.881 259.196C234.076 243.832 351.13 240.223 374.894 259.991C375.076 260.139 375.244 260.291 375.406 260.443C384.163 268.675 391.776 301.541 374.517 356.431Z" fill="#561C24"/>
<path d="M266.213 367.341H202.922L209.095 304.002C220.13 308.906 249.513 334.804 266.213 367.341Z" fill="#982C20"/>
<path d="M374.517 356.431C373.401 359.974 372.186 363.611 370.855 367.341H309.848C320.34 347.412 345.779 317.223 370.484 303.328L374.517 356.431Z" fill="#982C20"/>
<path d="M395.563 303.115H372.275C368.361 303.115 365.053 306.085 364.539 310.06L357.113 367.581H221.01L213.584 310.06C213.07 306.085 209.762 303.115 205.847 303.115H182.56C177.7 303.115 174.024 307.612 174.876 312.512L187.805 408.302H200.595H389.905H390.316L403.247 312.512C404.099 307.612 400.423 303.115 395.563 303.115Z" fill="#561C24"/>
<path d="M355.754 336.163C366.713 339.92 364.577 363.687 355.754 367.339H222.809C212.88 364.715 212.042 333.279 226.36 335.643C313.994 352.52 318.238 325.597 355.754 336.163Z" fill="#7A131C"/>
<path d="M254.427 312.073C254.386 318.209 254.709 323.986 255.354 329.046H317.691L321.383 266.699C317.68 243.928 307.543 238.41 291.498 238.41C277.139 238.41 267.575 250.407 261.763 266.467C256.739 280.344 254.517 297.249 254.427 312.073Z" fill="#F21D2F"/>
<path d="M254.426 313.277L276.985 311.886C264.461 307.687 263.464 287.998 276.195 275.748L261.762 266.467C256.738 280.344 254.516 298.452 254.426 313.277Z" fill="#F21D2F"/>
<path d="M250.133 341.927H335.78V312.074H258.63L250.133 341.927Z" fill="#0E0E0E"/>
<path d="M346.722 332.454L323.717 418.072H305.778C311.457 381.638 310.187 357.954 315.527 327.7C320.213 302.867 352.299 309.44 346.722 332.454Z" fill="#0E0E0E"/>
<path d="M317.274 418.073C317.274 418.016 317.27 417.96 317.27 417.902C317.27 411.555 322.294 406.411 328.491 406.411C334.687 406.411 339.71 411.555 339.71 417.902C339.71 417.96 339.708 418.016 339.706 418.073H317.274Z" fill="#F21D2F"/>
<path d="M330.653 406.626L326.574 405.349C323.883 399.925 312.401 400.595 314.001 407.198C309.495 407.885 307.126 405.587 307.126 405.587L305.778 418.073H330.103L330.653 406.626Z" fill="#F21D2F"/>
<path d="M245.707 332.454L268.713 418.072H286.65C280.971 381.638 282.244 357.954 276.903 327.7C272.217 302.867 240.13 309.44 245.707 332.454Z" fill="#0E0E0E"/>
<path d="M275.157 418.073C275.157 418.016 275.161 417.96 275.161 417.902C275.161 411.555 270.136 406.411 263.94 406.411C257.743 406.411 252.719 411.555 252.719 417.902C252.719 417.96 252.723 418.016 252.725 418.073H275.157Z" fill="#F21D2F"/>
<path d="M261.776 406.626L265.854 405.349C268.547 399.925 280.027 400.595 278.429 407.198C282.933 407.885 285.304 405.587 285.304 405.587L286.65 418.073H262.325L261.776 406.626Z" fill="#F21D2F"/>
<path d="M281.89 240.413C290.305 245.643 291.502 261.173 287.19 267.36L263.183 285.678L287.625 298.57L283.655 311.886C283.655 311.886 258.141 309.759 245.654 296.639C233.663 284.041 262.896 247.036 281.89 240.413Z" fill="#F21D2F"/>
<path d="M298.957 263.971C291.762 254.714 296.732 240.413 305.904 240.834C335.78 251.606 345.001 281.515 335.537 294.941C327.427 306.444 291.762 310.874 291.762 310.874V298.28L316.543 292.796C316.543 292.796 303.765 272.518 298.957 263.971Z" fill="#F21D2F"/>
<path d="M272.781 307.679C272.318 303.462 274.727 298.188 280.924 297.037C291.748 295.023 295.666 301.106 296.69 305.454C296.956 306.586 295.949 307.785 295.021 307.679C294.091 307.575 293.438 307.037 293.278 306.174C293.086 305.135 292.549 303.85 291.388 303.18C292.508 305.426 292.041 307.679 288.992 307.679H272.781Z" fill="#F7A594"/>
<path d="M297.219 307.669L305.737 263.923H307.543C306.966 266.936 298.587 310.708 298.325 312.075C296.091 312.075 275.585 312.075 272.798 312.075L270.009 307.669H297.219Z" fill="#6D0B13"/>
<path d="M307.542 263.923H370.925L361.549 312.075H298.324L307.542 263.923Z" fill="#363636"/>
<path d="M289.062 243.548C289.062 248.526 303.63 251.828 308.392 246.596C309.113 245.81 309.608 244.837 309.799 243.644L312.543 231.036L295.143 224.317L294.625 225.964L289.062 243.548Z" fill="#F7A594"/>
<path d="M309.799 243.644L312.543 231.036L296.081 226.496C291.821 239.485 307.026 249.863 309.799 243.644Z" fill="#F4856D"/>
<path d="M293.858 219.472C292.941 231.864 302.503 242.776 310.525 243.331C318.546 243.883 329.591 234.706 330.508 222.314C331.424 209.923 323.961 199.241 313.841 198.456C303.72 197.671 294.774 207.081 293.858 219.472Z" fill="#F7A594"/>
<path d="M307.271 199.395C318.363 192.2 324.469 198.967 329.994 206.145C333.869 211.18 336.614 214.799 341.439 215.556C332.159 227.545 313.6 219.637 307.754 207.624C307.177 214.461 299.308 220.125 293.858 219.473C292.093 211.863 297.238 196.479 307.271 199.395Z" fill="#0E0E0E"/>
<path d="M291.145 219.637C291.145 222.369 293.308 224.583 295.973 224.583C298.641 224.583 300.802 222.369 300.802 219.637C300.802 216.905 298.641 214.691 295.973 214.691C293.308 214.691 291.145 216.905 291.145 219.637Z" fill="#F7A594"/>
</svg>
