<svg width="329" height="93" viewBox="0 0 329 93" fill="none" xmlns="http://www.w3.org/2000/svg">
<path d="M35.615 34.3947C39.0723 34.0753 42.6466 34.1053 46.0744 34.4825C49.5022 34.8597 52.696 35.5744 55.4204 36.574C58.1448 37.5736 60.3303 38.8326 61.8157 40.2582C63.3011 41.6837 64.0486 43.2394 64.003 44.8106V51.5454M57.987 60.3298C54.7887 61.9152 50.5785 63.0281 45.9199 63.5195C41.2614 64.0108 36.3767 63.8573 31.9196 63.0794C27.4625 62.3015 23.6457 60.9363 20.9799 59.1666C18.3141 57.3969 16.9266 55.307 17.003 53.1768V44.8106C16.9851 43.3739 17.6248 41.9506 18.883 40.6275" stroke="#F21D2F" stroke-width="6" stroke-linecap="round" stroke-linejoin="round"/>
<path d="M39 77.1755C43.7276 77.1755 48.4089 76.5785 52.7766 75.4184C57.1443 74.2584 61.1129 72.5581 64.4558 70.4146C67.7988 68.2712 70.4505 65.7265 72.2597 62.9259C74.0688 60.1253 75 57.1237 75 54.0923V41.2581C75.0005 35.5874 71.7455 30.115 65.856 25.8847M3 46.3826V54.0923C2.99759 58.6365 5.08694 63.0799 9.00621 66.8659C12.9255 70.6519 18.5003 73.6119 25.032 75.375M57 21.268C48.7316 18.2072 38.9055 17.3777 29.6832 18.9621C20.461 20.5464 12.598 24.4149 7.824 29.7165C5.85824 31.8934 4.47129 34.2649 3.72 36.7338" stroke="#F21D2F" stroke-width="6" stroke-linecap="round" stroke-linejoin="round"/>
<path d="M19.2012 66L34.0212 27.36H45.9612L60.7812 66H49.0212L45.7812 57.78H34.1412L30.9612 66H19.2012ZM35.6412 49.68H44.2812L39.9612 38.34L35.6412 49.68ZM73.2016 66.6C69.8816 66.6 67.2816 65.66 65.4016 63.78C63.5216 61.9 62.5816 59.14 62.5816 55.5V37.56H73.8616V54.6C73.8616 57.08 75.1216 58.32 77.6416 58.32C78.5616 58.32 79.4616 58.12 80.3416 57.72C81.2216 57.32 81.9216 56.82 82.4416 56.22V37.56H93.7216V66H83.1616L82.8616 63.84C81.7416 64.64 80.3616 65.3 78.7216 65.82C77.1216 66.34 75.2816 66.6 73.2016 66.6ZM137.306 66.6C131.626 66.6 127.426 65.34 124.706 62.82C122.026 60.3 120.686 56.62 120.686 51.78C120.686 46.98 122.046 43.32 124.766 40.8C127.486 38.24 131.666 36.96 137.306 36.96C142.986 36.96 147.186 38.24 149.906 40.8C152.666 43.32 154.046 46.98 154.046 51.78C154.046 56.62 152.686 60.3 149.966 62.82C147.246 65.34 143.026 66.6 137.306 66.6ZM137.306 58.38C139.146 58.38 140.466 57.86 141.266 56.82C142.106 55.78 142.526 54.1 142.526 51.78C142.526 49.5 142.106 47.84 141.266 46.8C140.466 45.72 139.146 45.18 137.306 45.18C135.506 45.18 134.206 45.72 133.406 46.8C132.606 47.84 132.206 49.5 132.206 51.78C132.206 54.1 132.606 55.78 133.406 56.82C134.206 57.86 135.506 58.38 137.306 58.38ZM220.397 66.6C217.077 66.6 214.137 66.06 211.577 64.98C209.057 63.86 207.077 62.2 205.637 60C204.237 57.8 203.537 55.08 203.537 51.84C203.537 47.32 204.817 43.72 207.377 41.04C209.937 38.32 213.757 36.96 218.837 36.96C223.477 36.96 227.097 38.14 229.697 40.5C232.337 42.86 233.657 46.08 233.657 50.16V55.14H213.917C214.437 56.66 215.457 57.74 216.977 58.38C218.497 59.02 220.557 59.34 223.157 59.34C224.797 59.34 226.437 59.2 228.077 58.92C229.757 58.6 231.097 58.24 232.097 57.84V64.62C229.297 65.94 225.397 66.6 220.397 66.6ZM213.917 49.02H223.937V48C223.937 46.88 223.577 45.96 222.857 45.24C222.177 44.52 220.957 44.16 219.197 44.16C217.237 44.16 215.857 44.58 215.057 45.42C214.297 46.22 213.917 47.42 213.917 49.02ZM250.023 66.6C246.223 66.6 243.463 65.64 241.743 63.72C240.023 61.8 239.163 59.2 239.163 55.92V45.9H235.443V37.56H239.163V31.74L250.443 29.04V37.56H256.983L256.563 45.9H250.443V55.08C250.443 56.28 250.743 57.14 251.343 57.66C251.943 58.14 252.863 58.38 254.103 58.38C255.263 58.38 256.443 58.18 257.643 57.78V65.28C255.523 66.16 252.983 66.6 250.023 66.6ZM276.296 66.6C272.976 66.6 270.036 66.06 267.476 64.98C264.956 63.86 262.976 62.2 261.536 60C260.136 57.8 259.436 55.08 259.436 51.84C259.436 47.32 260.716 43.72 263.276 41.04C265.836 38.32 269.656 36.96 274.736 36.96C279.376 36.96 282.996 38.14 285.596 40.5C288.236 42.86 289.556 46.08 289.556 50.16V55.14H269.816C270.336 56.66 271.356 57.74 272.876 58.38C274.396 59.02 276.456 59.34 279.056 59.34C280.696 59.34 282.336 59.2 283.976 58.92C285.656 58.6 286.996 58.24 287.996 57.84V64.62C285.196 65.94 281.296 66.6 276.296 66.6ZM269.816 49.02H279.836V48C279.836 46.88 279.476 45.96 278.756 45.24C278.076 44.52 276.856 44.16 275.096 44.16C273.136 44.16 271.756 44.58 270.956 45.42C270.196 46.22 269.816 47.42 269.816 49.02ZM293.741 66V37.56H304.601L304.901 39.84C306.061 39.16 307.541 38.54 309.341 37.98C311.141 37.42 312.961 37.08 314.801 36.96V45.36C313.761 45.44 312.621 45.58 311.381 45.78C310.181 45.98 309.001 46.24 307.841 46.56C306.721 46.84 305.781 47.16 305.021 47.52V66H293.741Z" fill="white"/>
<path d="M111.273 66.6C107.473 66.6 104.713 65.64 102.993 63.72C101.273 61.8 100.413 59.2 100.413 55.92V45.9H96.6926V37.56H100.413V31.74L111.693 29.04V37.56H118.233L117.813 45.9H111.693V55.08C111.693 56.28 111.993 57.14 112.593 57.66C113.193 58.14 114.113 58.38 115.353 58.38C116.513 58.38 117.693 58.18 118.893 57.78V65.28C116.773 66.16 114.233 66.6 111.273 66.6ZM158.272 66V27.36H169.252L178.852 46.98L188.392 27.36H199.312V66H188.032V46.68L181.852 59.4H175.792L169.552 46.68V66H158.272Z" fill="#FF0000"/>
<g clip-path="url(#clip0_184_83)">
<path fill-rule="evenodd" clip-rule="evenodd" d="M281 66.1755L286 61.1755L296 71.1755L316 51.1755L321 56.1755L296 81.1755L281 66.1755Z" fill="#FF0000" stroke="black" stroke-width="4" stroke-linecap="round" stroke-linejoin="round"/>
</g>
<defs>
<clipPath id="clip0_184_83">
<rect width="48" height="48" fill="white" transform="translate(281 44.1755)"/>
</clipPath>
</defs>
</svg>
