<svg width="78" height="65" viewBox="0 0 78 65" fill="none" xmlns="http://www.w3.org/2000/svg">
<path d="M33.615 17.2192C37.0723 16.8998 40.6466 16.9298 44.0744 17.307C47.5022 17.6841 50.696 18.3989 53.4204 19.3985C56.1448 20.3981 58.3303 21.6571 59.8157 23.0826C61.3011 24.5082 62.0486 26.0639 62.003 27.6351V34.3698M55.987 43.1543C52.7887 44.7397 48.5785 45.8526 43.9199 46.3439C39.2614 46.8353 34.3767 46.6818 29.9196 45.9039C25.4625 45.1259 21.6457 43.7608 18.9799 41.9911C16.3141 40.2213 14.9266 38.1315 15.003 36.0012V27.6351C14.9851 26.1984 15.6248 24.7751 16.883 23.452" stroke="#F21D2F" stroke-width="6" stroke-linecap="round" stroke-linejoin="round"/>
<path d="M39 62C43.7276 62 48.4089 61.4029 52.7766 60.2429C57.1443 59.0829 61.1129 57.3826 64.4558 55.2391C67.7988 53.0956 70.4505 50.5509 72.2597 47.7504C74.0688 44.9498 75 41.9481 75 38.9168V26.0826C75.0005 20.4119 71.7455 14.9395 65.856 10.7092M3 31.207V38.9168C2.99759 43.4609 5.08694 47.9044 9.00621 51.6904C12.9255 55.4764 18.5003 58.4364 25.032 60.1995M57 6.09251C48.7316 3.03163 38.9055 2.20214 29.6832 3.78652C20.461 5.3709 12.598 9.23937 7.824 14.541C5.85824 16.7178 4.47129 19.0893 3.72 21.5583" stroke="#F21D2F" stroke-width="6" stroke-linecap="round" stroke-linejoin="round"/>
</svg>
