<svg width="175" height="175" viewBox="0 0 175 175" fill="none" xmlns="http://www.w3.org/2000/svg">
<circle cx="87.5" cy="87.5" r="87" stroke="black"/>
<mask id="mask0_164_113" style="mask-type:alpha" maskUnits="userSpaceOnUse" x="0" y="0" width="175" height="175">
<circle cx="87.5" cy="87.5" r="87.5" fill="#D9D9D9"/>
</mask>
<g mask="url(#mask0_164_113)">
<path d="M72.8 121.179C73.49 124.765 74.2689 128.527 76.6529 131.292C80.3769 135.612 86.7449 136.192 92.4409 136.461C95.6679 136.613 99.428 136.533 101.403 133.978C102.862 132.093 102.808 129.5 103.048 127.128C103.813 119.576 108.096 112.925 111.22 106.008C119.226 88.2829 119.658 67.2839 112.391 49.2439C111.379 46.7339 110.172 44.2049 108.145 42.4109C105.865 40.3949 102.8 39.5289 99.802 39.0069C86.192 36.6339 59.9409 40.0269 60.8029 58.2649C61.7739 78.8159 68.908 100.955 72.8 121.179Z" fill="#FFE7FB"/>
<path d="M132.264 200.626C134.77 200.696 137.475 200.709 139.516 199.255C142.973 196.793 142.729 191.667 142.053 187.477C139.698 172.881 135.688 157.078 123.743 148.366C114.535 141.651 102.409 140.591 91.0213 140.992C81.8933 141.314 72.8073 142.419 63.7853 143.842C57.8983 144.77 51.7563 145.956 47.1183 149.7C40.6973 154.883 38.6653 163.644 37.0273 171.732C35.7373 178.097 29.6073 192.285 35.6293 197.036C41.1923 201.425 59.3633 198.575 66.3333 198.771C88.3103 199.389 110.287 199.998 132.264 200.626Z" fill="#6987FF"/>
<path d="M76.0912 188.839C77.0772 193.148 78.5382 197.564 81.7112 200.643C84.8832 203.721 90.1992 204.979 93.7952 202.408C98.1262 199.312 97.8682 192.969 97.8772 187.646C97.8862 181.815 98.7612 175.987 100.462 170.41C102.95 162.256 107.215 154.537 108.003 146.049C108.269 143.191 107.94 139.905 105.679 138.138C104.305 137.064 102.489 136.783 100.757 136.576C91.1882 135.433 74.5032 132.564 71.4542 145.033C69.9962 150.993 72.5142 159.217 73.0602 165.265C73.7722 173.162 74.3182 181.088 76.0912 188.839Z" fill="#DBC9FF"/>
<path d="M72.6171 89.6279C70.1871 89.6519 67.7551 89.6759 65.3251 89.6999C64.6261 89.7059 63.8331 89.7549 63.3851 90.2919C62.8341 90.9519 63.1611 92.0259 63.8351 92.5599C64.5101 93.0929 65.4061 93.2289 66.2581 93.3459C67.3541 93.4969 68.4501 93.6479 69.5451 93.7989C71.0891 94.0119 72.8421 94.1679 74.0321 93.1619C75.2231 92.1559 74.7751 89.6059 73.2211 89.7239" fill="#F03FA3"/>
<path d="M106.799 90.8477C104.368 90.8717 101.938 90.8947 99.5072 90.9187C98.8082 90.9257 98.0162 90.9747 97.5672 91.5117C97.0172 92.1717 97.3432 93.2457 98.0182 93.7797C98.6912 94.3127 99.5882 94.4487 100.439 94.5657C101.535 94.7167 102.632 94.8677 103.728 95.0187C105.271 95.2307 107.023 95.3877 108.214 94.3817C109.404 93.3757 108.957 90.8257 107.403 90.9447" fill="#F03FA3"/>
<path d="M68.3857 72.9367C69.0647 72.1217 69.9297 71.5527 70.8317 71.0887C71.7407 70.6347 72.7147 70.3207 73.7167 70.1377C75.7057 69.7787 77.8797 69.9277 79.6867 71.0067C78.6617 71.2947 77.7297 71.4097 76.8047 71.6087L74.0737 72.1047C72.2467 72.4157 70.4577 72.7827 68.3857 72.9367Z" fill="black"/>
<path d="M75.7979 80.5768C75.7979 82.1918 74.9769 83.4998 73.9629 83.4998C72.9499 83.4998 72.1289 82.1918 72.1289 80.5768C72.1289 78.9618 72.9499 77.6528 73.9629 77.6528C74.9769 77.6528 75.7979 78.9618 75.7979 80.5768Z" fill="black"/>
<path d="M108.454 73.2486C106.393 72.9776 104.628 72.5106 102.822 72.0976L100.123 71.4486C99.2103 71.1986 98.2863 71.0306 97.2793 70.6846C99.1453 69.7106 101.323 69.6836 103.289 70.1536C104.278 70.3926 105.233 70.7616 106.115 71.2656C106.989 71.7806 107.821 72.3966 108.454 73.2486Z" fill="black"/>
<path d="M101.129 80.5768C101.129 82.1918 101.95 83.4998 102.964 83.4998C103.977 83.4998 104.798 82.1918 104.798 80.5768C104.798 78.9618 103.977 77.6528 102.964 77.6528C101.95 77.6528 101.129 78.9618 101.129 80.5768Z" fill="black"/>
<path d="M86.1589 78.9209C86.2729 79.1719 85.4599 85.6659 83.3999 89.1379C83.3999 89.1379 82.9479 91.5279 87.5509 92.8269" stroke="black" stroke-miterlimit="10"/>
<path d="M81.5693 99.4517C81.5693 99.4517 89.6563 102.133 95.9243 99.5897" stroke="black" stroke-miterlimit="10"/>
<path d="M75.36 115.92L74.22 127.96L73.75 132.89L70.79 134.75L54.2 145.15C43.63 151.78 36.18 162.38 33.53 174.57L28.5 197.7" stroke="black" stroke-miterlimit="10"/>
<path d="M99.4502 115.04L99.8702 119.5L100.69 128.09L101.14 132.89L120.69 145.15C131.26 151.78 138.71 162.38 141.36 174.57L146.39 197.7" stroke="black" stroke-miterlimit="10"/>
<path d="M119.18 61.3696C119.23 63.2596 119.24 65.0896 119.21 66.8596C119.21 66.8996 119.22 66.9296 119.22 66.9496C119.22 66.9596 119.22 66.9796 119.21 66.9896C118.88 89.2996 112.94 102.07 106.26 109.37C104.01 111.83 101.68 113.66 99.4505 115.04C98.7105 115.5 97.9805 115.9 97.2705 116.26C91.5805 119.15 87.0205 119.15 87.0205 119.15C85.8705 119.15 84.7605 119.07 83.7005 118.92C80.5905 118.49 77.8305 117.44 75.3605 115.92C73.7505 114.93 72.2705 113.74 70.9205 112.39C61.8605 103.41 58.0005 87.3296 56.2805 75.6096L56.2705 75.5996C56.2005 75.1196 56.1305 74.6396 56.0705 74.1796C55.0705 66.9196 54.8905 61.6496 54.7305 61.3696" stroke="black" stroke-miterlimit="10"/>
<path d="M129.469 35.6968C135.278 55.7188 142.843 135.45 102.902 133.998L99.4457 115.04C108.315 109.56 118.766 96.7898 119.206 66.9898C119.216 66.9798 119.216 66.9798 119.216 66.9798C119.216 66.9798 119.216 66.9698 119.216 66.9498C119.216 66.9298 119.206 66.8998 119.206 66.8598C119.156 65.9598 118.396 59.9698 108.105 45.4698C108.105 45.4698 94.8357 61.3698 75.3557 61.3698C57.0657 61.3698 55.8457 70.5798 56.0657 74.1798C56.1257 75.0598 56.2657 75.5998 56.2657 75.5998L56.2757 75.6098C58.2557 89.0898 63.0657 108.35 75.3557 115.92L73.7457 132.89L47.1177 149.7C44.7527 129.542 41.1547 103.132 41.3147 70.4218C41.3147 70.4218 40.0947 9.68884 97.2357 15.3758C97.2357 15.3758 110.83 17.7308 112.743 24.1188C112.743 24.1188 126.578 25.7378 129.469 35.6968Z" fill="black"/>
<path d="M73.7461 132.89C73.7461 132.89 87.2881 141.66 101.136 132.89" stroke="black" stroke-miterlimit="10"/>
<path d="M71.9834 133.998C71.9834 133.998 87.4584 147.621 102.902 133.998" stroke="black" stroke-miterlimit="10"/>
<path d="M80.356 197.7C80.356 197.7 80.246 197.19 80.046 196.25C79.816 195.18 79.476 193.56 79.046 191.53C78.726 190.03 78.356 188.29 77.956 186.39C77.636 184.91 77.306 183.33 76.946 181.67C76.596 180.02 76.236 178.3 75.856 176.53C75.536 174.99 75.196 173.41 74.856 171.81C74.496 170.1 74.136 168.38 73.766 166.67C73.436 165.09 73.096 163.51 72.766 161.95C72.396 160.2 72.036 158.48 71.686 156.81C71.336 155.19 71.006 153.6 70.686 152.09C68.846 143.33 67.496 136.82 67.536 136.79" stroke="black" stroke-miterlimit="10"/>
<path d="M58.3772 142.529C58.0612 142.727 56.7422 156.37 56.7422 156.37L69.2772 169.737L65.7612 177.853L78.7952 190.346" stroke="black" stroke-miterlimit="10"/>
<path d="M93.8262 197.7C93.8262 197.7 93.9362 197.19 94.1362 196.25C94.3662 195.18 94.7062 193.56 95.1362 191.53C95.4562 190.03 95.8262 188.29 96.2262 186.39C96.5462 184.91 96.8862 183.33 97.2362 181.67C97.5862 180.02 97.9562 178.3 98.3262 176.53C98.6562 174.99 98.9862 173.41 99.3262 171.81C99.6862 170.1 100.046 168.38 100.416 166.67C100.746 165.09 101.086 163.51 101.406 161.95C101.776 160.2 102.146 158.48 102.496 156.81C102.836 155.19 103.176 153.6 103.486 152.09C105.336 143.33 106.686 136.82 106.646 136.79" stroke="black" stroke-miterlimit="10"/>
<path d="M115.805 142.529C116.121 142.727 117.44 156.37 117.44 156.37L104.905 169.737L108.421 177.853L95.3867 190.346" stroke="black" stroke-miterlimit="10"/>
<path d="M103.486 152.09C103.176 153.6 102.836 155.19 102.496 156.81H71.6855C71.3355 155.19 71.0055 153.6 70.6855 152.09H103.486Z" fill="black"/>
<path d="M101.406 161.95C101.086 163.51 100.746 165.09 100.416 166.67H73.7656C73.4356 165.09 73.0956 163.51 72.7656 161.95H101.406Z" fill="black"/>
<path d="M99.3264 171.81C98.9864 173.41 98.6564 174.99 98.3264 176.53H75.8564C75.5364 174.99 75.1964 173.41 74.8564 171.81H99.3264Z" fill="black"/>
<path d="M82.5694 39.3787C82.5694 45.7947 76.2354 50.9967 68.4214 50.9967C60.6074 50.9967 54.2734 45.7947 54.2734 39.3787C54.2734 32.9627 60.6074 27.7607 68.4214 27.7607C76.2354 27.7607 82.5694 32.9627 82.5694 39.3787Z" stroke="white" stroke-width="2" stroke-miterlimit="10"/>
<path d="M119.676 39.3787C119.676 45.7947 113.341 50.9967 105.527 50.9967C97.7139 50.9967 91.3789 45.7947 91.3789 39.3787C91.3789 32.9627 97.7139 27.7607 105.527 27.7607C113.341 27.7607 119.676 32.9627 119.676 39.3787Z" stroke="white" stroke-width="2" stroke-miterlimit="10"/>
<path d="M82.5693 39.3788C82.5693 39.3788 86.6663 35.7238 91.3793 39.3788" stroke="white" stroke-width="2" stroke-miterlimit="10"/>
<path d="M99.8697 119.5C92.0197 122.16 79.8397 126.13 74.2197 127.96L75.3597 115.92C77.8297 117.44 80.5897 118.49 83.6997 118.92C84.7597 119.07 85.8697 119.15 87.0197 119.15C87.0197 119.15 91.5797 119.15 97.2697 116.26C97.9797 115.9 98.7097 115.5 99.4497 115.04L99.8697 119.5Z" fill="black"/>
</g>
</svg>
