<svg width="175" height="175" viewBox="0 0 175 175" fill="none" xmlns="http://www.w3.org/2000/svg">
<circle cx="87.5" cy="87.5" r="87" stroke="black"/>
<mask id="mask0_164_223" style="mask-type:alpha" maskUnits="userSpaceOnUse" x="0" y="0" width="175" height="175">
<circle cx="87.5" cy="87.5" r="87.5" fill="#D9D9D9"/>
</mask>
<g mask="url(#mask0_164_223)">
<path d="M48.35 97.6966C51.1686 102.47 55.1013 106.475 58.3859 110.941C63.9267 118.475 67.6013 127.369 68.9961 136.616C69.9464 142.912 70.3438 150.272 75.5461 153.943C78.1708 155.796 81.5165 156.251 84.7261 156.435C88.2614 156.639 92.1716 156.449 94.7813 154.054C98.1388 150.973 97.9128 145.753 98.1924 141.205C98.8983 129.732 104.345 119.185 108.297 108.389C113.503 94.1667 116.202 79.0292 116.232 63.8831C116.244 57.7606 115.609 51.1056 111.455 46.6072C107.986 42.8502 102.73 41.361 97.6856 40.5244C83.5337 38.1771 63.796 40.3337 56.7211 54.6774C50.9254 66.4296 41.3265 85.7998 48.35 97.6966Z" fill="#FFE7FB"/>
<path d="M40.585 185.001C44.0785 172.864 53.3549 161.526 65.8121 159.447C68.6135 158.98 71.5842 159.009 74.1768 160.168C75.9241 160.949 77.41 162.2 79.0137 163.245C82.9208 165.79 87.612 167.112 92.2743 166.981C98.6518 166.804 104.923 163.996 111.229 164.974C119.373 166.238 125.258 173.448 129.005 180.788C135.698 193.901 138.148 209.137 135.903 223.687C135.642 225.358 65.4253 223.351 58.8411 223.312C50.3199 223.262 42.7629 224.003 39.3648 215.012C36.1198 206.427 38.1574 193.438 40.585 185.001Z" fill="#C3C62B"/>
<path d="M122.359 83.9242C119.506 89.7746 118.44 96.4831 119.339 102.931C123.623 104.243 128.076 101.657 131.584 98.8678C133.883 97.038 136.127 94.9961 137.41 92.3521C138.694 89.7082 138.829 86.3271 137.058 83.982C135.431 81.8266 132.524 80.9567 129.827 81.112C127.13 81.2674 124.571 82.2947 122.067 83.3082" fill="#FFE7FB"/>
<path d="M88.491 102.752C88.8306 102.832 87.6607 107.182 82.7477 107.1C77.8347 107.019 74.2319 108.983 74.3144 117.582L72.1601 116.27C72.1601 116.27 67.622 97.831 88.491 102.752Z" fill="black"/>
<path d="M88.6007 102.752C88.26 102.832 89.4298 107.182 94.3428 107.1C99.2558 107.019 102.859 108.983 102.777 117.582L104.932 116.27C104.932 116.27 109.469 97.831 88.6007 102.752Z" fill="black"/>
<path d="M54.568 66.7737C54.568 66.7737 54.3751 78.9748 56.8498 92.8492C59.0781 105.341 63.4598 119.182 72.0838 126.681C76.0797 130.151 80.9756 132.262 86.9856 132.272C91.7636 132.272 95.8881 131.352 99.4449 129.713C100.248 129.347 101.02 128.941 101.759 128.501C102.005 128.363 102.252 128.212 102.487 128.051C102.98 127.752 103.452 127.43 103.912 127.088C104.105 126.949 104.287 126.81 104.48 126.669C104.748 126.456 105.016 126.252 105.273 126.028C105.701 125.674 106.119 125.309 106.526 124.924C106.976 124.505 107.426 124.067 107.855 123.606C108.197 123.242 108.54 122.855 108.872 122.471C108.904 122.439 108.937 122.396 108.969 122.363C109.269 122.01 109.558 121.645 109.837 121.282C109.879 121.239 109.922 121.185 109.954 121.142C115.782 113.558 118.718 103.187 120.132 93.5231C120.142 93.492 120.142 93.4802 120.142 93.4802C122.21 79.3497 121.053 66.7737 121.053 66.7737" stroke="black" stroke-miterlimit="10"/>
<path d="M75.6084 129.08L75.5977 129.22L74.4407 141.411L73.4765 151.598L58.3497 161.081L52.5325 164.734C51.9004 165.13 51.2791 165.537 50.6684 165.966C40.3304 173.111 33.0669 183.931 30.3887 196.261L25 221.041" stroke="black" stroke-miterlimit="10"/>
<path d="M99.4453 129.713L99.7667 133.109L101.524 151.598L118.461 162.226L122.468 164.734C123.732 165.525 124.964 166.372 126.142 167.283C135.516 174.397 142.094 184.66 144.611 196.261L150 221.041" stroke="black" stroke-miterlimit="10"/>
<path d="M55.596 85.7811C55.596 85.7811 48.0615 75.1817 43.6467 79.6715C39.2329 84.1613 46.1867 107.432 59.1698 105.448" stroke="black" stroke-miterlimit="10"/>
<path d="M121.071 85.4786C121.071 85.4786 128.246 74.6328 132.808 78.9715C137.371 83.3103 131.201 106.802 118.159 105.255" stroke="black" stroke-miterlimit="10"/>
<path d="M48.4434 89.0945C48.4434 89.0945 54.5144 89.4544 56.8467 94.4114" stroke="black" stroke-miterlimit="10"/>
<path d="M51.4062 94.1082C51.4062 94.1082 51.7116 92.0438 55.5876 92.5002" stroke="black" stroke-miterlimit="10"/>
<path d="M128.471 88.5535C128.471 88.5535 122.415 89.1159 120.251 94.1478" stroke="black" stroke-miterlimit="10"/>
<path d="M125.678 93.6635C125.678 93.6635 125.304 91.6098 121.444 92.1968" stroke="black" stroke-miterlimit="10"/>
<path d="M120.251 87.4038C120.251 87.4038 116.484 85.7658 116.484 81.8352C116.484 77.9046 118.449 70.8629 115.829 66.7684C113.21 62.6749 109.442 58.9082 109.442 58.9082C109.442 58.9082 86.6788 53.3407 60.8036 62.0193C60.8036 62.0193 56.9984 65.5075 58.0193 72.276C60.4758 88.5534 55.8424 87.466 55.8424 87.466C55.8424 87.466 48.4429 76.7583 50.7462 66.1963C50.7462 66.1963 36.8611 52.9582 47.4573 32.296C59.171 9.45042 99.5591 11.1463 113.317 26.2838C124.362 38.4378 120.251 46.4618 120.251 46.4618C120.251 46.4618 135.975 60.5463 120.251 87.4038Z" fill="black"/>
<path d="M67.1158 56.1227C65.0471 53.6126 63.4648 50.7137 62.2317 47.6851C60.9997 44.649 60.2509 41.4094 59.9852 38.1301C59.8053 36.49 59.9252 34.8402 59.9766 33.1957C60.2573 31.5727 60.3591 29.9164 60.9087 28.3566C61.1583 27.5735 61.3136 26.7636 61.6393 26.0105L62.596 23.75C62.8906 22.9862 63.347 22.3016 63.7594 21.5999C64.1729 20.8982 64.5983 20.2061 65.0279 19.5205C63.6587 22.4623 62.2982 25.3955 61.7079 28.5548C61.289 30.0986 61.2011 31.7012 60.988 33.276C60.9719 34.8691 60.8594 36.461 61.0523 38.0476C61.2847 41.223 61.9768 44.363 62.9999 47.399C63.5291 48.9117 64.1183 50.4083 64.8222 51.8567C65.4735 53.333 66.2673 54.7396 67.1158 56.1227Z" fill="white"/>
<path d="M74.4819 15.8914C73.3635 17.7244 72.6575 19.7363 72.049 21.7492C71.4715 23.7772 71.0837 25.8523 70.8352 27.9446L70.6606 29.5162L70.5684 31.0974C70.4624 32.1516 70.517 33.2111 70.4699 34.2717C70.4624 35.3323 70.5192 36.394 70.5224 37.461C70.5609 38.5269 70.6552 39.5907 70.6702 40.6696C70.4142 39.6272 70.217 38.5709 69.9996 37.5135C69.8699 36.4465 69.6996 35.3784 69.6343 34.3006C69.4982 32.1473 69.5046 29.9726 69.7714 27.8171C70.0478 25.667 70.4967 23.5276 71.2573 21.4889C72.0158 19.462 73.0239 17.4844 74.4819 15.8914Z" fill="white"/>
<path d="M73.1254 28.2811C72.9947 27.1209 73.0407 25.9585 73.1639 24.8058C73.2807 23.652 73.5121 22.51 73.8335 21.3883C74.172 20.272 74.5802 19.1643 75.193 18.1498C75.7887 17.1396 76.5503 16.1743 77.552 15.5615C76.86 16.5011 76.3747 17.4984 75.9408 18.5226C75.5133 19.5478 75.1695 20.6116 74.862 21.6883C74.2138 23.8384 73.7478 26.0442 73.1254 28.2811Z" fill="white"/>
<path d="M87.0581 28.281C86.9735 30.6068 86.8214 32.9058 86.8567 35.2038C86.8942 37.4996 87.0088 39.7868 87.3109 42.0505C87.6152 44.3131 88.1241 46.535 88.7851 48.7193C89.1643 49.7928 89.5243 50.8823 90.0428 51.9043C90.4445 52.9917 91.1044 53.9334 91.6208 54.9843C90.1156 53.2145 88.8943 51.1812 88.0094 49C87.1417 46.8146 86.5857 44.5145 86.2482 42.1919C85.9665 39.8618 85.8775 37.5124 86.0361 35.1823C86.1068 34.0168 86.2364 32.8565 86.3961 31.7038C86.5846 30.5532 86.8085 29.4134 87.0581 28.281Z" fill="white"/>
<path d="M82.3459 57.5541C82.3459 57.5541 73.2495 60.4638 76.3198 66.7684C76.3198 66.7684 69.456 56.1593 82.3459 57.5541Z" fill="black"/>
<path d="M63.751 75.7553C64.3016 75.0482 64.9144 74.5576 65.5368 74.083L67.403 74.158C68.6447 74.2308 69.8842 74.3723 71.1194 74.5833C72.3568 74.7901 73.5855 75.1061 74.8015 75.4928C75.4057 75.7018 76.011 75.9128 76.6023 76.1828C77.0073 76.8663 77.3448 77.6183 77.5537 78.4432C76.703 78.7368 76.0196 78.8771 75.3146 79.1288C74.8272 78.9028 74.3108 78.7239 73.7945 78.545C72.7489 78.214 71.6744 77.9333 70.5688 77.7501C69.4653 77.5615 68.3447 77.433 67.2167 77.3666C66.6521 77.343 66.0875 77.2991 65.5251 77.3291C64.9594 76.8459 64.3852 76.3852 63.751 75.7553Z" fill="black"/>
<path d="M72.1601 84.998C72.1601 86.7271 71.2806 88.1294 70.1943 88.1294C69.109 88.1294 68.2295 86.7271 68.2295 84.998C68.2295 83.2678 69.109 81.8655 70.1943 81.8655C71.2806 81.8655 72.1601 83.2678 72.1601 84.998Z" fill="black"/>
<path d="M110.618 74.9571C109.994 75.5902 109.451 76.0734 108.924 76.5758C108.379 76.5694 107.832 76.6412 107.287 76.699C106.198 76.8319 105.118 77.0547 104.067 77.3558C103.014 77.6493 101.988 78.0296 101.015 78.5031C100.52 78.7259 100.048 78.9906 99.5834 79.2637C98.8581 79.103 98.1564 79.0484 97.2822 78.8459C97.399 78.006 97.6336 77.2272 97.9432 76.4998C98.4949 76.1762 99.0531 75.8656 99.6327 75.602C100.779 75.046 101.972 74.6036 103.189 74.264C104.404 73.9169 105.642 73.6619 106.892 73.5098C107.516 73.4273 108.145 73.3941 108.776 73.333C109.428 73.784 110.065 74.2533 110.618 74.9571Z" fill="black"/>
<path d="M102.512 84.998C102.512 86.7271 103.391 88.1294 104.477 88.1294C105.563 88.1294 106.442 86.7271 106.442 84.998C106.442 83.2678 105.563 81.8655 104.477 81.8655C103.391 81.8655 102.512 83.2678 102.512 84.998Z" fill="black"/>
<path d="M84.8273 83.5903C84.9505 84.081 85.1958 91.5105 81.6348 99.8024C81.6348 99.8024 85.3886 102.307 89.9331 99.5238" stroke="black" stroke-miterlimit="10"/>
<path d="M80.2314 109.714C80.2314 109.714 88.4987 111.494 97.2834 110.192" stroke="black" stroke-miterlimit="10"/>
<path d="M84.9297 113.472C84.9297 113.472 89.5995 114.25 92.0528 112.94" stroke="black" stroke-miterlimit="10"/>
<path d="M120.133 93.5235C118.718 103.188 115.783 113.558 109.955 121.143C107.159 124.764 103.709 127.753 99.4456 129.713C95.8889 131.352 91.7644 132.273 86.9864 132.273C80.9764 132.263 76.0805 130.151 72.0845 126.681C63.4605 119.182 59.0789 105.341 56.8506 92.8496C56.8506 92.8496 62.5607 106.487 66.6209 111.147C70.6704 115.818 74.6771 119.417 88.9469 119.664C103.217 119.417 107.234 115.818 111.284 111.147C115.205 106.637 119.843 94.2841 120.133 93.5235Z" fill="black"/>
<path d="M73.4736 151.599L89.9332 169.123L101.527 151.599" stroke="black" stroke-miterlimit="10"/>
<path d="M67.2393 155.51L74.8873 171.251L85.3893 164.284" stroke="black" stroke-miterlimit="10"/>
<path d="M94.2998 162.522L103.218 171.251L110.845 157.443" stroke="black" stroke-miterlimit="10"/>
<path d="M89.9336 169.123H94.3002C94.3002 169.123 95.1948 177.147 90.7724 178.621L89.9336 221.036" stroke="black" stroke-miterlimit="10"/>
<path d="M61.9381 221.042H53.4212L50.668 165.966C51.2786 165.537 51.9 165.13 52.532 164.734L58.3492 161.081L61.9381 221.042Z" fill="black"/>
<path d="M126.141 167.283L123.463 221.041H114.946L118.46 162.227L122.467 164.734C123.731 165.525 124.963 166.372 126.141 167.283Z" fill="black"/>
<path d="M99.767 133.109C90.8967 136.076 79.1659 139.89 74.4414 141.411L75.5984 129.22C78.8659 131.159 82.6369 132.262 86.9864 132.272C91.7644 132.272 95.8889 131.352 99.4456 129.713L99.767 133.109Z" fill="black"/>
</g>
</svg>
