<svg width="177" height="175" viewBox="0 0 177 175" fill="none" xmlns="http://www.w3.org/2000/svg">
<mask id="mask0_164_115" style="mask-type:alpha" maskUnits="userSpaceOnUse" x="0" y="0" width="177" height="175">
<ellipse cx="88.5" cy="87.5" rx="88.5" ry="87.5" fill="#D9D9D9"/>
</mask>
<g mask="url(#mask0_164_115)">
<path d="M73.6316 121.179C74.3295 124.765 75.1174 128.527 77.5287 131.292C81.2952 135.612 87.736 136.192 93.4971 136.461C96.761 136.613 100.564 136.533 102.562 133.978C104.037 132.093 103.983 129.5 104.225 127.128C104.999 119.576 109.331 112.925 112.491 106.008C120.588 88.2829 121.025 67.2839 113.675 49.2439C112.652 46.7339 111.431 44.2049 109.381 42.4109C107.075 40.3949 103.974 39.5289 100.942 39.0069C87.1767 36.6339 60.6257 40.0269 61.4975 58.2649C62.4796 78.8159 69.6952 100.955 73.6316 121.179Z" fill="#FFE7FB"/>
<path d="M133.775 200.626C136.31 200.696 139.046 200.709 141.11 199.255C144.607 196.793 144.36 191.667 143.676 187.477C141.294 172.881 137.239 157.078 125.157 148.366C115.844 141.651 103.579 140.591 92.061 140.992C82.8287 141.314 73.6389 142.419 64.5138 143.842C58.5595 144.77 52.3473 145.956 47.6563 149.7C41.1619 154.883 39.1067 163.644 37.45 171.732C36.1452 178.097 29.9452 192.285 36.036 197.036C41.6626 201.425 60.0412 198.575 67.0909 198.771C89.319 199.389 111.547 199.998 133.775 200.626Z" fill="#6987FF"/>
<path d="M76.9598 188.839C77.9571 193.148 79.4348 197.564 82.6441 200.643C85.8523 203.721 91.2291 204.979 94.8662 202.408C99.2467 199.312 98.9857 192.969 98.9948 187.646C99.0039 181.815 99.8889 175.987 101.609 170.41C104.126 162.256 108.44 154.537 109.237 146.049C109.506 143.191 109.173 139.905 106.886 138.138C105.496 137.064 103.66 136.783 101.908 136.576C92.2294 135.433 75.3537 132.564 72.2698 145.033C70.7952 150.993 73.3419 159.217 73.8942 165.265C74.6143 173.162 75.1666 181.088 76.9598 188.839Z" fill="#DBC9FF"/>
<path d="M73.4465 89.6279C70.9887 89.6519 68.5289 89.6759 66.0712 89.6999C65.3642 89.7059 64.5621 89.7549 64.109 90.2919C63.5517 90.9519 63.8824 92.0259 64.5641 92.5599C65.2469 93.0929 66.1531 93.2289 67.0148 93.3459C68.1233 93.4969 69.2319 93.6479 70.3394 93.7989C71.901 94.0119 73.6741 94.1679 74.8777 93.1619C76.0823 92.1559 75.6292 89.6059 74.0574 89.7239" fill="#F03FA3"/>
<path d="M108.019 90.8477C105.56 90.8717 103.103 90.8947 100.644 90.9187C99.9369 90.9257 99.1359 90.9747 98.6817 91.5117C98.1254 92.1717 98.4552 93.2457 99.1379 93.7797C99.8186 94.3127 100.726 94.4487 101.587 94.5657C102.695 94.7167 103.805 94.8677 104.913 95.0187C106.474 95.2307 108.246 95.3877 109.45 94.3817C110.654 93.3757 110.202 90.8257 108.63 90.9447" fill="#F03FA3"/>
<path d="M69.167 72.9367C69.8538 72.1217 70.7286 71.5527 71.6409 71.0887C72.5603 70.6347 73.5455 70.3207 74.5589 70.1377C76.5706 69.7787 78.7695 69.9277 80.5971 71.0067C79.5604 71.2947 78.6178 71.4097 77.6822 71.6087L74.92 72.1047C73.0721 72.4157 71.2627 72.7827 69.167 72.9367Z" fill="black"/>
<path d="M76.6641 80.5768C76.6641 82.1918 75.8337 83.4998 74.8081 83.4998C73.7835 83.4998 72.9531 82.1918 72.9531 80.5768C72.9531 78.9618 73.7835 77.6528 74.8081 77.6528C75.8337 77.6528 76.6641 78.9618 76.6641 80.5768Z" fill="black"/>
<path d="M109.693 73.2486C107.609 72.9776 105.824 72.5106 103.997 72.0976L101.267 71.4486C100.344 71.1986 99.4091 71.0306 98.3906 70.6846C100.278 69.7106 102.481 69.6836 104.469 70.1536C105.47 70.3926 106.436 70.7616 107.328 71.2656C108.212 71.7806 109.053 72.3966 109.693 73.2486Z" fill="black"/>
<path d="M102.284 80.5768C102.284 82.1918 103.115 83.4998 104.14 83.4998C105.165 83.4998 105.995 82.1918 105.995 80.5768C105.995 78.9618 105.165 77.6528 104.14 77.6528C103.115 77.6528 102.284 78.9618 102.284 80.5768Z" fill="black"/>
<path d="M87.1427 78.9209C87.258 79.1719 86.4357 85.6659 84.3522 89.1379C84.3522 89.1379 83.895 91.5279 88.5506 92.8269" stroke="black" stroke-miterlimit="10"/>
<path d="M82.501 99.4517C82.501 99.4517 90.6804 102.133 97.02 99.5897" stroke="black" stroke-miterlimit="10"/>
<path d="M76.2207 115.92L75.0677 127.96L74.5923 132.89L71.5985 134.75L54.8189 145.15C44.1281 151.78 36.593 162.38 33.9127 174.57L28.8252 197.7" stroke="black" stroke-miterlimit="10"/>
<path d="M100.586 115.04L101.011 119.5L101.84 128.09L102.295 132.89L122.069 145.15C132.759 151.78 140.295 162.38 142.975 174.57L148.062 197.7" stroke="black" stroke-miterlimit="10"/>
<path d="M120.542 61.3696C120.593 63.2596 120.603 65.0896 120.572 66.8596C120.572 66.8996 120.583 66.9296 120.583 66.9496C120.583 66.9596 120.582 66.9796 120.572 66.9896C120.239 89.2996 114.231 102.07 107.474 109.37C105.199 111.83 102.842 113.66 100.587 115.04C99.8381 115.5 99.0997 115.9 98.3816 116.26C92.6266 119.15 88.0145 119.15 88.0145 119.15C86.8514 119.15 85.7287 119.07 84.6566 118.92C81.511 118.49 78.7195 117.44 76.2212 115.92C74.5928 114.93 73.0959 113.74 71.7305 112.39C62.567 103.41 58.6628 87.3296 56.9232 75.6096L56.9131 75.5996C56.8423 75.1196 56.7715 74.6396 56.7108 74.1796C55.6994 66.9196 55.5173 61.6496 55.3555 61.3696" stroke="black" stroke-miterlimit="10"/>
<path d="M130.948 35.6968C136.823 55.7188 144.475 135.45 104.077 133.998L100.582 115.04C109.552 109.56 120.123 96.7898 120.568 66.9898C120.578 66.9798 120.578 66.9798 120.578 66.9798C120.578 66.9798 120.578 66.9698 120.578 66.9498C120.578 66.9298 120.568 66.8998 120.568 66.8598C120.517 65.9598 119.748 59.9698 109.34 45.4698C109.34 45.4698 95.9191 61.3698 76.2165 61.3698C57.7175 61.3698 56.4835 70.5798 56.706 74.1798C56.7667 75.0598 56.9083 75.5998 56.9083 75.5998L56.9184 75.6098C58.9211 89.0898 63.7861 108.35 76.2165 115.92L74.5881 132.89L47.6558 149.7C45.2638 129.542 41.6246 103.132 41.7865 70.4218C41.7865 70.4218 40.5525 9.68884 98.3466 15.3758C98.3466 15.3758 112.096 17.7308 114.031 24.1188C114.031 24.1188 128.024 25.7378 130.948 35.6968Z" fill="black"/>
<path d="M74.5889 132.89C74.5889 132.89 88.2856 141.66 102.292 132.89" stroke="black" stroke-miterlimit="10"/>
<path d="M72.8057 133.998C72.8057 133.998 88.4575 147.621 104.078 133.998" stroke="black" stroke-miterlimit="10"/>
<path d="M81.274 197.7C81.274 197.7 81.1628 197.19 80.9605 196.25C80.7279 195.18 80.384 193.56 79.9491 191.53C79.6254 190.03 79.2512 188.29 78.8466 186.39C78.5229 184.91 78.1892 183.33 77.8251 181.67C77.4711 180.02 77.107 178.3 76.7226 176.53C76.399 174.99 76.0551 173.41 75.7112 171.81C75.3471 170.1 74.983 168.38 74.6087 166.67C74.275 165.09 73.9311 163.51 73.5973 161.95C73.2231 160.2 72.859 158.48 72.505 156.81C72.151 155.19 71.8172 153.6 71.4935 152.09C69.6325 143.33 68.2671 136.82 68.3075 136.79" stroke="black" stroke-miterlimit="10"/>
<path d="M59.0443 142.529C58.7247 142.727 57.3906 156.37 57.3906 156.37L70.0689 169.737L66.5127 177.853L79.6957 190.346" stroke="black" stroke-miterlimit="10"/>
<path d="M94.8984 197.7C94.8984 197.7 95.0097 197.19 95.212 196.25C95.4446 195.18 95.7885 193.56 96.2234 191.53C96.5471 190.03 96.9213 188.29 97.3259 186.39C97.6495 184.91 97.9934 183.33 98.3474 181.67C98.7014 180.02 99.0756 178.3 99.4499 176.53C99.7836 174.99 100.117 173.41 100.461 171.81C100.825 170.1 101.19 168.38 101.564 166.67C101.898 165.09 102.241 163.51 102.565 161.95C102.939 160.2 103.314 158.48 103.668 156.81C104.011 155.19 104.355 153.6 104.669 152.09C106.54 143.33 107.905 136.82 107.865 136.79" stroke="black" stroke-miterlimit="10"/>
<path d="M117.128 142.529C117.448 142.727 118.782 156.37 118.782 156.37L106.103 169.737L109.66 177.853L96.4766 190.346" stroke="black" stroke-miterlimit="10"/>
<path d="M104.668 152.09C104.354 153.6 104.011 155.19 103.667 156.81H72.5046C72.1506 155.19 71.8168 153.6 71.4932 152.09H104.668Z" fill="black"/>
<path d="M102.564 161.95C102.24 163.51 101.896 165.09 101.563 166.67H74.6081C74.2743 165.09 73.9305 163.51 73.5967 161.95H102.564Z" fill="black"/>
<path d="M100.462 171.81C100.118 173.41 99.7839 174.99 99.4501 176.53H76.7233C76.3997 174.99 76.0558 173.41 75.7119 171.81H100.462Z" fill="black"/>
<path d="M83.5129 39.3787C83.5129 45.7947 77.1066 50.9967 69.2033 50.9967C61.3 50.9967 54.8936 45.7947 54.8936 39.3787C54.8936 32.9627 61.3 27.7607 69.2033 27.7607C77.1066 27.7607 83.5129 32.9627 83.5129 39.3787Z" stroke="white" stroke-width="2" stroke-miterlimit="10"/>
<path d="M121.043 39.3787C121.043 45.7947 114.636 50.9967 106.733 50.9967C98.8303 50.9967 92.4229 45.7947 92.4229 39.3787C92.4229 32.9627 98.8303 27.7607 106.733 27.7607C114.636 27.7607 121.043 32.9627 121.043 39.3787Z" stroke="white" stroke-width="2" stroke-miterlimit="10"/>
<path d="M83.5127 39.3788C83.5127 39.3788 87.6565 35.7238 92.4234 39.3788" stroke="white" stroke-width="2" stroke-miterlimit="10"/>
<path d="M101.011 119.5C93.0708 122.16 80.7516 126.13 75.0674 127.96L76.2204 115.92C78.7186 117.44 81.5102 118.49 84.6557 118.92C85.7278 119.07 86.8505 119.15 88.0137 119.15C88.0137 119.15 92.6258 119.15 98.3808 116.26C99.0989 115.9 99.8373 115.5 100.586 115.04L101.011 119.5Z" fill="black"/>
</g>
</svg>
