<svg width="202" height="213" viewBox="0 0 202 213" fill="none" xmlns="http://www.w3.org/2000/svg">
<circle cx="101" cy="87.5" r="87" stroke="black"/>
<mask id="mask0_164_74" style="mask-type:alpha" maskUnits="userSpaceOnUse" x="13" y="0" width="176" height="175">
<circle cx="101" cy="87.5" r="87.5" fill="#D9D9D9"/>
</mask>
<g mask="url(#mask0_164_74)">
<path d="M85.8187 94.456C94.6422 102.833 104.732 112.577 103.873 124.714C103.622 128.252 102.293 131.845 99.6074 134.163C95.812 137.439 89.8847 137.788 86.7406 141.692C83.904 145.213 84.4987 150.67 87.2416 154.263C89.9856 157.856 94.4014 159.82 98.8286 160.735C108.948 162.826 119.985 159.866 127.702 152.993C128.921 151.907 130.088 150.69 130.695 149.176C131.761 146.515 130.918 143.51 130.013 140.791C126.975 131.651 123.265 122.071 125.341 112.667C127.673 102.109 136.739 94.4036 141.074 84.4987C145.107 75.2853 144.679 64.2374 139.947 55.3636C138.17 52.0311 135.696 48.8993 132.277 47.2994C129.05 45.789 125.345 45.7942 121.784 45.9032C108.179 46.3209 83.7713 44.8466 74.1669 56.7515C63.8948 69.4826 76.4726 85.5811 85.8187 94.456Z" fill="#FFE7FB"/>
<path d="M72.5603 163.678C71.1991 161.672 69.6908 159.676 67.6135 158.424C62.9539 155.617 56.6264 157.442 52.6797 161.187C48.732 164.932 46.6125 170.158 44.6052 175.216C43.5414 177.893 42.4786 180.572 41.4158 183.25C40.0659 186.65 38.7027 190.107 38.3621 193.749C38.0226 197.391 38.8405 201.309 41.3643 203.957C43.527 206.228 46.6526 207.305 49.7176 207.971C56.8517 209.518 64.2389 209.257 71.5355 208.988C97.4988 208.03 81.3231 176.591 72.5603 163.678Z" fill="#6987FF"/>
<path d="M126.173 181.792C126.95 177.47 127.193 173.065 128.04 168.756C128.954 164.102 130.573 159.587 132.823 155.413C134.058 153.122 135.661 150.788 138.118 149.935C140.517 149.103 143.212 149.901 145.361 151.252C151.858 155.334 154.269 163.476 156.18 170.906C158.492 179.894 160.804 188.881 163.116 197.868C163.583 199.682 163.837 202.055 162.224 203.006C161.594 203.375 160.829 203.406 160.098 203.425C149.359 203.708 136.541 205.21 125.975 203.07C119.253 201.709 120.372 202.405 122.091 195.828C123.329 191.091 125.299 186.658 126.173 181.792Z" fill="#6987FF"/>
<path d="M93.578 191.098C94.7334 194.042 96.0369 197.173 98.6832 198.903C102.343 201.298 107.529 200.057 110.696 197.041C113.863 194.023 115.371 189.665 116.253 185.381C117.135 181.097 117.506 176.686 118.923 172.548C120.318 168.468 122.723 164.657 123.113 160.362C123.219 159.205 122.988 157.76 121.892 157.373C121.412 157.205 120.883 157.296 120.385 157.403C116.253 158.297 112.347 160.211 108.141 160.643C100.874 161.389 89.0129 152.687 85.309 161.068C81.8881 168.808 90.8124 184.056 93.578 191.098Z" fill="#DAC8FF"/>
<path d="M89.0885 90.6711C86.5874 90.6948 84.0873 90.7195 81.5851 90.7442C80.8669 90.7514 80.0511 90.8018 79.5912 91.3533C79.0232 92.0323 79.3597 93.1383 80.0531 93.6878C80.7476 94.2361 81.6694 94.376 82.546 94.4964C83.6737 94.6518 84.8003 94.8061 85.9279 94.9625C87.5175 95.1806 89.32 95.3421 90.5444 94.3071C91.7687 93.2711 91.3088 90.6485 89.71 90.7709" fill="#F03FA3"/>
<path d="M124.256 91.9268C121.755 91.9504 119.254 91.9751 116.754 91.9998C116.034 92.007 115.219 92.0574 114.758 92.6099C114.191 93.289 114.526 94.394 115.221 94.9423C115.914 95.4907 116.837 95.6306 117.714 95.751C118.84 95.9074 119.968 96.0617 121.095 96.2181C122.684 96.4362 124.487 96.5978 125.712 95.5627C126.936 94.5267 126.476 91.9041 124.877 92.0255" fill="#F03FA3"/>
<path d="M42.4131 200.587L47.5882 176.79C50.3147 164.248 57.9797 153.342 68.8547 146.52L88.9689 133.906L89.5142 128.135L90.934 113.227L90.9751 112.805" stroke="black" stroke-miterlimit="10"/>
<path d="M155.618 97.9249C153.044 88.9142 144.158 43.4994 144.158 43.4994L124.602 42.486C133.291 50.1067 135.699 60.3232 135.699 60.3232C135.298 72.5656 133.405 82.2986 130.73 90.0459H130.72C127.633 99.0073 123.466 105.305 119.299 109.708C117.931 111.159 116.552 112.404 115.215 113.463C112.632 115.532 110.184 116.94 108.157 117.876C104.854 119.43 102.622 119.77 102.622 119.77C96.2427 117.384 91.1087 113.854 86.9727 109.708C68.8339 91.476 69.8525 61.0949 69.3998 60.3232C69.3998 60.3232 68.9893 47.8432 80.0104 40.1741L62.1011 39.2461C62.1011 39.2461 57.2377 66.91 54.1779 87.1692C51.1181 107.428 54.6542 120.772 68.1878 122.188C81.7214 123.604 133.052 122.188 133.052 122.188C133.052 122.188 162.549 122.188 155.618 97.9249Z" fill="black"/>
<path d="M115.194 113.288L115.215 113.463L115.781 119.452L117.149 133.906L123.898 138.145H123.919V138.156L137.263 146.52C148.138 153.343 155.803 164.248 158.53 176.79L161.75 191.615L163.705 200.588" stroke="black" stroke-miterlimit="10"/>
<path d="M82.1055 69.0234C82.1055 69.0234 88.0029 67.0141 93.9013 69.0234" stroke="black" stroke-width="2" stroke-miterlimit="10" stroke-linecap="round" stroke-linejoin="bevel"/>
<path d="M89.8911 77.8701C89.8911 79.5317 89.0454 80.8775 88.0031 80.8775C86.9619 80.8775 86.1162 79.5317 86.1162 77.8701C86.1162 76.2085 86.9619 74.8628 88.0031 74.8628C89.0454 74.8628 89.8911 76.2085 89.8911 77.8701Z" fill="black"/>
<path d="M123.74 69.0232C123.74 69.0232 117.842 67.0138 111.944 69.0232" stroke="black" stroke-width="2" stroke-miterlimit="10" stroke-linecap="round" stroke-linejoin="bevel"/>
<path d="M115.954 77.8704C115.954 79.532 116.799 80.8777 117.841 80.8777C118.883 80.8777 119.729 79.532 119.729 77.8704C119.729 76.2088 118.883 74.863 117.841 74.863C116.799 74.863 115.954 76.2088 115.954 77.8704Z" fill="black"/>
<path d="M101.611 77.9009C101.729 78.1591 102.246 82.5297 98.9431 85.3755C98.9431 85.3755 98.2599 88.2491 103.214 88.3149" stroke="black" stroke-miterlimit="10"/>
<path d="M95.8291 97.2898C95.8291 97.2898 104.149 100.048 110.598 97.4318" stroke="black" stroke-miterlimit="10"/>
<path d="M70.4299 71.8162C70.4299 71.8162 63.5242 63.1286 59.9675 67.1566C56.4117 71.1845 63.4028 90.6958 74.3766 88.4107" stroke="black" stroke-miterlimit="10"/>
<path d="M64.4873 74.9663C64.4873 74.9663 69.6779 74.9951 71.891 79.1126" stroke="black" stroke-miterlimit="10"/>
<path d="M67.2412 79.1048C67.2412 79.1048 67.4069 77.331 70.7311 77.543" stroke="black" stroke-miterlimit="10"/>
<path d="M134.937 71.8165C134.937 71.8165 141.843 63.1288 145.398 67.1568C148.955 71.1848 141.963 90.696 130.99 88.4109" fill="#F7F6F2"/>
<path d="M141.073 74.9666C141.073 74.9666 135.882 74.9954 133.669 79.1128" stroke="black" stroke-miterlimit="10"/>
<path d="M138.318 79.1048C138.318 79.1048 138.152 77.331 134.828 77.543" stroke="black" stroke-miterlimit="10"/>
<path d="M69.4004 60.3232C69.8531 61.0949 68.8345 91.476 86.9733 109.708C91.1093 113.854 96.2433 117.384 102.622 119.77C102.622 119.77 104.855 119.431 108.157 117.876C110.184 116.94 112.633 115.532 115.215 113.463C116.553 112.404 117.932 111.159 119.3 109.708C123.467 105.305 127.634 99.0072 130.72 90.0459H130.731C133.406 82.2986 135.299 72.5656 135.7 60.3232" stroke="black" stroke-miterlimit="10"/>
<path d="M127.529 50.6226C127.529 50.6226 106.111 71.6719 70.4311 73.8747C70.4311 73.8747 59.4275 62.2229 62.1015 41.3042C64.7755 20.3855 109.92 -3.53441 135.707 29.3365C135.707 29.3365 156.546 45.0781 134.936 73.8747C134.936 73.8747 136.179 68.5525 127.529 50.6226Z" fill="black"/>
<path d="M78.1602 140.684C78.1602 140.684 90.9303 154.53 104.253 158.516C104.253 158.516 118.486 156.509 127.174 140.192" stroke="black" stroke-miterlimit="10"/>
<path d="M75.7871 142.173C75.7871 142.173 85.3781 157.047 103.938 161.765C103.938 161.765 124.4 156.927 129.503 141.653" stroke="black" stroke-miterlimit="10"/>
<path d="M74.3945 143.045C74.3945 143.045 84.75 175.239 89.3109 200.587" stroke="black" stroke-miterlimit="10"/>
<path d="M63.8286 150.154C63.8286 150.154 59.5855 164.754 68.2362 174.033C76.8858 183.313 87.3606 190.841 87.3606 190.841" stroke="black" stroke-miterlimit="10"/>
<path d="M131.734 143.045C131.734 143.045 121.377 175.239 116.817 200.587" stroke="black" stroke-miterlimit="10"/>
<path d="M142.303 150.154C142.303 150.154 146.545 164.753 137.894 174.033C129.244 183.313 118.77 190.841 118.77 190.841" stroke="black" stroke-miterlimit="10"/>
<path d="M115.781 119.452C108.734 121.859 96.48 125.862 89.5146 128.136L90.9345 113.228C94.268 115.851 98.1365 118.093 102.622 119.77C102.622 119.77 104.855 119.432 108.158 117.877C110.184 116.941 112.633 115.532 115.215 113.463L115.781 119.452Z" fill="black"/>
</g>
<path d="M9.6 206.465C9.39 207.025 9.09 207.51 8.7 207.92C8.31 208.32 7.85 208.625 7.32 208.835C6.8 209.045 6.23 209.15 5.61 209.15C4.67 209.15 3.855 208.945 3.165 208.535C2.485 208.115 1.955 207.525 1.575 206.765C1.205 206.005 1.02 205.1 1.02 204.05C1.02 203 1.205 202.095 1.575 201.335C1.955 200.575 2.485 199.99 3.165 199.58C3.855 199.16 4.66 198.95 5.58 198.95C6.22 198.95 6.79 199.04 7.29 199.22C7.79 199.39 8.215 199.65 8.565 200C8.925 200.34 9.21 200.76 9.42 201.26L8.235 201.815C8.015 201.245 7.695 200.815 7.275 200.525C6.865 200.225 6.33 200.075 5.67 200.075C5 200.075 4.41 200.235 3.9 200.555C3.39 200.865 2.99 201.315 2.7 201.905C2.42 202.495 2.28 203.21 2.28 204.05C2.28 204.88 2.415 205.595 2.685 206.195C2.955 206.785 3.34 207.24 3.84 207.56C4.34 207.87 4.93 208.025 5.61 208.025C6.27 208.025 6.845 207.86 7.335 207.53C7.825 207.19 8.18 206.685 8.4 206.015L9.6 206.465ZM11.9032 209V199.1H18.8482V200.225H13.1032V203.42H17.5732V204.545H13.1032V207.875H19.0732V209H11.9032ZM25.2389 198.95C26.1789 198.95 26.9889 199.16 27.6689 199.58C28.3589 199.99 28.8889 200.575 29.2589 201.335C29.6389 202.095 29.8289 203 29.8289 204.05C29.8289 205.1 29.6389 206.005 29.2589 206.765C28.8889 207.525 28.3589 208.115 27.6689 208.535C26.9889 208.945 26.1789 209.15 25.2389 209.15C24.2989 209.15 23.4839 208.945 22.7939 208.535C22.1139 208.115 21.5839 207.525 21.2039 206.765C20.8339 206.005 20.6489 205.1 20.6489 204.05C20.6489 203 20.8339 202.095 21.2039 201.335C21.5839 200.575 22.1139 199.99 22.7939 199.58C23.4839 199.16 24.2989 198.95 25.2389 198.95ZM25.2389 200.075C24.5589 200.075 23.9689 200.235 23.4689 200.555C22.9689 200.865 22.5839 201.32 22.3139 201.92C22.0439 202.51 21.9089 203.22 21.9089 204.05C21.9089 204.88 22.0439 205.595 22.3139 206.195C22.5839 206.785 22.9689 207.24 23.4689 207.56C23.9689 207.87 24.5589 208.025 25.2389 208.025C25.9289 208.025 26.5189 207.87 27.0089 207.56C27.5089 207.24 27.8939 206.785 28.1639 206.195C28.4339 205.595 28.5689 204.88 28.5689 204.05C28.5689 203.22 28.4339 202.51 28.1639 201.92C27.8939 201.32 27.5089 200.865 27.0089 200.555C26.5189 200.235 25.9289 200.075 25.2389 200.075Z" fill="#212529" fill-opacity="0.75"/>
</svg>
