<svg width="175" height="175" viewBox="0 0 175 175" fill="none" xmlns="http://www.w3.org/2000/svg">
<circle cx="87.5" cy="87.5" r="87" stroke="black"/>
<mask id="mask0_164_182" style="mask-type:alpha" maskUnits="userSpaceOnUse" x="0" y="0" width="175" height="175">
<circle cx="87.5" cy="87.5" r="87.5" fill="#D9D9D9"/>
</mask>
<g mask="url(#mask0_164_182)">
<path d="M62.176 101.562C64.325 105.541 67.408 108.95 69.608 112.901C73.032 119.044 74.167 126.24 74.104 133.273C74.087 135.196 74.003 137.209 74.839 138.942C76.632 142.658 81.544 143.328 85.667 143.507C92.235 143.792 100.721 142.748 102.346 136.378C103.011 133.769 102.186 131.042 102.015 128.356C101.491 120.082 107.158 112.737 113.217 107.08C119.277 101.422 126.253 96.2723 129.797 88.7773C130.715 86.8353 131.363 84.4964 130.364 82.5954C128.202 78.4784 120.809 80.1504 118.524 76.0994C117.839 74.8844 117.813 73.4263 117.654 72.0403C116.229 59.6563 102.733 51.4474 90.274 51.8444C80.753 52.1484 63.279 57.1473 58.996 66.8083C55.054 75.6993 57.826 93.5033 62.176 101.562Z" fill="#FFE7FB"/>
<path d="M28.3514 196.225C28.2284 200.123 28.9004 204.653 32.2454 206.658C33.9264 207.666 35.9694 207.813 37.9264 207.928C73.4564 210.011 109.114 209.903 144.63 207.608C145.605 207.544 146.643 207.456 147.415 206.859C149.017 205.616 148.533 203.117 147.871 201.202C144.444 191.299 140.367 181.621 135.673 172.252C132.914 166.739 129.434 160.888 123.605 158.882C115.495 156.09 107.204 161.909 98.8294 163.762C82.1654 167.448 68.0314 149.583 52.8914 154.398C37.6244 159.252 28.8054 181.828 28.3514 196.225Z" fill="#C3C62B"/>
<path d="M67.5424 146.823C67.2314 147.323 66.9294 147.873 66.9624 148.46C67.0034 149.17 67.5174 149.752 68.0204 150.255C78.4154 160.656 96.3585 162.36 108.524 154.1C110.047 153.066 111.53 151.838 112.307 150.169C113.838 146.881 112.033 142.751 109.013 140.742C105.994 138.733 102.128 138.458 98.5245 138.858C94.9195 139.257 91.3984 140.26 87.7844 140.57C78.7534 141.347 72.8854 138.231 67.5424 146.823Z" fill="#6987FF"/>
<path d="M71.7707 95.6216C69.3387 95.6456 66.9087 95.6696 64.4777 95.6936C63.7787 95.6996 62.9867 95.7486 62.5387 96.2856C61.9877 96.9456 62.3137 98.0206 62.9887 98.5536C63.6627 99.0866 64.5587 99.2226 65.4117 99.3396C66.5067 99.4906 67.6027 99.6416 68.6987 99.7926C70.2427 100.006 71.9947 100.162 73.1847 99.1556C74.3757 98.1506 73.9287 95.6006 72.3747 95.7186" fill="#F03FA3"/>
<path d="M105.952 96.8413C103.521 96.8653 101.09 96.8893 98.6591 96.9123C97.9611 96.9193 97.1681 96.9693 96.7201 97.5053C96.1691 98.1653 96.4961 99.2393 97.1691 99.7733C97.8441 100.307 98.7411 100.443 99.5921 100.56C100.688 100.71 101.784 100.861 102.879 101.012C104.424 101.225 106.176 101.382 107.367 100.375C108.557 99.3693 108.11 96.8193 106.555 96.9383" fill="#F03FA3"/>
<path d="M64.8965 76.9634C65.7095 76.2814 66.6615 75.8744 67.6295 75.5764C68.6045 75.2894 69.6205 75.1524 70.6375 75.1494C72.6595 75.1474 74.7725 75.6774 76.3615 77.0584C75.3005 77.1604 74.3645 77.1104 73.4185 77.1424L70.6415 77.1494C68.7895 77.1314 66.9635 77.1774 64.8965 76.9634Z" fill="black"/>
<path d="M72.4669 86.8854C72.4669 88.5004 71.6458 89.8094 70.6328 89.8094C69.6198 89.8094 68.7979 88.5004 68.7979 86.8854C68.7979 85.2714 69.6198 83.9624 70.6328 83.9624C71.6458 83.9624 72.4669 85.2714 72.4669 86.8854Z" fill="black"/>
<path d="M104.92 76.8221C102.856 77.0621 101.031 77.0371 99.178 77.0761L96.403 77.1041C95.456 77.0821 94.519 77.1451 93.459 77.0551C95.03 75.6551 97.137 75.0991 99.158 75.0771C100.176 75.0681 101.192 75.1931 102.17 75.4681C103.143 75.7541 104.1 76.1501 104.92 76.8221Z" fill="black"/>
<path d="M97.7979 86.8854C97.7979 88.5004 98.6198 89.8094 99.6328 89.8094C100.646 89.8094 101.467 88.5004 101.467 86.8854C101.467 85.2714 100.646 83.9624 99.6328 83.9624C98.6198 83.9624 97.7979 85.2714 97.7979 86.8854Z" fill="black"/>
<path d="M81.5473 85.2295C81.6633 85.4815 81.2333 92.1835 80.0693 95.4475C80.0693 95.4475 80.0693 100.117 85.4433 99.1365" stroke="black" stroke-miterlimit="10"/>
<path d="M78.2656 106.104C78.2656 106.104 86.2636 106.643 92.6216 105.549" stroke="black" stroke-miterlimit="10"/>
<path d="M26.5 204.009L31.53 180.879C34.18 168.689 41.63 158.089 52.2 151.458L71.75 139.198L72.33 133.019H72.34L73.65 119.099L73.68 118.799" stroke="black" stroke-miterlimit="10"/>
<path d="M144.39 204.009L139.36 180.879C136.71 168.689 129.26 158.089 118.69 151.458L99.1403 139.198L97.7502 124.589L97.2603 119.328L97.2402 119.158" stroke="black" stroke-miterlimit="10"/>
<path d="M52.7305 67.6792C53.1705 68.4292 52.1705 97.9582 69.8105 115.679C73.8305 119.708 78.8204 123.139 85.0204 125.458C85.0204 125.458 90.6805 124.599 97.2605 119.328C98.5605 118.299 99.8905 117.089 101.22 115.679C108.78 107.698 116.32 93.3492 117.17 67.6792" stroke="black" stroke-miterlimit="10"/>
<path d="M54.0942 83.8503C54.0942 83.8503 46.6882 76.0093 43.5782 80.2033C40.4662 84.3993 48.8522 102.715 59.2902 99.5943" stroke="black" stroke-miterlimit="10"/>
<path d="M48.5996 87.3942C48.5996 87.3942 53.6286 86.9912 56.1126 90.7952" stroke="black" stroke-miterlimit="10"/>
<path d="M51.6084 91.1721C51.6084 91.1721 51.6224 89.4411 54.8594 89.3701" stroke="black" stroke-miterlimit="10"/>
<path d="M115.538 83.8503C115.538 83.8503 122.414 75.5394 125.794 79.5224C129.172 83.5044 122.006 102.331 111.386 99.9014" stroke="black" stroke-miterlimit="10"/>
<path d="M121.44 87.0294C121.44 87.0294 116.396 86.9574 114.167 90.9164" stroke="black" stroke-miterlimit="10"/>
<path d="M118.684 90.9961C118.684 90.9961 118.557 89.2701 115.323 89.4121" stroke="black" stroke-miterlimit="10"/>
<path d="M71.7471 139.195C71.7471 139.195 85.2011 148.804 99.1391 139.195" stroke="black" stroke-miterlimit="10"/>
<path d="M84.9504 143.466L78.3764 151.753C78.3764 151.753 70.9304 149.929 67.3154 141.975" stroke="black" stroke-miterlimit="10"/>
<path d="M86.2363 143.466L92.8093 151.753C92.8093 151.753 100.255 149.929 103.87 141.975" stroke="black" stroke-miterlimit="10"/>
<path d="M62.5791 144.945C62.5791 144.945 72.0261 157.868 85.4431 160.467C85.4431 160.467 99.5621 158.579 107.543 144.466" stroke="black" stroke-miterlimit="10"/>
<path d="M59.665 146.864C59.665 146.864 72.026 161.766 85.443 164.364C85.443 164.364 102.431 160.378 110.412 146.265" stroke="black" stroke-miterlimit="10"/>
<path d="M85.4434 164.364V204.011" stroke="black" stroke-miterlimit="10"/>
<path d="M103.871 57.7405C103.871 57.7405 81.6008 70.0945 67.3158 71.0405C53.0318 71.9865 54.7588 84.9965 54.7588 84.9965C54.7588 84.9965 43.5998 70.5815 44.9748 50.1745C46.3508 29.7675 87.5968 14.1745 108.133 30.9135C108.133 30.9135 136.482 43.6725 115.829 82.2765C115.829 82.2765 108.193 75.6265 103.871 57.7405Z" fill="black"/>
<path d="M96.4627 29.7264C96.6007 28.1034 96.9227 26.4964 97.4287 24.9494C98.9957 20.1584 104.002 17.6354 108.806 17.1134C110.429 16.9374 112.087 16.9404 113.676 17.3084C118.059 18.3224 121.438 22.0504 123.086 26.2364C124.21 29.0914 124.65 32.2144 124.345 35.2684C124.173 36.9904 123.758 38.7124 122.897 40.2144C122.21 41.4134 121.253 42.4454 120.177 43.3144C116.335 46.4204 110.369 47.5084 105.6 46.5184C102.423 45.8604 100.076 43.8864 98.6177 41.0274C96.8507 37.5624 96.1327 33.5974 96.4627 29.7264Z" fill="black"/>
<path d="M97.7508 124.589C91.8008 126.658 79.9108 130.559 72.3408 133.019L73.6508 119.099C76.9008 121.649 80.6608 123.828 85.0208 125.458C85.0208 125.458 90.6808 124.599 97.2608 119.328L97.7508 124.589Z" fill="black"/>
</g>
</svg>
