<svg width="100" height="100" viewBox="0 0 100 100" fill="none" xmlns="http://www.w3.org/2000/svg">
<rect x="0.5" y="0.5" width="99" height="99" stroke="black"/>
<path fill-rule="evenodd" clip-rule="evenodd" d="M12.5 12.5H77.0833V22.9167H72.9167V16.6667H16.6667V64.5833H61.2229V68.75H12.5V12.5ZM75 39.5833C76.6576 39.5833 78.2473 38.9249 79.4194 37.7528C80.5915 36.5807 81.25 34.9909 81.25 33.3333C81.25 31.6757 80.5915 30.086 79.4194 28.9139C78.2473 27.7418 76.6576 27.0833 75 27.0833C73.3424 27.0833 71.7527 27.7418 70.5806 28.9139C69.4085 30.086 68.75 31.6757 68.75 33.3333C68.75 34.9909 69.4085 36.5807 70.5806 37.7528C71.7527 38.9249 73.3424 39.5833 75 39.5833ZM79.2312 43.7708C81.9375 43.7708 84.0792 44.9875 85.4812 46.8667C86.7917 48.6271 87.3458 50.8042 87.4708 52.8146C87.5947 54.8769 87.3137 56.9435 86.6437 58.8979C86.0187 60.7104 84.9625 62.5854 83.3333 63.8708V84.375C83.3348 85.1602 83.0407 85.9171 82.5095 86.4953C81.9783 87.0735 81.2489 87.4305 80.4665 87.4953C79.684 87.5602 78.9058 87.3281 78.2866 86.8453C77.6675 86.3625 77.2528 85.6643 77.125 84.8896L74.4375 68.75H73.8167L70.7792 84.95C70.6349 85.7146 70.2107 86.3979 69.5893 86.8662C68.968 87.3345 68.1943 87.5542 67.4196 87.4823C66.6448 87.4104 65.9248 87.0521 65.4002 86.4774C64.8757 85.9028 64.5844 85.1531 64.5833 84.375V54.6521C64.1667 55.2867 63.7556 55.9249 63.35 56.5667L63.1875 56.8229L63.1458 56.8896L63.1354 56.9083C62.8546 57.3592 62.4636 57.731 61.9992 57.9887C61.5348 58.2464 61.0124 58.3815 60.4812 58.3813H50.0646C49.2358 58.3813 48.4409 58.052 47.8549 57.466C47.2688 56.8799 46.9396 56.0851 46.9396 55.2563C46.9396 54.4275 47.2688 53.6326 47.8549 53.0465C48.4409 52.4605 49.2358 52.1313 50.0646 52.1313H58.7667C59.2729 51.3479 59.9396 50.3313 60.6396 49.3104C61.3687 48.2458 62.1729 47.1188 62.8896 46.2354C63.2375 45.8042 63.6271 45.3542 64.0187 44.9854C64.2104 44.8042 64.4771 44.5688 64.8021 44.3604C65.3746 43.9818 66.0448 43.7777 66.7312 43.7729L79.2312 43.7708Z" fill="#545454"/>
</svg>
