<svg width="48" height="48" viewBox="0 0 48 48" fill="none" xmlns="http://www.w3.org/2000/svg">
<path d="M48 23.976C48 10.74 37.248 0 24 0C10.752 0 0 10.74 0 23.976C0 31.266 3.312 37.836 8.496 42.246C8.544 42.294 8.592 42.294 8.592 42.342C9.024 42.678 9.456 43.014 9.936 43.35C10.176 43.494 10.368 43.683 10.608 43.875C14.5758 46.5607 19.2567 47.9974 24.048 48C28.8393 47.9974 33.5202 46.5607 37.488 43.875C37.728 43.731 37.92 43.542 38.16 43.395C38.592 43.062 39.072 42.726 39.504 42.39C39.552 42.342 39.6 42.342 39.6 42.294C44.688 37.833 48 31.266 48 23.976ZM24 44.979C19.488 44.979 15.36 43.539 11.952 41.142C12 40.758 12.096 40.377 12.192 39.993C12.479 38.9526 12.8984 37.9535 13.44 37.02C13.968 36.108 14.592 35.292 15.36 34.572C16.08 33.852 16.944 33.183 17.808 32.655C18.72 32.127 19.68 31.743 20.736 31.455C21.8006 31.1699 22.8979 31.0256 24 31.026C27.2723 31.0012 30.4246 32.2566 32.784 34.524C33.888 35.628 34.752 36.923 35.376 38.409C35.712 39.273 35.952 40.184 36.096 41.142C32.5535 43.6325 28.3303 44.9721 24 44.979ZM16.656 22.779C16.2339 21.8104 16.0213 20.7635 16.032 19.707C16.032 18.654 16.224 17.598 16.656 16.638C17.088 15.678 17.664 14.817 18.384 14.097C19.104 13.377 19.968 12.804 20.928 12.372C21.888 11.94 22.944 11.748 24 11.748C25.104 11.748 26.112 11.94 27.072 12.372C28.032 12.804 28.896 13.38 29.616 14.097C30.336 14.817 30.912 15.681 31.344 16.638C31.776 17.598 31.968 18.654 31.968 19.707C31.968 20.811 31.776 21.819 31.344 22.776C30.9295 23.7231 30.3436 24.5856 29.616 25.32C28.8813 26.0466 28.0189 26.6314 27.072 27.045C25.0882 27.8585 22.8638 27.8585 20.88 27.045C19.9331 26.6314 19.0707 26.0466 18.336 25.32C17.6077 24.596 17.0359 23.7331 16.656 22.779ZM38.928 38.697C38.928 38.601 38.88 38.553 38.88 38.457C38.4088 36.9549 37.7129 35.5328 36.816 34.239C35.9184 32.9357 34.8162 31.7859 33.552 30.834C32.5862 30.1072 31.5392 29.4951 30.432 29.01C30.9333 28.6746 31.3997 28.2897 31.824 27.861C32.5396 27.1545 33.1681 26.3649 33.696 25.509C34.7627 23.764 35.312 21.752 35.28 19.707C35.2957 18.1935 35.0017 16.6927 34.416 15.297C33.8385 13.952 33.0074 12.7307 31.968 11.7C30.9276 10.6831 29.7068 9.86923 28.368 9.3C26.9702 8.71456 25.4673 8.42154 23.952 8.439C22.4365 8.42249 20.9336 8.71653 19.536 9.303C18.1825 9.86529 16.9577 10.6972 15.936 11.748C14.9138 12.7829 14.0992 14.0039 13.536 15.345C12.9503 16.7407 12.6563 18.2415 12.672 19.755C12.672 20.811 12.816 21.818 13.104 22.776C13.392 23.784 13.776 24.696 14.304 25.557C14.784 26.421 15.456 27.189 16.176 27.909C16.608 28.341 17.088 28.724 17.616 29.058C16.5039 29.5531 15.4562 30.1817 14.496 30.93C13.248 31.89 12.144 33.039 11.232 34.287C10.3268 35.5759 9.63029 36.9994 9.168 38.505C9.12 38.601 9.12 38.697 9.12 38.745C5.328 34.908 2.976 29.73 2.976 23.976C2.976 12.42 12.432 2.973 24 2.973C35.568 2.973 45.024 12.42 45.024 23.976C45.0177 29.4959 42.826 34.7887 38.928 38.697Z" fill="#F8F8F8"/>
</svg>
