<svg width="100" height="100" viewBox="0 0 100 100" fill="none" xmlns="http://www.w3.org/2000/svg">
<rect x="0.5" y="0.5" width="99" height="99" stroke="black"/>
<path d="M88.4883 22.0354L50.9883 9.53539C50.3468 9.32154 49.6532 9.32154 49.0117 9.53539L11.5117 22.0354C10.8895 22.2428 10.3483 22.6408 9.96478 23.1729C9.58129 23.705 9.37495 24.3443 9.375 25.0002V56.2502C9.375 57.079 9.70424 57.8739 10.2903 58.4599C10.8763 59.046 11.6712 59.3752 12.5 59.3752C13.3288 59.3752 14.1237 59.046 14.7097 58.4599C15.2958 57.8739 15.625 57.079 15.625 56.2502V29.3362L28.7461 33.7073C25.26 39.3393 24.1514 46.1246 25.6638 52.5733C27.1762 59.022 31.1859 64.6069 36.8125 68.1018C29.7812 70.8596 23.7031 75.8479 19.2578 82.6682C19.0266 83.0118 18.866 83.3979 18.7854 83.8042C18.7048 84.2104 18.7057 84.6286 18.7881 85.0344C18.8705 85.4403 19.0327 85.8257 19.2654 86.1683C19.498 86.5109 19.7965 86.8039 20.1434 87.0301C20.4902 87.2564 20.8786 87.4114 21.286 87.4863C21.6933 87.5611 22.1114 87.5542 22.5161 87.466C22.9207 87.3778 23.3038 87.2101 23.643 86.9725C23.9823 86.735 24.2709 86.4323 24.4922 86.0823C30.3789 77.051 39.6758 71.8752 50 71.8752C60.3242 71.8752 69.6211 77.051 75.5078 86.0823C75.9662 86.7635 76.6742 87.237 77.4788 87.4003C78.2835 87.5637 79.1201 87.4038 79.8078 86.9552C80.4955 86.5067 80.979 85.8055 81.1539 85.0033C81.3287 84.2011 81.1808 83.3623 80.7422 82.6682C76.2969 75.8479 70.1953 70.8596 63.1875 68.1018C68.8087 64.6071 72.8146 59.0258 74.3267 52.5818C75.8389 46.1378 74.7338 39.3572 71.2539 33.7268L88.4883 27.9846C89.1107 27.7773 89.652 27.3794 90.0356 26.8472C90.4193 26.3151 90.6257 25.6758 90.6257 25.0198C90.6257 24.3638 90.4193 23.7244 90.0356 23.1923C89.652 22.6601 89.1107 22.2622 88.4883 22.0549V22.0354ZM68.75 46.8752C68.7508 49.8395 68.0489 52.7618 66.7016 55.4022C65.3544 58.0426 63.4003 60.326 60.9997 62.065C58.5991 63.804 55.8204 64.9491 52.8916 65.4062C49.9628 65.8634 46.9673 65.6196 44.151 64.6949C41.3346 63.7702 38.7776 62.1909 36.6898 60.0867C34.602 57.9824 33.0428 55.4131 32.1403 52.5895C31.2377 49.766 31.0175 46.7687 31.4976 43.8436C31.9777 40.9184 33.1445 38.1488 34.9023 35.762L49.0117 40.4495C49.6532 40.6633 50.3468 40.6633 50.9883 40.4495L65.0977 35.762C67.4718 38.9807 68.7519 42.8756 68.75 46.8752ZM50 34.2073L22.3828 25.0002L50 15.7932L77.6172 25.0002L50 34.2073Z" fill="#545454"/>
</svg>
