<svg width="100" height="100" viewBox="0 0 100 100" fill="none" xmlns="http://www.w3.org/2000/svg">
<rect x="0.5" y="0.5" width="99" height="99" stroke="black"/>
<path d="M49.5 14C44.8381 14 40.2218 14.9182 35.9147 16.7023C31.6077 18.4863 27.6942 21.1012 24.3977 24.3977C17.7402 31.0553 14 40.0848 14 49.5C14 58.9152 17.7402 67.9447 24.3977 74.6023C27.6942 77.8988 31.6077 80.5137 35.9147 82.2977C40.2218 84.0818 44.8381 85 49.5 85C58.9152 85 67.9447 81.2598 74.6023 74.6023C81.2598 67.9447 85 58.9152 85 49.5C85 44.8381 84.0818 40.2218 82.2977 35.9147C80.5137 31.6077 77.8988 27.6942 74.6023 24.3977C71.3058 21.1012 67.3923 18.4863 63.0853 16.7023C58.7782 14.9182 54.1619 14 49.5 14ZM64.41 64.41L45.95 53.05V31.75H51.275V50.21L67.25 59.795L64.41 64.41Z" fill="#666666" fill-opacity="0.23"/>
<path fill-rule="evenodd" clip-rule="evenodd" d="M21 22H70.0838V29.7772H66.9171V25.1109H24.1667V60.8858H58.0298V63.9966H21V22ZM68.5004 42.2206C69.7602 42.2206 70.9684 41.729 71.8592 40.8539C72.75 39.9788 73.2505 38.7919 73.2505 37.5543C73.2505 36.3167 72.75 35.1298 71.8592 34.2547C70.9684 33.3796 69.7602 32.888 68.5004 32.888C67.2407 32.888 66.0325 33.3796 65.1417 34.2547C64.2509 35.1298 63.7504 36.3167 63.7504 37.5543C63.7504 38.7919 64.2509 39.9788 65.1417 40.8539C66.0325 41.729 67.2407 42.2206 68.5004 42.2206ZM71.7162 45.347C73.773 45.347 75.4007 46.2554 76.4663 47.6584C77.4622 48.9727 77.8834 50.5981 77.9784 52.0991C78.0725 53.6389 77.8589 55.1818 77.3498 56.641C76.8748 57.9942 76.072 59.3941 74.8338 60.3538V75.6624C74.835 76.2486 74.6115 76.8137 74.2077 77.2454C73.804 77.677 73.2497 77.9436 72.655 77.992C72.0603 78.0404 71.4689 77.8672 70.9983 77.5067C70.5278 77.1462 70.2126 76.6249 70.1155 76.0466L68.0729 63.9966H67.6011L65.2926 76.0917C65.183 76.6625 64.8605 77.1726 64.3883 77.5223C63.9161 77.872 63.3281 78.036 62.7393 77.9823C62.1504 77.9286 61.6032 77.6611 61.2045 77.232C60.8059 76.803 60.5845 76.2433 60.5837 75.6624V53.471C60.2671 53.9448 59.9546 54.4213 59.6464 54.9005L59.5229 55.0918L59.4912 55.1416L59.4833 55.1556C59.2699 55.4921 58.9727 55.7698 58.6197 55.9622C58.2668 56.1546 57.8697 56.2554 57.4661 56.2552H49.5494C48.9195 56.2552 48.3154 56.0094 47.87 55.5719C47.4246 55.1343 47.1743 54.5409 47.1743 53.9221C47.1743 53.3033 47.4246 52.7099 47.87 52.2723C48.3154 51.8348 48.9195 51.589 49.5494 51.589H56.163C56.5477 51.0041 57.0544 50.2451 57.5864 49.4829C58.1406 48.6881 58.7518 47.8466 59.2964 47.1871C59.5609 46.8651 59.8569 46.5291 60.1546 46.2538C60.3003 46.1185 60.503 45.9427 60.75 45.7872C61.1851 45.5045 61.6945 45.3521 62.2161 45.3486L71.7162 45.347Z" fill="#545454"/>
</svg>
