<svg width="100" height="100" viewBox="0 0 100 100" fill="none" xmlns="http://www.w3.org/2000/svg">
<rect x="0.5" y="0.5" width="99" height="99" stroke="black"/>
<g clip-path="url(#clip0_648_107)">
<path d="M53.0003 26.667C55.8293 26.667 58.5424 27.8962 60.5428 30.0841C62.5432 32.272 63.667 35.2395 63.667 38.3337C63.667 41.4279 62.5432 44.3953 60.5428 46.5832C58.5424 48.7712 55.8293 50.0003 53.0003 50.0003C50.1714 50.0003 47.4582 48.7712 45.4579 46.5832C43.4575 44.3953 42.3337 41.4279 42.3337 38.3337C42.3337 35.2395 43.4575 32.272 45.4579 30.0841C47.4582 27.8962 50.1714 26.667 53.0003 26.667ZM53.0003 55.8337C64.787 55.8337 74.3337 61.0545 74.3337 67.5003V73.3337H31.667V67.5003C31.667 61.0545 41.2137 55.8337 53.0003 55.8337Z" fill="#666666"/>
<path d="M35.25 20C31.8028 20 28.3894 20.6466 25.2046 21.903C22.0198 23.1594 19.126 25.0009 16.6884 27.3223C11.7656 32.0107 9 38.3696 9 45C9 51.6304 11.7656 57.9893 16.6884 62.6777C19.126 64.9991 22.0198 66.8406 25.2046 68.097C28.3894 69.3534 31.8028 70 35.25 70C42.2119 70 48.8887 67.3661 53.8116 62.6777C58.7344 57.9893 61.5 51.6304 61.5 45C61.5 41.717 60.821 38.4661 59.5018 35.4329C58.1827 32.3998 56.2491 29.6438 53.8116 27.3223C51.374 25.0009 48.4802 23.1594 45.2954 21.903C42.1106 20.6466 38.6972 20 35.25 20ZM46.275 55.5L32.625 47.5V32.5H36.5625V45.5L48.375 52.25L46.275 55.5Z" fill="#666666" fill-opacity="0.36"/>
</g>
<defs>
<clipPath id="clip0_648_107">
<rect width="64" height="70" fill="white" transform="translate(21 15)"/>
</clipPath>
</defs>
</svg>
