<svg width="150" height="150" viewBox="0 0 150 150" fill="none" xmlns="http://www.w3.org/2000/svg">
<path fill-rule="evenodd" clip-rule="evenodd" d="M74.5 13C39.9813 13 12 40.9813 12 75.5C12 110.019 39.9813 138 74.5 138C109.019 138 137 110.019 137 75.5C137 40.9813 109.019 13 74.5 13ZM52.625 59.875C52.625 57.0023 53.1908 54.1578 54.2901 51.5038C55.3895 48.8498 57.0008 46.4383 59.032 44.407C61.0633 42.3758 63.4748 40.7645 66.1288 39.6651C68.7828 38.5658 71.6273 38 74.5 38C77.3727 38 80.2172 38.5658 82.8712 39.6651C85.5252 40.7645 87.9367 42.3758 89.968 44.407C91.9992 46.4383 93.6105 48.8498 94.7099 51.5038C95.8092 54.1578 96.375 57.0023 96.375 59.875C96.375 65.6766 94.0703 71.2406 89.968 75.343C85.8656 79.4453 80.3016 81.75 74.5 81.75C68.6984 81.75 63.1344 79.4453 59.032 75.343C54.9297 71.2406 52.625 65.6766 52.625 59.875ZM113.612 106.65C108.934 112.535 102.986 117.287 96.2136 120.551C89.4409 123.815 82.0182 125.507 74.5 125.5C66.9818 125.507 59.5591 123.815 52.7864 120.551C46.0137 117.287 40.066 112.535 35.3875 106.65C45.5187 99.3812 59.3438 94.25 74.5 94.25C89.6562 94.25 103.481 99.3812 113.612 106.65Z" fill="#0D0D0D"/>
</svg>
