<svg width="100" height="100" viewBox="0 0 100 100" fill="none" xmlns="http://www.w3.org/2000/svg">
<rect x="0.5" y="0.5" width="99" height="99" stroke="black"/>
<path d="M62.5003 58.3337C51.3753 58.3337 29.167 63.8753 29.167 75.0003V83.3337H95.8337V75.0003C95.8337 63.8753 73.6253 58.3337 62.5003 58.3337ZM25.0003 41.667V29.167H16.667V41.667H4.16699V50.0003H16.667V62.5003H25.0003V50.0003H37.5003V41.667M62.5003 50.0003C66.9206 50.0003 71.1598 48.2444 74.2854 45.1188C77.411 41.9932 79.167 37.7539 79.167 33.3337C79.167 28.9134 77.411 24.6742 74.2854 21.5485C71.1598 18.4229 66.9206 16.667 62.5003 16.667C58.08 16.667 53.8408 18.4229 50.7152 21.5485C47.5896 24.6742 45.8337 28.9134 45.8337 33.3337C45.8337 37.7539 47.5896 41.9932 50.7152 45.1188C53.8408 48.2444 58.08 50.0003 62.5003 50.0003Z" fill="#545454"/>
</svg>
