<svg width="342" height="394" viewBox="0 0 342 394" fill="none" xmlns="http://www.w3.org/2000/svg">
<path d="M269 380.49C290.6 384.578 312.201 388.667 333.804 392.756C337.068 393.374 341.791 392.976 341.994 389.713C342.102 388.017 340.729 386.621 339.463 385.464C327.865 374.873 316.267 364.283 304.671 353.695C300.885 350.237 295.764 346.527 291.045 348.596L269 380.49Z" fill="#F06A66"/>
<path d="M316.665 389C316.665 389 319.668 385.387 316.665 381.648C313.662 377.911 286.73 355 286.73 355L272 380.646L316.665 389Z" fill="#F8B4A1"/>
<path d="M287.938 357C287.553 356.672 287.236 356.403 287 356.203L291.954 348.014C291.969 348.009 291.985 348.004 292 348C291.533 349.017 289.946 352.534 287.938 357Z" fill="#DC6062"/>
<path d="M276.71 382L272 381.12L287.131 356C287.35 356.186 287.643 356.437 288 356.742C283.502 366.788 276.71 382 276.71 382Z" fill="#D69D93"/>
<path d="M164.015 282C164.015 282 3.21487 297.049 0.557089 333.128C-2.10069 369.207 3.74475 387.839 40.25 386.971C76.7536 386.104 111.308 381.772 111.308 381.772L172 291.116L164.015 282Z" fill="#007D6F"/>
<path d="M37.3006 387C37.2568 387 37.2147 387 37.1726 387C27.6799 385.836 11.719 378.303 12.0038 340.722C12.3087 300.605 121.73 291 121.73 291L145 292.409C110.472 296.145 35.673 307.508 26.4247 336.437C16.7602 366.673 26.332 380.098 44.6046 386.359L44.025 386.848C44.025 386.848 44.0199 386.849 44.0081 386.851C42.5726 386.896 41.132 386.935 39.6898 386.97C38.8777 386.99 38.0824 387 37.3006 387Z" fill="#00776F"/>
<path d="M177 123C177 123 139.844 210.731 98 218.049L108.618 240.954C108.618 240.954 154.597 243.468 175.33 211.143L177 123Z" fill="#E2DCD2"/>
<path d="M300.127 277L162.771 291.056C162.771 291.056 38.9058 298.853 26.829 336.495C14.7521 374.139 32.7115 385.632 60.1477 389.727C98.1189 395.398 264.675 393.789 264.675 393.789L297.153 339.413C297.153 339.413 302.085 341.85 305.582 336.495C307.853 333.018 300.127 277 300.127 277Z" fill="#009F92"/>
<path d="M168 283.417L171.672 291L250 282.031L221.952 269L168 283.417Z" fill="#F3F3F4"/>
<path d="M170.105 219C155.513 201.846 164.332 182.764 168.11 174.528C171.885 166.292 174.544 130.179 174.544 130.179L174.546 130.174C175.612 127.982 176.436 126.222 177 125C176.403 127.206 176.153 129.833 176.152 132.899C176.152 136.027 176.41 139.611 176.82 143.673L175.745 164.554C174.39 174.027 169.372 182.803 168.31 192.311C168.174 193.532 168.108 194.758 168.11 195.985C168.113 202.462 169.998 208.934 173.498 214.503L170.105 219Z" fill="#BDBDBD"/>
<path d="M280.18 278.532L300 276.507C300 276.507 291.453 228.979 286.446 220.379C282.208 213.102 298.053 177.747 297.029 156.392C294.789 109.703 243.917 111.005 243.917 111.005L243.957 111.852C239.22 111.321 233.96 111 228.081 111L194.112 113.164C189.143 113.48 184.389 115.233 180.466 118.23C175.374 122.119 175.132 130.218 176.399 143.203L175.363 164.059C174.056 173.521 169.218 182.288 168.194 191.785C167.237 200.703 169.849 209.943 175.359 217.112C175.359 217.112 182.211 224.779 182.526 233.952L184.409 289L280.18 278.532Z" fill="#F3F3F4"/>
<path d="M299 130C299 130.551 269.672 131 233.503 131C197.321 131 168 130.551 168 130C168 129.447 197.321 129 233.503 129C269.672 129 299 129.447 299 130Z" fill="#FFD277"/>
<path d="M301 140.5C301 140.776 271.672 141 235.503 141C199.323 141 170 140.776 170 140.5C170 140.224 199.323 140 235.503 140C271.672 140 301 140.224 301 140.5Z" fill="#FFD277"/>
<path d="M301 156.001C301 156.552 271.672 157 235.503 157C199.323 157 170 156.552 170 156.001C170 155.448 199.323 155 235.503 155C271.672 155 301 155.448 301 156.001Z" fill="#FFD277"/>
<path d="M301 170.999C301 171.55 271.672 172 235.503 172C199.323 172 170 171.55 170 170.999C170 170.446 199.323 170 235.503 170C271.672 170 301 170.446 301 170.999Z" fill="#FFD277"/>
<path d="M301 186C301 186.551 271.672 187 235.503 187C199.323 187 170 186.551 170 186C170 185.447 199.323 185 235.503 185C271.672 185 301 185.447 301 186Z" fill="#FFD277"/>
<path d="M301 201.002C301 201.553 271.672 202 235.503 202C199.323 202 170 201.553 170 201.002C170 200.449 199.323 200 235.503 200C271.672 200 301 200.449 301 201.002Z" fill="#FFD277"/>
<path d="M301 215.998C301 216.553 271.672 217 235.503 217C199.323 217 170 216.553 170 215.998C170 215.447 199.323 215 235.503 215C271.672 215 301 215.447 301 215.998Z" fill="#FFD277"/>
<path d="M301 231.501C301 231.776 271.672 232 235.503 232C199.323 232 170 231.776 170 231.501C170 231.225 199.323 231 235.503 231C271.672 231 301 231.225 301 231.501Z" fill="#FFD277"/>
<path d="M301 246.5C301 246.776 271.672 247 235.503 247C199.323 247 170 246.776 170 246.5C170 246.225 199.323 246 235.503 246C271.672 246 301 246.225 301 246.5Z" fill="#FFD277"/>
<path d="M301 262C301 262.553 271.672 263 235.503 263C199.323 263 170 262.553 170 262C170 261.447 199.323 261 235.503 261C271.672 261 301 261.447 301 262Z" fill="#FFD277"/>
<path d="M301 276.998C301 277.551 271.672 278 235.503 278C199.323 278 170 277.551 170 276.998C170 276.447 199.323 276 235.503 276C271.672 276 301 276.447 301 276.998Z" fill="#FFD277"/>
<path d="M307 82.1282C302.444 84.0214 297.01 81.1138 294.468 76.9353C291.925 72.7551 291.547 67.6813 291.233 62.8176C290.54 52.0544 289.846 41.2895 289.153 30.5247C288.829 25.5104 288.442 20.286 285.861 15.9536C283.19 11.4722 278.202 8.41735 272.943 8.04004C267.685 7.66273 262.298 9.97457 259 14.0273L262.179 23.8688C270.212 21.5636 269.391 30.2632 269.391 30.2632V102.236C275.373 103.779 281.616 104.317 287.777 103.822C287.527 100.956 287.277 98.091 287.025 95.2264L293.759 103.166C293.759 103.166 304.27 98.8638 307 82.1282Z" fill="#303C5D"/>
<path d="M267.537 101C267.442 101.005 267.308 99.8937 267.148 97.8775C266.998 95.863 266.834 92.9437 266.721 89.3308C266.486 82.105 266.472 72.1036 267.057 61.0866C267.349 55.5748 267.755 50.3338 268.215 45.58C268.695 40.8228 269.224 36.5858 268.634 33.1149C268.109 29.6523 266.583 27.1688 265.278 25.8495C263.958 24.5021 262.947 24.1405 263.002 24.0117C263.008 23.9473 264.108 24.1141 265.632 25.407C267.135 26.6702 268.908 29.2361 269.599 32.9167C270.35 36.5841 269.889 41.0044 269.488 45.7137C269.098 50.4593 268.733 55.6821 268.443 61.1708C267.859 72.1465 267.717 82.1034 267.703 89.3126C267.697 92.8413 267.692 95.7342 267.689 97.856C267.682 99.8755 267.633 100.995 267.537 101Z" fill="#303C5D"/>
<path d="M302.731 72.6559C302.756 72.6624 302.489 73.0119 301.748 73.0037C301.038 72.9923 299.94 72.4305 299.484 71.1291C299.245 70.4841 299.388 69.6088 299.883 68.9425C300.373 68.2567 301.175 67.7358 302.101 67.4663C303.964 66.8736 306.415 67.481 308.101 69.1712C308.935 70.0138 309.629 71.1111 309.888 72.4011C310.155 73.6912 309.942 75.1119 309.291 76.3594C308.646 77.6086 307.569 78.719 306.155 79.3869C304.727 80.0662 303.035 80.1511 301.469 79.7886C298.302 79.0342 295.753 76.7709 293.762 74.2529C291.75 71.6875 290.258 68.6486 289.258 65.4186C287.248 58.9162 287.346 52.4285 287.544 46.7246C287.78 40.9913 288.088 35.8719 287.814 31.5838C287.589 27.2957 286.858 23.8844 286.171 21.5803C285.468 19.2779 284.899 18.0531 285.015 18.0009C285.091 17.9633 285.848 19.108 286.742 21.3974C287.62 23.6868 288.534 27.1536 288.902 31.5103C289.321 35.8654 289.122 41.0631 288.964 46.7638C288.841 52.4481 288.809 58.7692 290.736 64.9908C291.694 68.082 293.101 70.9576 294.969 73.3727C296.831 75.7716 299.155 77.7932 301.809 78.4529C303.104 78.7729 304.462 78.7109 305.574 78.203C306.695 77.6985 307.606 76.8085 308.153 75.7944C308.709 74.7804 308.903 73.6471 308.719 72.6118C308.54 71.5683 307.991 70.631 307.308 69.8978C305.917 68.42 303.896 67.8468 302.336 68.2681C300.743 68.6127 299.741 69.9484 300.064 70.9772C300.339 72.0354 301.212 72.6216 301.78 72.7049C302.379 72.8077 302.699 72.5824 302.731 72.6559Z" fill="#303C5D"/>
<path d="M255 14H259.355C259.355 14 263.178 17.7684 262.994 24.7219L258.918 26L255 14Z" fill="#FCBD46"/>
<path d="M185 62.9824C185 62.9824 174 63.7267 174 55.5348C174 47.3429 184.073 48.0133 184.073 48.0133L185 62.9824Z" fill="#F8B4A1"/>
<path d="M182 59.8523C182.025 59.9294 181.08 60.1804 179.629 59.7752C178.918 59.5669 178.103 59.1848 177.41 58.5451C176.711 57.912 176.2 57.0148 176.045 56.0241C175.897 55.0334 176.121 54.0542 176.605 53.2899C177.084 52.5239 177.762 51.9777 178.385 51.6251C179.671 50.9214 180.658 50.9624 180.658 51.0428C180.692 51.1609 179.802 51.3167 178.754 52.0499C177.714 52.7502 176.625 54.2018 176.92 55.9273C177.156 57.6627 178.644 58.8272 179.86 59.2832C181.09 59.767 182 59.7293 182 59.8523Z" fill="#F38879"/>
<path d="M177.014 55.7051C177.15 55.461 177.971 56.0892 179.036 55.8766C180.108 55.7244 180.8 54.8377 180.971 55.0262C181.049 55.1131 180.975 55.5045 180.664 55.9563C180.361 56.4057 179.803 56.8551 179.127 56.9711C178.456 57.0871 177.837 56.8382 177.468 56.5024C177.092 56.169 176.953 55.8162 177.014 55.7051Z" fill="#F38879"/>
<path d="M244.502 85.6226C244.502 85.6226 209.094 86.4717 202.828 85.6226C194.577 84.5054 189.794 82.8188 187.131 77.4694C182.55 68.2663 182 10.4808 182 10.4808L236.316 9.00317C241.095 8.87482 245.035 12.6627 245 17.3588L244.502 85.6226Z" fill="#F8B4A1"/>
<path d="M200 65.8495V119H245L244.836 54L200 65.8495Z" fill="#F8B4A1"/>
<path d="M201.006 61.9768C201.124 61.8885 201.901 63.1164 203.817 64.3573C205.675 65.5933 208.884 66.7312 212.322 66.0658C215.758 65.3742 218.224 63.1049 219.405 61.2607C220.638 59.3887 220.826 57.9647 220.974 58.0007C221.018 58.0072 221.016 58.362 220.888 58.9914C220.765 59.6209 220.462 60.5152 219.881 61.5289C218.767 63.5333 216.202 66.0462 212.481 66.7982C208.757 67.516 205.36 66.1949 203.496 64.7873C202.537 64.081 201.883 63.378 201.503 62.8499C201.119 62.3251 200.967 62.0013 201.006 61.9768Z" fill="#F38879"/>
<path d="M221.765 43.9456C221.318 44.1911 220.327 43.5934 219.635 42.4027C219.048 41.3827 218.767 40.3132 219.236 40.055C219.681 39.8079 220.673 40.4056 221.364 41.5978C221.952 42.6163 222.233 43.6874 221.765 43.9456Z" fill="#293347"/>
<path d="M196.764 45.945C196.317 46.1921 195.328 45.5942 194.635 44.4033C194.048 43.383 193.767 42.3133 194.236 42.055C194.683 41.8079 195.672 42.4057 196.365 43.5982C196.952 44.617 197.233 45.6883 196.764 45.945Z" fill="#293347"/>
<path d="M192.94 58C190.504 58 188.423 56.985 188.051 55.3202C187.63 53.4551 189.867 51.4008 193.096 51.0517C193.412 51.0162 193.725 51 194.029 51C196.819 51 198.982 52.4061 199 54.1275C199.023 56.0508 196.731 57.6347 193.901 57.9483C193.577 57.9822 193.256 58 192.94 58Z" fill="#F6A191"/>
<path d="M229.941 55C227.505 55 225.423 53.9853 225.05 52.3216C224.632 50.4552 226.87 48.4 230.098 48.0515C230.414 48.0172 230.724 48 231.028 48C233.818 48 235.98 49.4062 236 51.13C236.023 53.0513 233.73 54.636 230.903 54.9485C230.578 54.9828 230.257 55 229.941 55Z" fill="#F6A191"/>
<path d="M200 86C200 86 208.884 89.2348 221 86.6031L200.003 92L200 86Z" fill="#F38879"/>
<path d="M212.507 69C210.675 69 209.26 68.3348 209.029 67.2148C209.014 67.1359 209.003 67.0589 209 66.98C209.492 67.0532 209.999 67.0927 210.516 67.0927C211.211 67.0927 211.927 67.0213 212.655 66.8616C214.926 66.3373 216.772 65.0689 218.122 63.6389C218.573 63.932 218.873 64.3191 218.968 64.7852C219.28 66.2997 217.307 68.0717 214.564 68.7426C213.848 68.9173 213.152 69 212.507 69ZM210.413 66.2452C209.983 66.2452 209.561 66.217 209.15 66.1663C209.645 64.9562 211.308 63.7779 213.434 63.2574C214.15 63.0827 214.847 63 215.492 63C216.217 63 216.875 63.1052 217.422 63.3006C216.141 64.5127 214.478 65.565 212.494 66.0197C211.787 66.1757 211.09 66.2452 210.413 66.2452Z" fill="#F6A493"/>
<path d="M210.498 67C209.988 67 209.487 66.9688 209.003 66.9108C208.987 66.6982 209.04 66.4827 209.151 66.2671C209.555 66.3072 209.972 66.3295 210.396 66.3295C211.064 66.3295 211.752 66.2745 212.449 66.1511C214.405 65.7914 216.045 64.9589 217.309 64C217.566 64.0728 217.798 64.1635 218 64.2676C216.668 65.3989 214.848 66.4024 212.607 66.8171C211.889 66.9435 211.183 67 210.498 67Z" fill="#F49080"/>
<path d="M216.176 8.85996C225.033 18.8729 241.567 19.7408 244.722 72.5622C244.786 73.6255 258.508 75.6968 259.958 38.3206C260.104 34.5249 259.965 22.7924 257.875 18.1157C254.792 11.226 246.171 8.35191 238.357 7.30649C230.544 6.25944 222.656 8.08649 215 9.9005" fill="#303C5D"/>
<path d="M246.467 60C246.467 60 256.687 59.7432 255.963 51.6469C255.239 43.5505 246 45.1231 246 45.1231L246.467 60Z" fill="#F8B4A1"/>
<path d="M249 56.9073C248.988 56.7848 249.813 56.7521 250.876 56.1739C251.93 55.6267 253.158 54.3543 253.198 52.6163C253.293 50.88 252.165 49.5275 251.154 48.915C250.135 48.2714 249.315 48.1881 249.336 48.0656C249.328 47.9872 250.214 47.8679 251.447 48.4641C252.044 48.7663 252.71 49.2531 253.218 49.9767C253.733 50.6954 254.034 51.6493 253.997 52.6441C253.957 53.6372 253.584 54.5666 253.016 55.2494C252.454 55.9371 251.753 56.3814 251.135 56.6427C249.864 57.1589 248.986 56.9874 249 56.9073Z" fill="#F38879"/>
<path d="M252.981 52.1076C253.05 52.1663 252.937 52.3815 252.586 52.6024C252.242 52.8232 251.645 53.0133 250.972 52.9993C250.297 52.9839 249.716 52.7687 249.387 52.5325C249.049 52.2963 248.95 52.0755 249.022 52.021C249.181 51.898 249.921 52.3564 250.992 52.3606C252.062 52.4011 252.832 51.9776 252.981 52.1076Z" fill="#F38879"/>
<path d="M169.008 35C168.721 25.4518 176.404 8.69006 184.86 3.93994C193.314 -0.810189 204.005 -1.15385 213.088 2.3092C222.171 5.77225 231.357 25.9772 236 34.3755C226.509 34.6662 210.002 32.4903 200.423 33.4452L199.392 20.3267L196.447 31.6741C187.243 32.7067 178.069 33.8815 169.008 35Z" fill="#303C5D"/>
<path d="M207.99 55.9655C207.985 56.0054 207.626 56.0237 206.972 55.9472C206.321 55.869 205.37 55.6843 204.255 55.25C203.706 55.0071 203.098 54.8107 202.491 54.3115C202.227 54.0769 201.885 53.6726 202.038 53.1485C202.19 52.626 202.815 52.408 203.236 52.3764C204.962 52.3481 206.666 52.4729 208.61 52.5345L208.179 52.8939C208.162 51.6393 208.144 50.3131 208.125 48.9421C208.083 44.5427 208.09 40.5609 208.138 37.6757C208.186 34.7904 208.273 33.0033 208.39 33C208.506 32.995 208.63 34.7771 208.734 37.664C208.839 40.5492 208.928 44.5393 208.97 48.947C208.98 50.3198 208.989 51.6493 208.996 52.9072L209 53.2882L208.567 53.2683C206.678 53.1851 204.804 53.0303 203.32 53.007C202.578 53.0519 202.475 53.4962 202.939 53.9222C203.355 54.3099 203.983 54.5794 204.477 54.8257C206.565 55.7592 208.016 55.8507 207.99 55.9655Z" fill="#F38879"/>
<path d="M203 0.775541C202.967 1.04945 199.956 0.499981 195.205 1.15278C190.51 1.76293 183.98 3.93455 178.74 8.82396C173.513 13.7298 171.057 19.9691 170.278 24.4829C169.451 29.0525 169.923 31.9769 169.639 31.9999C169.546 32.0113 169.332 31.3011 169.156 29.9792C168.976 28.6572 168.908 26.7103 169.195 24.3271C169.718 19.6066 172.121 12.949 177.66 7.74636C183.214 2.56499 190.177 0.457326 195.078 0.101404C197.553 -0.10034 199.562 0.0259644 200.925 0.24411C202.288 0.455695 203.017 0.68533 203 0.775541Z" fill="#303C5D"/>
<path d="M297 339.722C297 339.733 296.815 339.75 296.455 339.771C296.045 339.786 295.515 339.809 294.849 339.839C293.379 339.886 291.31 339.951 288.674 340.034C283.311 340.186 275.551 340.366 265.96 340.522C246.777 340.851 220.271 341.067 190.997 340.981C161.712 340.885 135.206 340.502 116.027 340.041C106.437 339.823 98.6803 339.587 93.3189 339.396C90.6862 339.293 88.6174 339.212 87.1496 339.155C86.4813 339.122 85.9528 339.094 85.5454 339.075C85.1835 339.051 85 339.035 85 339.022C85 339.01 85.1851 339.003 85.5487 339C85.9578 339.003 86.4864 339.006 87.1546 339.01C88.6242 339.035 90.693 339.071 93.3307 339.115C98.7527 339.214 106.496 339.355 116.042 339.53C135.222 339.859 161.722 340.163 191 340.258C220.268 340.345 246.768 340.208 265.95 340.011C275.497 339.901 283.244 339.814 288.666 339.752C291.304 339.726 293.374 339.708 294.844 339.693C295.512 339.694 296.042 339.694 296.451 339.696C296.813 339.7 296.998 339.709 297 339.722Z" fill="#03665C"/>
<path d="M93.974 338.992C93.7958 339.114 92.7706 337.875 91.6792 336.224C90.5879 334.572 89.8496 333.132 90.0261 333.009C90.2026 332.885 91.2295 334.124 92.3209 335.777C93.4088 337.428 94.1505 338.87 93.974 338.992Z" fill="#03665C"/>
<path d="M31 378.961C30.9967 378.872 32.0052 378.897 33.7524 378.512C35.475 378.088 37.9626 377.158 40.4304 375.109C42.8966 373.096 45.3661 370.033 46.9438 366.093C48.5331 362.148 49.2094 357.429 49.2455 352.498C49.2817 348.438 48.979 344.521 48.6911 340.885C48.3851 337.26 47.852 333.921 46.8961 331.101C45.9518 328.28 44.606 326.015 43.2552 324.397C41.9012 322.774 40.567 321.801 39.6934 321.234L39.8332 321.204C39.1685 322.093 38.8477 322.49 38.8181 322.467C38.7868 322.447 39.0501 322.008 39.6588 321.078L39.7114 321L39.8003 321.048C40.7266 321.555 42.1398 322.492 43.5777 324.114C45.014 325.729 46.4486 328.026 47.4621 330.901C48.4871 333.771 49.0662 337.17 49.3985 340.821C49.7144 344.472 50.032 348.393 49.9974 352.506C49.9612 357.495 49.2554 362.317 47.5839 366.355C45.9222 370.405 43.3375 373.514 40.7594 375.529C38.1797 377.582 35.5869 378.459 33.8133 378.799C32.9101 378.936 32.2076 379.017 31.7272 378.997C31.2501 378.999 31 378.987 31 378.961Z" fill="#03665C"/>
<path d="M251 59.9991C251 61.1031 250.105 62 248.999 62C247.895 62 247 61.1031 247 59.9991C247 58.8934 247.895 58 248.999 58C250.105 58 251 58.8934 251 59.9991Z" fill="#9DD9E4"/>
<path d="M184 63.0009C184 64.1048 183.103 65 181.999 65C180.895 65 180 64.1048 180 63.0009C180 61.8952 180.895 61 181.999 61C183.103 61 184 61.8952 184 63.0009Z" fill="#9DD9E4"/>
<path d="M195.997 34.644C195.947 35.1246 194.281 35.2281 192.468 36.121C190.639 36.9658 189.383 38.258 189.061 37.9549C188.736 37.7145 189.713 35.6034 191.93 34.5571C194.141 33.4904 196.089 34.2058 195.997 34.644Z" fill="#303C5D"/>
<path d="M227.967 33.9481C227.66 34.2844 225.78 32.8864 223.072 32.6341C220.375 32.303 218.246 33.2683 218.015 32.8724C217.912 32.6972 218.333 32.1769 219.266 31.7004C220.189 31.2256 221.644 30.8735 223.24 31.0434C224.835 31.2186 226.186 31.8721 226.989 32.536C227.802 33.2 228.107 33.7974 227.967 33.9481Z" fill="#303C5D"/>
<path d="M189 115.528C189 115.528 194.897 152.019 208.903 153.934C222.908 155.85 266 115.342 266 115.342C266 115.342 255.183 109.759 222.304 111.255C189.423 112.752 189 115.528 189 115.528Z" fill="#F8B4A1"/>
<path d="M280 123.168C280.024 123.329 277.3 122.656 272.793 124.105C270.574 124.845 268.012 126.214 265.495 128.342C263.013 130.499 260.574 133.418 258.76 137.094C256.962 140.78 255.821 145.169 255.172 149.93C254.505 154.702 254.345 159.86 254.031 165.291C253.66 170.721 253.14 176.418 252.205 182.276C251.274 188.128 250.04 194.152 248.459 200.243C245.238 212.419 240.943 223.701 236.14 233.539C233.791 238.484 231.224 243.025 228.77 247.239C226.247 251.411 223.824 255.273 221.224 258.544C216.129 265.159 210.515 269.401 206.11 271.183C205.036 271.682 204.01 271.963 203.148 272.251C202.253 272.455 201.514 272.679 200.893 272.766C200.307 272.844 199.842 272.906 199.482 272.956C199.165 272.994 199.002 273.008 199.001 272.995C198.956 272.841 201.69 272.847 205.985 270.916C210.3 269.072 215.784 264.83 220.786 258.225C223.337 254.959 225.719 251.102 228.214 246.928C230.635 242.717 233.172 238.182 235.493 233.246C240.244 223.428 244.502 212.185 247.707 200.057C249.283 193.991 250.517 187.993 251.454 182.164C252.397 176.331 252.928 170.66 253.319 165.25C253.653 159.835 253.836 154.656 254.533 149.846C255.217 145.044 256.402 140.605 258.267 136.865C260.147 133.131 262.658 130.188 265.21 128.026C267.798 125.891 270.426 124.536 272.698 123.826C274.977 123.105 276.852 123.021 278.099 123C278.726 123.025 279.201 123.079 279.52 123.104C279.839 123.133 280.002 123.156 280 123.168Z" fill="#03665C"/>
<path d="M285.991 215C286.019 215.005 285.981 215.268 285.889 215.764C285.772 216.342 285.626 217.058 285.451 217.926C285.065 219.803 284.422 222.503 283.584 225.829C281.832 232.444 279.209 241.627 274.507 251.073C272.153 255.787 269.484 260.068 266.815 263.788C264.156 267.521 261.421 270.631 259.087 273.196C256.709 275.725 254.72 277.712 253.274 279.01C252.608 279.614 252.058 280.11 251.616 280.512C251.231 280.85 251.02 281.018 251.001 280.998C250.984 280.98 251.158 280.775 251.508 280.405C251.922 279.975 252.436 279.447 253.06 278.802C254.44 277.442 256.363 275.404 258.676 272.842C260.947 270.244 263.621 267.118 266.227 263.391C268.845 259.676 271.471 255.42 273.808 250.744C278.473 241.374 281.169 232.26 283.054 225.694C283.919 222.465 284.63 219.817 285.155 217.86C285.39 217.005 285.582 216.3 285.738 215.73C285.879 215.245 285.966 214.994 285.991 215Z" fill="#03665C"/>
<path d="M207.79 40.5H207.58C207.58 44.3926 205.947 47.9148 203.31 50.466C200.671 53.0172 197.027 54.594 193.001 54.594C188.974 54.594 185.331 53.0172 182.692 50.466C180.053 47.9148 178.42 44.3926 178.42 40.5C178.42 36.6075 180.053 33.0852 182.692 30.534C185.331 27.9828 188.974 26.406 193.001 26.406C197.027 26.406 200.671 27.9828 203.31 30.534C205.947 33.0852 207.58 36.6075 207.58 40.5H207.79H208C208 32.4908 201.284 26 193.001 26C184.718 26 178 32.4908 178 40.5C178 48.5076 184.718 55 193.001 55C201.284 55 208 48.5076 208 40.5H207.79Z" fill="#303C5D"/>
<path d="M239.783 40.5H239.566C239.566 44.3926 237.88 47.9148 235.153 50.466C232.426 53.0172 228.661 54.594 224.498 54.594C220.337 54.594 216.572 53.0172 213.847 50.466C211.12 47.9148 209.434 44.3926 209.434 40.5C209.434 36.6075 211.12 33.0852 213.847 30.534C216.572 27.9828 220.337 26.406 224.498 26.406C228.661 26.406 232.426 27.9828 235.153 30.534C237.88 33.0852 239.566 36.6075 239.566 40.5H239.783H240C240 32.4908 233.062 26 224.498 26C215.938 26 209 32.4908 209 40.5C209 48.5076 215.938 55 224.498 55C233.062 55 240 48.5076 240 40.5H239.783Z" fill="#303C5D"/>
<path d="M248 282C249.284 281.201 250.53 280.339 251.738 279.42C251.479 279.687 251.247 279.93 251.04 280.146C250.693 280.516 250.521 280.721 250.538 280.739C250.54 280.74 250.542 280.74 250.543 280.74C250.579 280.74 250.786 280.574 251.147 280.253C251.585 279.852 252.129 279.357 252.789 278.754C253.211 278.371 253.681 277.929 254.194 277.43C254.244 277.386 254.297 277.341 254.347 277.298C257.092 277.287 259.76 277.273 262.337 277.259C254.509 281.082 248 282 248 282ZM265.276 275.712C262.357 275.692 259.312 275.675 256.158 275.66C260.386 271.672 264.091 267.003 267.314 262.07C272.2 262.034 276.697 261.989 280.696 261.938C276.255 268.292 270.616 272.69 265.276 275.712ZM281.52 260.715C277.573 260.662 273.124 260.617 268.268 260.579C268.512 260.19 268.753 259.802 268.99 259.409C270.672 256.765 272.308 253.909 273.812 250.87C274.481 249.52 275.105 248.174 275.691 246.84C280.123 246.794 284.088 246.739 287.479 246.68C286.163 252.146 284.071 256.782 281.52 260.715ZM287.715 245.655C284.42 245.595 280.57 245.542 276.27 245.496C276.613 244.686 276.943 243.88 277.258 243.081C278.975 239.013 280.405 235.115 281.575 231.615C284.297 231.579 286.776 231.541 288.979 231.498C289.107 236.733 288.641 241.432 287.715 245.655ZM288.949 230.522C286.86 230.483 284.527 230.445 281.972 230.41C283.815 224.754 284.945 220.27 285.473 218C285.576 218.918 285.785 219.676 286.123 220.257C286.919 221.629 287.803 223.985 288.73 226.981C288.833 228.188 288.905 229.367 288.949 230.522Z" fill="#CCD0D8"/>
<path d="M282 232C282.129 231.663 282.255 231.327 282.376 231C284.791 231.029 286.997 231.06 288.971 231.093C288.982 231.364 288.992 231.634 289 231.903C286.917 231.938 284.573 231.97 282 232Z" fill="#DBB771"/>
<path d="M276 247C276.197 246.666 276.39 246.333 276.578 246C280.87 246.034 284.711 246.074 288 246.118C287.924 246.373 287.845 246.629 287.765 246.881C284.38 246.925 280.423 246.966 276 247Z" fill="#DBB771"/>
<path d="M268 262C268.318 261.668 268.632 261.334 268.94 261C273.726 261.025 278.11 261.055 282 261.091C281.735 261.369 281.463 261.643 281.189 261.911C277.248 261.946 272.815 261.976 268 262Z" fill="#DBB771"/>
<path d="M255 278C255.618 277.351 256.225 276.683 256.823 276C259.998 276.018 263.062 276.038 266 276.063C265 276.748 264.011 277.377 263.042 277.952C260.448 277.97 257.763 277.986 255 278Z" fill="#DBB771"/>
<path d="M251.006 281C251.005 281 251.003 281 251.001 280.998C250.984 280.98 251.158 280.773 251.508 280.4C251.717 280.182 251.952 279.937 252.214 279.667C253.059 279.024 253.886 278.355 254.695 277.66C254.176 278.163 253.702 278.609 253.275 278.996C252.608 279.604 252.059 280.104 251.617 280.509C251.251 280.832 251.042 281 251.006 281ZM269.646 259.475C272.964 254.036 275.73 248.372 278 243C277.682 243.806 277.349 244.619 277.002 245.437C276.811 245.889 276.616 246.34 276.417 246.793C275.825 248.139 275.194 249.497 274.519 250.86C272.998 253.926 271.345 256.808 269.646 259.475Z" fill="#135D5C"/>
<path d="M23 194L41.8598 284H222V275.127L173.224 273.226L156.968 194H23Z" fill="#293347"/>
<path d="M109 283C109 283 133.891 291.622 152.078 290.964L172 290.997L168.308 283H109Z" fill="#F8B4A1"/>
<path d="M110 243H89V239H110V243Z" fill="#477287"/>
<path d="M220.658 166L218 164.715C220.539 159.769 224.944 158.757 228.817 157.87C232.517 157.016 235.74 156.281 237.659 152.544C239.577 148.807 238.245 145.878 236.71 142.485C235.105 138.943 233.287 134.927 235.825 129.982C238.364 125.034 242.763 124.019 246.641 123.132C250.35 122.284 253.568 121.543 255.486 117.802C257.407 114.055 256.083 111.123 254.545 107.726C252.943 104.18 251.125 100.161 253.669 95.2075C256.209 90.2578 260.613 89.2442 264.489 88.3456C268.212 87.4864 271.423 86.7488 273.344 83L276 84.2847C273.459 89.2393 269.073 90.2529 265.177 91.1482C261.441 92.0107 258.245 92.7499 256.325 96.4938C254.404 100.239 255.729 103.172 257.266 106.569C258.866 110.114 260.686 114.134 258.142 119.087C255.604 124.033 251.212 125.045 247.323 125.936C243.621 126.79 240.402 127.528 238.48 131.267C236.563 135.004 237.891 137.933 239.428 141.325C241.035 144.867 242.851 148.884 240.315 153.829C237.775 158.777 233.38 159.787 229.497 160.672C225.797 161.522 222.575 162.261 220.658 166Z" fill="#1BB793"/>
<path d="M269 380.49C290.6 384.578 312.201 388.667 333.804 392.756C337.068 393.374 341.791 392.976 341.994 389.713C342.102 388.017 340.729 386.621 339.463 385.464C327.865 374.873 316.267 364.283 304.671 353.695C300.885 350.237 295.764 346.527 291.045 348.596L269 380.49Z" fill="#F21D2F"/>
<path d="M316.665 389C316.665 389 319.668 385.387 316.665 381.648C313.662 377.911 286.73 355 286.73 355L272 380.646L316.665 389Z" fill="#F8B4A1"/>
<path d="M287.938 357C287.553 356.672 287.236 356.403 287 356.203L291.954 348.014C291.969 348.009 291.985 348.004 292 348C291.533 349.017 289.946 352.534 287.938 357Z" fill="#DC6062"/>
<path d="M276.71 382L272 381.12L287.131 356C287.35 356.186 287.643 356.437 288 356.742C283.502 366.788 276.71 382 276.71 382Z" fill="#D69D93"/>
<path d="M164.015 282C164.015 282 3.21487 297.049 0.557089 333.128C-2.10069 369.207 3.74475 387.839 40.25 386.971C76.7536 386.104 111.308 381.772 111.308 381.772L172 291.116L164.015 282Z" fill="#1B1A1A"/>
<path d="M37.3006 387C37.2568 387 37.2147 387 37.1726 387C27.6799 385.836 11.719 378.303 12.0038 340.722C12.3087 300.605 121.73 291 121.73 291L145 292.409C110.472 296.145 35.673 307.508 26.4247 336.437C16.7602 366.673 26.332 380.098 44.6046 386.359L44.025 386.848C44.025 386.848 44.0199 386.849 44.0081 386.851C42.5726 386.896 41.132 386.935 39.6898 386.97C38.8777 386.99 38.0824 387 37.3006 387Z" fill="#1E1E1E"/>
<path d="M177 123C177 123 139.844 210.731 98 218.049L108.618 240.954C108.618 240.954 154.597 243.468 175.33 211.143L177 123Z" fill="#680707"/>
<path d="M300.127 277L162.771 291.056C162.771 291.056 38.9058 298.853 26.829 336.495C14.7521 374.139 32.7115 385.632 60.1477 389.727C98.1189 395.398 264.675 393.789 264.675 393.789L297.153 339.413C297.153 339.413 302.085 341.85 305.582 336.495C307.853 333.018 300.127 277 300.127 277Z" fill="#1B1A1A"/>
<path d="M168 283.417L171.672 291L250 282.031L221.952 269L168 283.417Z" fill="#F3F3F4"/>
<path d="M170.105 219C155.513 201.846 164.332 182.764 168.11 174.528C171.885 166.292 174.544 130.179 174.544 130.179L174.546 130.174C175.612 127.982 176.436 126.222 177 125C176.403 127.206 176.153 129.833 176.152 132.899C176.152 136.027 176.41 139.611 176.82 143.673L175.745 164.554C174.39 174.027 169.372 182.803 168.31 192.311C168.174 193.532 168.108 194.758 168.11 195.985C168.113 202.462 169.998 208.934 173.498 214.503L170.105 219Z" fill="#680707"/>
<path d="M280.18 278.532L300 276.507C300 276.507 291.453 228.979 286.446 220.379C282.208 213.102 298.053 177.747 297.029 156.392C294.789 109.703 243.917 111.005 243.917 111.005L243.957 111.852C239.22 111.321 233.96 111 228.081 111L194.112 113.164C189.143 113.48 184.389 115.233 180.466 118.23C175.374 122.119 175.132 130.218 176.399 143.203L175.363 164.059C174.056 173.521 169.218 182.288 168.194 191.785C167.237 200.703 169.849 209.943 175.359 217.112C175.359 217.112 182.211 224.779 182.526 233.952L184.409 289L280.18 278.532Z" fill="#680707"/>
<path d="M299 130C299 130.551 269.672 131 233.503 131C197.321 131 168 130.551 168 130C168 129.447 197.321 129 233.503 129C269.672 129 299 129.447 299 130Z" fill="white"/>
<path d="M301 140.5C301 140.776 271.672 141 235.503 141C199.323 141 170 140.776 170 140.5C170 140.224 199.323 140 235.503 140C271.672 140 301 140.224 301 140.5Z" fill="white"/>
<path d="M301 156.001C301 156.552 271.672 157 235.503 157C199.323 157 170 156.552 170 156.001C170 155.448 199.323 155 235.503 155C271.672 155 301 155.448 301 156.001Z" fill="white"/>
<path d="M301 170.999C301 171.55 271.672 172 235.503 172C199.323 172 170 171.55 170 170.999C170 170.446 199.323 170 235.503 170C271.672 170 301 170.446 301 170.999Z" fill="white"/>
<path d="M301 186C301 186.551 271.672 187 235.503 187C199.323 187 170 186.551 170 186C170 185.447 199.323 185 235.503 185C271.672 185 301 185.447 301 186Z" fill="white"/>
<path d="M301 201.002C301 201.553 271.672 202 235.503 202C199.323 202 170 201.553 170 201.002C170 200.449 199.323 200 235.503 200C271.672 200 301 200.449 301 201.002Z" fill="white"/>
<path d="M301 215.998C301 216.553 271.672 217 235.503 217C199.323 217 170 216.553 170 215.998C170 215.447 199.323 215 235.503 215C271.672 215 301 215.447 301 215.998Z" fill="white"/>
<path d="M301 231.501C301 231.776 271.672 232 235.503 232C199.323 232 170 231.776 170 231.501C170 231.225 199.323 231 235.503 231C271.672 231 301 231.225 301 231.501Z" fill="white"/>
<path d="M301 246.5C301 246.776 271.672 247 235.503 247C199.323 247 170 246.776 170 246.5C170 246.225 199.323 246 235.503 246C271.672 246 301 246.225 301 246.5Z" fill="white"/>
<path d="M301 262C301 262.553 271.672 263 235.503 263C199.323 263 170 262.553 170 262C170 261.447 199.323 261 235.503 261C271.672 261 301 261.447 301 262Z" fill="white"/>
<path d="M301 276.998C301 277.551 271.672 278 235.503 278C199.323 278 170 277.551 170 276.998C170 276.447 199.323 276 235.503 276C271.672 276 301 276.447 301 276.998Z" fill="white"/>
<path d="M307 82.1282C302.444 84.0214 297.01 81.1138 294.468 76.9353C291.925 72.7551 291.547 67.6813 291.233 62.8176C290.54 52.0544 289.846 41.2895 289.153 30.5247C288.829 25.5104 288.442 20.286 285.861 15.9536C283.19 11.4722 278.202 8.41735 272.943 8.04004C267.685 7.66273 262.298 9.97457 259 14.0273L262.179 23.8688C270.212 21.5636 269.391 30.2632 269.391 30.2632V102.236C275.373 103.779 281.616 104.317 287.777 103.822C287.527 100.956 287.277 98.091 287.025 95.2264L293.759 103.166C293.759 103.166 304.27 98.8638 307 82.1282Z" fill="#1B1A1A"/>
<path d="M267.537 101C267.442 101.005 267.308 99.8937 267.148 97.8775C266.998 95.863 266.834 92.9437 266.721 89.3308C266.486 82.105 266.472 72.1036 267.057 61.0866C267.349 55.5748 267.755 50.3338 268.215 45.58C268.695 40.8228 269.224 36.5858 268.634 33.1149C268.109 29.6523 266.583 27.1688 265.278 25.8495C263.958 24.5021 262.947 24.1405 263.002 24.0117C263.008 23.9473 264.108 24.1141 265.632 25.407C267.135 26.6702 268.908 29.2361 269.599 32.9167C270.35 36.5841 269.889 41.0044 269.488 45.7137C269.098 50.4593 268.733 55.6821 268.443 61.1708C267.859 72.1465 267.717 82.1034 267.703 89.3126C267.697 92.8413 267.692 95.7342 267.689 97.856C267.682 99.8755 267.633 100.995 267.537 101Z" fill="#F21D2F"/>
<path d="M302.731 72.6559C302.756 72.6624 302.489 73.0119 301.748 73.0037C301.038 72.9923 299.94 72.4305 299.484 71.1291C299.245 70.4841 299.388 69.6088 299.883 68.9425C300.373 68.2567 301.175 67.7358 302.101 67.4663C303.964 66.8736 306.415 67.481 308.101 69.1712C308.935 70.0138 309.629 71.1111 309.888 72.4011C310.155 73.6912 309.942 75.1119 309.291 76.3594C308.646 77.6086 307.569 78.719 306.155 79.3869C304.727 80.0662 303.035 80.1511 301.469 79.7886C298.302 79.0342 295.753 76.7709 293.762 74.2529C291.75 71.6875 290.258 68.6486 289.258 65.4186C287.248 58.9162 287.346 52.4285 287.544 46.7246C287.78 40.9913 288.088 35.8719 287.814 31.5838C287.589 27.2957 286.858 23.8844 286.171 21.5803C285.468 19.2779 284.899 18.0531 285.015 18.0009C285.091 17.9633 285.848 19.108 286.742 21.3974C287.62 23.6868 288.534 27.1536 288.902 31.5103C289.321 35.8654 289.122 41.0631 288.964 46.7638C288.841 52.4481 288.809 58.7692 290.736 64.9908C291.694 68.082 293.101 70.9576 294.969 73.3727C296.831 75.7716 299.155 77.7932 301.809 78.4529C303.104 78.7729 304.462 78.7109 305.574 78.203C306.695 77.6985 307.606 76.8085 308.153 75.7944C308.709 74.7804 308.903 73.6471 308.719 72.6118C308.54 71.5683 307.991 70.631 307.308 69.8978C305.917 68.42 303.896 67.8468 302.336 68.2681C300.743 68.6127 299.741 69.9484 300.064 70.9772C300.339 72.0354 301.212 72.6216 301.78 72.7049C302.379 72.8077 302.699 72.5824 302.731 72.6559Z" fill="#F21D2F"/>
<path d="M255 14H259.355C259.355 14 263.178 17.7684 262.994 24.7219L258.918 26L255 14Z" fill="#FCBD46"/>
<path d="M185 62.9824C185 62.9824 174 63.7267 174 55.5348C174 47.3429 184.073 48.0133 184.073 48.0133L185 62.9824Z" fill="#F8B4A1"/>
<path d="M182 59.8523C182.025 59.9294 181.08 60.1804 179.629 59.7752C178.918 59.5669 178.103 59.1848 177.41 58.5451C176.711 57.912 176.2 57.0148 176.045 56.0241C175.897 55.0334 176.121 54.0542 176.605 53.2899C177.084 52.5239 177.762 51.9777 178.385 51.6251C179.671 50.9214 180.658 50.9624 180.658 51.0428C180.692 51.1609 179.802 51.3167 178.754 52.0499C177.714 52.7502 176.625 54.2018 176.92 55.9273C177.156 57.6627 178.644 58.8272 179.86 59.2832C181.09 59.767 182 59.7293 182 59.8523Z" fill="#F38879"/>
<path d="M177.014 55.7051C177.15 55.461 177.971 56.0892 179.036 55.8766C180.108 55.7244 180.8 54.8377 180.971 55.0262C181.049 55.1131 180.975 55.5045 180.664 55.9563C180.361 56.4057 179.803 56.8551 179.127 56.9711C178.456 57.0871 177.837 56.8382 177.468 56.5024C177.092 56.169 176.953 55.8162 177.014 55.7051Z" fill="#F38879"/>
<path d="M244.502 85.6226C244.502 85.6226 209.094 86.4717 202.828 85.6226C194.577 84.5054 189.794 82.8188 187.131 77.4694C182.55 68.2663 182 10.4808 182 10.4808L236.316 9.00317C241.095 8.87482 245.035 12.6627 245 17.3588L244.502 85.6226Z" fill="#F8B4A1"/>
<path d="M200 65.8495V119H245L244.836 54L200 65.8495Z" fill="#F8B4A1"/>
<path d="M201.006 61.9768C201.124 61.8885 201.901 63.1164 203.817 64.3573C205.675 65.5933 208.884 66.7312 212.322 66.0658C215.758 65.3742 218.224 63.1049 219.405 61.2607C220.638 59.3887 220.826 57.9647 220.974 58.0007C221.018 58.0072 221.016 58.362 220.888 58.9914C220.765 59.6209 220.462 60.5152 219.881 61.5289C218.767 63.5333 216.202 66.0462 212.481 66.7982C208.757 67.516 205.36 66.1949 203.496 64.7873C202.537 64.081 201.883 63.378 201.503 62.8499C201.119 62.3251 200.967 62.0013 201.006 61.9768Z" fill="#F38879"/>
<path d="M221.765 43.9456C221.318 44.1911 220.327 43.5934 219.635 42.4027C219.048 41.3827 218.767 40.3132 219.236 40.055C219.681 39.8079 220.673 40.4056 221.364 41.5978C221.952 42.6163 222.233 43.6874 221.765 43.9456Z" fill="#293347"/>
<path d="M196.764 45.945C196.317 46.1921 195.328 45.5942 194.635 44.4033C194.048 43.383 193.767 42.3133 194.236 42.055C194.683 41.8079 195.672 42.4057 196.365 43.5982C196.952 44.617 197.233 45.6883 196.764 45.945Z" fill="#293347"/>
<path d="M192.94 58C190.504 58 188.423 56.985 188.051 55.3202C187.63 53.4551 189.867 51.4008 193.096 51.0517C193.412 51.0162 193.725 51 194.029 51C196.819 51 198.982 52.4061 199 54.1275C199.023 56.0508 196.731 57.6347 193.901 57.9483C193.577 57.9822 193.256 58 192.94 58Z" fill="#F6A191"/>
<path d="M229.941 55C227.505 55 225.423 53.9853 225.05 52.3216C224.632 50.4552 226.87 48.4 230.098 48.0515C230.414 48.0172 230.724 48 231.028 48C233.818 48 235.98 49.4062 236 51.13C236.023 53.0513 233.73 54.636 230.903 54.9485C230.578 54.9828 230.257 55 229.941 55Z" fill="#F6A191"/>
<path d="M200 86C200 86 208.884 89.2348 221 86.6031L200.003 92L200 86Z" fill="#F38879"/>
<path d="M212.507 69C210.675 69 209.26 68.3348 209.029 67.2148C209.014 67.1359 209.003 67.0589 209 66.98C209.492 67.0532 209.999 67.0927 210.516 67.0927C211.211 67.0927 211.927 67.0213 212.655 66.8616C214.926 66.3373 216.772 65.0689 218.122 63.6389C218.573 63.932 218.873 64.3191 218.968 64.7852C219.28 66.2997 217.307 68.0717 214.564 68.7426C213.848 68.9173 213.152 69 212.507 69ZM210.413 66.2452C209.983 66.2452 209.561 66.217 209.15 66.1663C209.645 64.9562 211.308 63.7779 213.434 63.2574C214.15 63.0827 214.847 63 215.492 63C216.217 63 216.875 63.1052 217.422 63.3006C216.141 64.5127 214.478 65.565 212.494 66.0197C211.787 66.1757 211.09 66.2452 210.413 66.2452Z" fill="#F6A493"/>
<path d="M210.498 67C209.988 67 209.487 66.9688 209.003 66.9108C208.987 66.6982 209.04 66.4827 209.151 66.2671C209.555 66.3072 209.972 66.3295 210.396 66.3295C211.064 66.3295 211.752 66.2745 212.449 66.1511C214.405 65.7914 216.045 64.9589 217.309 64C217.566 64.0728 217.798 64.1635 218 64.2676C216.668 65.3989 214.848 66.4024 212.607 66.8171C211.889 66.9435 211.183 67 210.498 67Z" fill="#F49080"/>
<path d="M216.176 8.85996C225.033 18.8729 241.567 19.7408 244.722 72.5622C244.786 73.6255 258.508 75.6968 259.958 38.3206C260.104 34.5249 259.965 22.7924 257.875 18.1157C254.792 11.226 246.171 8.35191 238.357 7.30649C230.544 6.25944 222.656 8.08649 215 9.9005" fill="#1B1A1A"/>
<path d="M246.467 60C246.467 60 256.687 59.7432 255.963 51.6469C255.239 43.5505 246 45.1231 246 45.1231L246.467 60Z" fill="#F8B4A1"/>
<path d="M249 56.9073C248.988 56.7848 249.813 56.7521 250.876 56.1739C251.93 55.6267 253.158 54.3543 253.198 52.6163C253.293 50.88 252.165 49.5275 251.154 48.915C250.135 48.2714 249.315 48.1881 249.336 48.0656C249.328 47.9872 250.214 47.8679 251.447 48.4641C252.044 48.7663 252.71 49.2531 253.218 49.9767C253.733 50.6954 254.034 51.6493 253.997 52.6441C253.957 53.6372 253.584 54.5666 253.016 55.2494C252.454 55.9371 251.753 56.3814 251.135 56.6427C249.864 57.1589 248.986 56.9874 249 56.9073Z" fill="#F38879"/>
<path d="M252.981 52.1076C253.05 52.1663 252.937 52.3815 252.586 52.6024C252.242 52.8232 251.645 53.0133 250.972 52.9993C250.297 52.9839 249.716 52.7687 249.387 52.5325C249.049 52.2963 248.95 52.0755 249.022 52.021C249.181 51.898 249.921 52.3564 250.992 52.3606C252.062 52.4011 252.832 51.9776 252.981 52.1076Z" fill="#F38879"/>
<path d="M169.008 35C168.721 25.4518 176.404 8.69006 184.86 3.93994C193.314 -0.810189 204.005 -1.15385 213.088 2.3092C222.171 5.77225 231.357 25.9772 236 34.3755C226.509 34.6662 210.002 32.4903 200.423 33.4452L199.392 20.3267L196.447 31.6741C187.243 32.7067 178.069 33.8815 169.008 35Z" fill="#1B1A1A"/>
<path d="M207.99 55.9655C207.985 56.0054 207.626 56.0237 206.972 55.9472C206.321 55.869 205.37 55.6843 204.255 55.25C203.706 55.0071 203.098 54.8107 202.491 54.3115C202.227 54.0769 201.885 53.6726 202.038 53.1485C202.19 52.626 202.815 52.408 203.236 52.3764C204.962 52.3481 206.666 52.4729 208.61 52.5345L208.179 52.8939C208.162 51.6393 208.144 50.3131 208.125 48.9421C208.083 44.5427 208.09 40.5609 208.138 37.6757C208.186 34.7904 208.273 33.0033 208.39 33C208.506 32.995 208.63 34.7771 208.734 37.664C208.839 40.5492 208.928 44.5393 208.97 48.947C208.98 50.3198 208.989 51.6493 208.996 52.9072L209 53.2882L208.567 53.2683C206.678 53.1851 204.804 53.0303 203.32 53.007C202.578 53.0519 202.475 53.4962 202.939 53.9222C203.355 54.3099 203.983 54.5794 204.477 54.8257C206.565 55.7592 208.016 55.8507 207.99 55.9655Z" fill="#F38879"/>
<path d="M203 0.775541C202.967 1.04945 199.956 0.499981 195.205 1.15278C190.51 1.76293 183.98 3.93455 178.74 8.82396C173.513 13.7298 171.057 19.9691 170.278 24.4829C169.451 29.0525 169.923 31.9769 169.639 31.9999C169.546 32.0113 169.332 31.3011 169.156 29.9792C168.976 28.6572 168.908 26.7103 169.195 24.3271C169.718 19.6066 172.121 12.949 177.66 7.74636C183.214 2.56499 190.177 0.457326 195.078 0.101404C197.553 -0.10034 199.562 0.0259644 200.925 0.24411C202.288 0.455695 203.017 0.68533 203 0.775541Z" fill="#F21D2F"/>
<path d="M297 339.722C297 339.733 296.815 339.75 296.455 339.771C296.046 339.786 295.515 339.809 294.849 339.839C293.379 339.886 291.31 339.951 288.674 340.034C283.311 340.186 275.551 340.366 265.96 340.522C246.777 340.851 220.271 341.067 190.997 340.981C161.712 340.885 135.206 340.502 116.027 340.041C106.437 339.823 98.6803 339.587 93.3189 339.396C90.6862 339.293 88.6174 339.212 87.1496 339.155C86.4813 339.122 85.9528 339.094 85.5454 339.075C85.1835 339.051 85 339.035 85 339.022C85 339.01 85.1851 339.003 85.5487 339C85.9578 339.003 86.4864 339.006 87.1546 339.01C88.6242 339.035 90.693 339.071 93.3307 339.115C98.7527 339.214 106.496 339.355 116.042 339.53C135.222 339.859 161.722 340.163 191 340.258C220.268 340.345 246.768 340.208 265.95 340.011C275.497 339.901 283.244 339.814 288.666 339.752C291.304 339.726 293.374 339.708 294.844 339.693C295.512 339.694 296.042 339.694 296.451 339.696C296.813 339.7 296.998 339.709 297 339.722Z" fill="#1E1E1E"/>
<path d="M93.974 338.992C93.7958 339.114 92.7706 337.875 91.6792 336.224C90.5879 334.572 89.8496 333.132 90.0261 333.009C90.2026 332.885 91.2295 334.124 92.3209 335.777C93.4088 337.428 94.1505 338.87 93.974 338.992Z" fill="#1E1E1E"/>
<path d="M31 378.961C30.9967 378.872 32.0052 378.897 33.7524 378.512C35.475 378.088 37.9626 377.158 40.4304 375.109C42.8966 373.096 45.3661 370.033 46.9438 366.093C48.5331 362.148 49.2094 357.429 49.2455 352.498C49.2817 348.438 48.979 344.521 48.6911 340.885C48.3851 337.26 47.852 333.921 46.8961 331.101C45.9518 328.28 44.606 326.015 43.2552 324.397C41.9012 322.774 40.567 321.801 39.6934 321.234L39.8332 321.204C39.1685 322.093 38.8477 322.49 38.8181 322.467C38.7868 322.447 39.0501 322.008 39.6588 321.078L39.7114 321L39.8003 321.048C40.7266 321.555 42.1398 322.492 43.5777 324.114C45.014 325.729 46.4486 328.026 47.4621 330.901C48.4871 333.771 49.0662 337.17 49.3985 340.821C49.7144 344.472 50.032 348.393 49.9974 352.506C49.9612 357.495 49.2554 362.317 47.5839 366.355C45.9222 370.405 43.3375 373.514 40.7594 375.529C38.1797 377.582 35.5869 378.459 33.8133 378.799C32.9101 378.936 32.2076 379.017 31.7272 378.997C31.2501 378.999 31 378.987 31 378.961Z" fill="#1E1E1E"/>
<path d="M251 59.9991C251 61.1031 250.105 62 248.999 62C247.895 62 247 61.1031 247 59.9991C247 58.8934 247.895 58 248.999 58C250.105 58 251 58.8934 251 59.9991Z" fill="#F21D2F"/>
<path d="M184 63.0009C184 64.1048 183.103 65 181.999 65C180.895 65 180 64.1048 180 63.0009C180 61.8952 180.895 61 181.999 61C183.103 61 184 61.8952 184 63.0009Z" fill="#F21D2F"/>
<path d="M195.997 34.644C195.947 35.1246 194.281 35.2281 192.468 36.121C190.639 36.9658 189.383 38.258 189.061 37.9549C188.736 37.7145 189.713 35.6034 191.93 34.5571C194.141 33.4904 196.089 34.2058 195.997 34.644Z" fill="#303C5D"/>
<path d="M227.967 33.9481C227.66 34.2844 225.78 32.8864 223.072 32.6341C220.375 32.303 218.246 33.2683 218.015 32.8724C217.912 32.6972 218.333 32.1769 219.266 31.7004C220.189 31.2256 221.644 30.8735 223.24 31.0434C224.835 31.2186 226.186 31.8721 226.989 32.536C227.802 33.2 228.107 33.7974 227.967 33.9481Z" fill="#303C5D"/>
<path d="M189 115.528C189 115.528 194.897 152.019 208.903 153.934C222.908 155.85 266 115.342 266 115.342C266 115.342 255.183 109.759 222.304 111.255C189.423 112.752 189 115.528 189 115.528Z" fill="#F8B4A1"/>
<path d="M280 123.168C280.024 123.329 277.3 122.656 272.793 124.105C270.574 124.845 268.012 126.214 265.495 128.342C263.013 130.499 260.574 133.418 258.76 137.094C256.962 140.78 255.821 145.169 255.172 149.93C254.505 154.702 254.345 159.86 254.031 165.291C253.66 170.721 253.14 176.418 252.205 182.276C251.274 188.128 250.04 194.152 248.459 200.243C245.238 212.419 240.943 223.701 236.14 233.539C233.791 238.484 231.224 243.025 228.77 247.239C226.247 251.411 223.824 255.273 221.224 258.544C216.129 265.159 210.515 269.401 206.11 271.183C205.036 271.682 204.01 271.963 203.148 272.251C202.253 272.455 201.514 272.679 200.893 272.766C200.307 272.844 199.842 272.906 199.482 272.956C199.165 272.994 199.002 273.008 199.001 272.995C198.956 272.841 201.69 272.847 205.985 270.916C210.3 269.072 215.784 264.83 220.786 258.225C223.337 254.959 225.719 251.102 228.214 246.928C230.635 242.717 233.172 238.182 235.493 233.246C240.244 223.428 244.502 212.185 247.707 200.057C249.283 193.991 250.517 187.993 251.454 182.164C252.397 176.331 252.928 170.66 253.319 165.25C253.653 159.835 253.836 154.656 254.533 149.846C255.217 145.044 256.402 140.605 258.267 136.865C260.147 133.131 262.658 130.188 265.21 128.026C267.798 125.891 270.426 124.536 272.698 123.826C274.977 123.105 276.852 123.021 278.099 123C278.726 123.025 279.201 123.079 279.52 123.104C279.839 123.133 280.002 123.156 280 123.168Z" fill="#03665C"/>
<path d="M285.991 215C286.019 215.005 285.981 215.268 285.889 215.764C285.772 216.342 285.626 217.058 285.451 217.926C285.065 219.803 284.422 222.503 283.584 225.829C281.832 232.444 279.209 241.627 274.507 251.073C272.153 255.787 269.484 260.068 266.815 263.788C264.156 267.521 261.421 270.631 259.087 273.196C256.709 275.725 254.72 277.712 253.274 279.01C252.608 279.614 252.058 280.11 251.616 280.512C251.231 280.85 251.02 281.018 251.001 280.998C250.984 280.98 251.158 280.775 251.508 280.405C251.922 279.975 252.436 279.447 253.06 278.802C254.44 277.442 256.363 275.404 258.676 272.842C260.947 270.244 263.621 267.118 266.227 263.391C268.845 259.676 271.471 255.42 273.808 250.744C278.473 241.374 281.169 232.26 283.054 225.694C283.919 222.465 284.63 219.817 285.155 217.86C285.39 217.005 285.582 216.3 285.738 215.73C285.879 215.245 285.966 214.994 285.991 215Z" fill="#03665C"/>
<path d="M207.79 40.5H207.58C207.58 44.3926 205.947 47.9148 203.31 50.466C200.671 53.0172 197.027 54.594 193.001 54.594C188.974 54.594 185.331 53.0172 182.692 50.466C180.053 47.9148 178.42 44.3926 178.42 40.5C178.42 36.6075 180.053 33.0852 182.692 30.534C185.331 27.9828 188.974 26.406 193.001 26.406C197.027 26.406 200.671 27.9828 203.31 30.534C205.947 33.0852 207.58 36.6075 207.58 40.5H207.79H208C208 32.4908 201.284 26 193.001 26C184.718 26 178 32.4908 178 40.5C178 48.5076 184.718 55 193.001 55C201.284 55 208 48.5076 208 40.5H207.79Z" fill="#303C5D"/>
<path d="M239.783 40.5H239.566C239.566 44.3926 237.88 47.9148 235.153 50.466C232.426 53.0172 228.661 54.594 224.498 54.594C220.337 54.594 216.572 53.0172 213.847 50.466C211.12 47.9148 209.434 44.3926 209.434 40.5C209.434 36.6075 211.12 33.0852 213.847 30.534C216.572 27.9828 220.337 26.406 224.498 26.406C228.661 26.406 232.426 27.9828 235.153 30.534C237.88 33.0852 239.566 36.6075 239.566 40.5H239.783H240C240 32.4908 233.062 26 224.498 26C215.938 26 209 32.4908 209 40.5C209 48.5076 215.938 55 224.498 55C233.062 55 240 48.5076 240 40.5H239.783Z" fill="#303C5D"/>
<path d="M248 282C249.284 281.201 250.53 280.339 251.738 279.42C251.479 279.687 251.247 279.93 251.04 280.146C250.693 280.516 250.521 280.721 250.538 280.739C250.54 280.74 250.542 280.74 250.543 280.74C250.579 280.74 250.786 280.574 251.147 280.253C251.585 279.852 252.129 279.357 252.789 278.754C253.211 278.371 253.681 277.929 254.194 277.43C254.244 277.386 254.297 277.341 254.347 277.298C257.092 277.287 259.76 277.273 262.337 277.259C254.509 281.082 248 282 248 282ZM265.276 275.712C262.357 275.692 259.312 275.675 256.158 275.66C260.386 271.672 264.091 267.003 267.314 262.07C272.2 262.034 276.697 261.989 280.696 261.938C276.255 268.292 270.616 272.69 265.276 275.712ZM281.52 260.715C277.573 260.662 273.124 260.617 268.268 260.579C268.512 260.19 268.753 259.802 268.99 259.409C270.672 256.765 272.308 253.909 273.812 250.87C274.481 249.52 275.105 248.174 275.691 246.84C280.123 246.794 284.088 246.739 287.479 246.68C286.163 252.146 284.071 256.782 281.52 260.715ZM287.715 245.655C284.42 245.595 280.57 245.542 276.27 245.496C276.613 244.686 276.943 243.88 277.258 243.081C278.975 239.013 280.405 235.115 281.575 231.615C284.297 231.579 286.776 231.541 288.979 231.498C289.107 236.733 288.641 241.432 287.715 245.655ZM288.949 230.522C286.86 230.483 284.527 230.445 281.972 230.41C283.815 224.754 284.945 220.27 285.473 218C285.576 218.918 285.785 219.676 286.123 220.257C286.919 221.629 287.803 223.985 288.73 226.981C288.833 228.188 288.905 229.367 288.949 230.522Z" fill="#680707"/>
<path d="M282 232C282.129 231.663 282.255 231.327 282.376 231C284.791 231.029 286.997 231.06 288.971 231.093C288.982 231.364 288.992 231.634 289 231.903C286.917 231.938 284.573 231.97 282 232Z" fill="#DBB771"/>
<path d="M276 247C276.197 246.666 276.39 246.333 276.578 246C280.87 246.034 284.711 246.074 288 246.118C287.924 246.373 287.845 246.629 287.765 246.881C284.38 246.925 280.423 246.966 276 247Z" fill="#DBB771"/>
<path d="M268 262C268.318 261.668 268.632 261.334 268.94 261C273.726 261.025 278.11 261.055 282 261.091C281.735 261.369 281.463 261.643 281.189 261.911C277.248 261.946 272.815 261.976 268 262Z" fill="#DBB771"/>
<path d="M255 278C255.618 277.351 256.225 276.683 256.823 276C259.998 276.018 263.062 276.038 266 276.063C265 276.748 264.011 277.377 263.042 277.952C260.448 277.97 257.763 277.986 255 278Z" fill="#DBB771"/>
<path d="M251.006 281C251.005 281 251.003 281 251.001 280.998C250.984 280.98 251.158 280.773 251.508 280.4C251.717 280.182 251.952 279.937 252.214 279.667C253.059 279.024 253.886 278.355 254.695 277.66C254.176 278.163 253.702 278.609 253.275 278.996C252.608 279.604 252.059 280.104 251.617 280.509C251.251 280.832 251.042 281 251.006 281ZM269.646 259.475C272.964 254.036 275.73 248.372 278 243C277.682 243.806 277.349 244.619 277.002 245.437C276.811 245.889 276.616 246.34 276.417 246.793C275.825 248.139 275.194 249.497 274.519 250.86C272.998 253.926 271.345 256.808 269.646 259.475Z" fill="#135D5C"/>
<path d="M23 194L41.8598 284H222V275.127L173.224 273.226L156.968 194H23Z" fill="#293347"/>
<path d="M109 283C109 283 133.891 291.622 152.078 290.964L172 290.997L168.308 283H109Z" fill="#F8B4A1"/>
<path d="M110 243H89V239H110V243Z" fill="#F21D2F"/>
<path d="M220.658 166L218 164.715C220.539 159.769 224.944 158.757 228.817 157.87C232.517 157.016 235.74 156.281 237.659 152.544C239.577 148.807 238.245 145.878 236.71 142.485C235.105 138.943 233.287 134.927 235.825 129.982C238.364 125.034 242.763 124.019 246.641 123.132C250.35 122.284 253.568 121.543 255.486 117.802C257.407 114.055 256.083 111.123 254.545 107.726C252.943 104.18 251.125 100.161 253.669 95.2075C256.209 90.2578 260.613 89.2442 264.489 88.3456C268.212 87.4864 271.423 86.7488 273.344 83L276 84.2847C273.459 89.2393 269.073 90.2529 265.177 91.1482C261.441 92.0107 258.245 92.7499 256.325 96.4938C254.404 100.239 255.729 103.172 257.266 106.569C258.866 110.114 260.686 114.134 258.142 119.087C255.604 124.033 251.212 125.045 247.323 125.936C243.621 126.79 240.402 127.528 238.48 131.267C236.563 135.004 237.891 137.933 239.428 141.325C241.035 144.867 242.851 148.884 240.315 153.829C237.775 158.777 233.38 159.787 229.497 160.672C225.797 161.522 222.575 162.261 220.658 166Z" fill="#F21D2F"/>
</svg>
